<svg width="72" height="74" viewBox="0 0 72 74" fill="none" xmlns="http://www.w3.org/2000/svg">
<g opacity="0.5">
<path d="M56.2656 52.0542C56.8459 60.8821 49.9725 61.0235 40.164 59.2275C35.4546 63.9257 27.7291 68.969 23.9435 63.6168C20.1579 58.2645 26.2862 41.439 35.1534 39.1129C47.3733 38.4605 55.9514 47.2737 56.2656 52.0542Z" fill="#373737"/>
<path d="M28.5884 23.8723C27.4711 19.004 20.1006 13.8713 17.2903 15.7096C14.4799 17.548 15.7765 27.1518 20.6711 30.5445C25.5658 33.9373 29.5114 31.2319 28.5884 23.8723Z" fill="#373737"/>
<path d="M41.1145 28.8901C47.682 22.2375 45.8138 13.3365 40.0303 11.0598C34.2467 8.7831 33.1796 15.79 33.9632 19.2591C34.7467 22.7282 38.6919 30.9452 41.1145 28.8901Z" fill="#373737"/>
<path d="M57.7536 38.1645C62.0656 31.4494 59.9749 25.0154 54.6303 24.281C49.2857 23.5466 45.8051 28.9077 48.4265 35.4316C51.5836 42.8433 54.5215 42.5185 57.7536 38.1645Z" fill="#373737"/>
<path d="M20.3333 47.6876C27.4906 37.1179 13.4628 30.5646 10.6739 34.2224C7.8849 37.8803 9.32177 40.6291 12.2554 44.2619C15.189 47.8946 18.4617 50.0317 20.3333 47.6876Z" fill="#373737"/>
</g>
</svg>
