<svg width="340" height="246" viewBox="0 0 340 246" fill="none" xmlns="http://www.w3.org/2000/svg">
<g filter="url(#filter0_di_4_22)">
<path d="M270.467 132.459C296.606 201.143 262.314 249.045 170.489 229.662C169.793 229.515 169.03 229.515 168.334 229.662C76.5051 249.045 41.69 201.143 67.8199 132.459C68.2455 131.34 68.2745 130.068 67.8841 128.937C51.357 81.0531 48.8164 53.0626 55.7599 9.60295C56.4022 5.58324 61.3537 4.06427 64.2242 6.95067C92.9419 35.8282 118.855 57.136 130.269 57.0102C146.87 55.1526 154.934 50.5214 168.876 50.9181C182.924 50.9181 191.417 55.1526 208.018 57.0103C219.433 57.136 245.345 35.8282 274.063 6.95068C276.933 4.06429 281.885 5.58325 282.527 9.60298C289.471 53.0627 286.93 81.0531 270.403 128.937C270.013 130.068 270.042 131.34 270.467 132.459Z" fill="black"/>
</g>
<path d="M126.144 182.527L126.256 183.014C110.429 186.654 99.3735 190.375 90.1523 195.362C80.9361 200.347 73.5245 206.611 65.002 215.375L64.6436 215.027L64.2852 214.679C72.8459 205.875 80.3378 199.534 89.6768 194.482C99.0108 189.434 110.164 185.689 126.031 182.04L126.144 182.527ZM213.256 182.04C229.123 185.689 240.276 189.434 249.61 194.482C258.949 199.534 266.441 205.875 275.002 214.679L274.644 215.027L274.285 215.375C265.763 206.611 258.351 200.347 249.135 195.362C239.914 190.375 228.859 186.654 213.031 183.014L213.144 182.527L213.256 182.04ZM60.4629 180.763C78.9483 175.89 99.5224 174.546 127.152 175.027L127.144 175.527L127.135 176.026C99.5365 175.545 79.0705 176.892 60.7178 181.73C42.3731 186.565 26.1091 194.898 6.93164 208.436L6.64355 208.027L6.35547 207.618C25.5973 194.036 41.9696 185.638 60.4629 180.763ZM212.135 175.027C239.765 174.546 260.339 175.89 278.824 180.763C297.318 185.638 313.69 194.036 332.932 207.618L332.644 208.027L332.355 208.436C313.178 194.898 296.914 186.565 278.569 181.73C260.217 176.892 239.751 175.545 212.152 176.026L212.144 175.527L212.135 175.027ZM173.954 167.506C175.804 167.462 177.221 167.673 178.258 168.112C179.31 168.558 179.981 169.244 180.281 170.12C180.575 170.976 180.489 171.939 180.189 172.906C179.889 173.877 179.358 174.898 178.702 175.9C177.389 177.906 175.527 179.91 173.805 181.412C172.943 182.164 172.106 182.8 171.38 183.251C171.017 183.476 170.673 183.661 170.362 183.79C170.232 183.844 170.1 183.889 169.97 183.926C169.997 185.833 169.759 187.534 169.234 189.114C171.14 192.475 172.882 194.796 174.883 196.773C176.942 198.808 179.291 200.495 182.421 202.584L181.866 203.416C178.73 201.323 176.312 199.591 174.18 197.484C172.244 195.572 170.557 193.363 168.771 190.313C168.278 191.427 167.631 192.49 166.817 193.532C164.448 196.569 160.692 199.426 155.423 202.98L155.144 202.565L154.864 202.15C160.139 198.593 163.768 195.813 166.028 192.917C168.093 190.272 169.022 187.516 168.969 183.93C168.842 183.895 168.713 183.854 168.585 183.803C168.279 183.681 167.943 183.508 167.59 183.296C166.882 182.871 166.07 182.271 165.234 181.559C163.564 180.135 161.759 178.228 160.464 176.286C159.816 175.315 159.286 174.322 158.969 173.364C158.652 172.41 158.535 171.455 158.761 170.587C159.233 168.768 161.077 167.678 164.44 167.506H173.954ZM173.979 168.506H164.479C161.238 168.674 160.027 169.689 159.729 170.838C159.569 171.454 159.636 172.2 159.918 173.049C160.199 173.894 160.679 174.807 161.296 175.731C162.529 177.58 164.267 179.421 165.883 180.798C166.69 181.486 167.457 182.05 168.104 182.438C168.428 182.633 168.715 182.778 168.955 182.874C169.16 182.956 169.311 182.991 169.411 183.001L169.584 182.991C169.679 182.973 169.81 182.936 169.979 182.866C170.224 182.764 170.519 182.609 170.853 182.401C171.52 181.987 172.313 181.387 173.147 180.659C174.818 179.202 176.614 177.265 177.865 175.353C178.491 174.396 178.97 173.462 179.234 172.61C179.499 171.755 179.534 171.025 179.335 170.444C179.143 169.883 178.707 169.388 177.868 169.033C177.014 168.672 175.757 168.464 173.979 168.506ZM0 178.549C42.6257 165.759 70.795 164.76 127.207 172.031L127.08 173.023C70.7584 165.764 42.7384 166.768 0.287109 179.506L0 178.549ZM212.08 172.031C268.492 164.76 296.661 165.759 339.287 178.549L339 179.506C296.549 166.768 268.529 165.764 212.207 173.023L212.08 172.031Z" fill="white"/>
<defs>
<filter id="filter0_di_4_22" x="50.0436" y="4.357" width="246.2" height="240.743" filterUnits="userSpaceOnUse" color-interpolation-filters="sRGB">
<feFlood flood-opacity="0" result="BackgroundImageFix"/>
<feColorMatrix in="SourceAlpha" type="matrix" values="0 0 0 0 0 0 0 0 0 0 0 0 0 0 0 0 0 0 127 0" result="hardAlpha"/>
<feOffset dx="4" dy="5"/>
<feGaussianBlur stdDeviation="3.05"/>
<feComposite in2="hardAlpha" operator="out"/>
<feColorMatrix type="matrix" values="0 0 0 0 0 0 0 0 0 0 0 0 0 0 0 0 0 0 0.25 0"/>
<feBlend mode="normal" in2="BackgroundImageFix" result="effect1_dropShadow_4_22"/>
<feBlend mode="normal" in="SourceGraphic" in2="effect1_dropShadow_4_22" result="shape"/>
<feColorMatrix in="SourceAlpha" type="matrix" values="0 0 0 0 0 0 0 0 0 0 0 0 0 0 0 0 0 0 127 0" result="hardAlpha"/>
<feOffset dx="4" dy="4"/>
<feGaussianBlur stdDeviation="3.55"/>
<feComposite in2="hardAlpha" operator="arithmetic" k2="-1" k3="1"/>
<feColorMatrix type="matrix" values="0 0 0 0 0.6 0 0 0 0 0.6 0 0 0 0 0.6 0 0 0 0.69 0"/>
<feBlend mode="normal" in2="shape" result="effect2_innerShadow_4_22"/>
</filter>
</defs>
</svg>
