<svg width="27" height="78" viewBox="0 0 27 78" fill="none" xmlns="http://www.w3.org/2000/svg">
<path d="M26.2984 47.08C26.2511 46.6841 26.0166 46.3355 25.6207 46.1376C25.2421 45.9485 24.7571 45.9149 24.2017 46.0204L24.1802 46.0243C21.0767 46.7557 19.2454 47.0214 16.1959 47.1083C16.4306 44.9276 16.5328 43.496 16.5894 41.2968C19.2224 41.1882 20.7775 41.0394 23.2613 40.5887L23.2769 40.5858L23.2925 40.5819C24.364 40.3157 25.0997 39.6352 25.106 38.8309C25.1091 38.4188 24.9058 38.0472 24.5494 37.8143C24.2045 37.5892 23.751 37.5121 23.2466 37.5702L23.2213 37.5731L23.1959 37.579C20.6909 38.1329 19.1965 38.294 16.7466 38.3964C16.7924 36.658 16.7806 35.4788 16.691 33.701C19.0574 33.5983 20.5035 33.4256 22.8277 32.8573L22.8521 32.8514L22.8756 32.8436C23.78 32.5235 24.2735 31.7601 24.148 31.0155C24.0857 30.6466 23.8678 30.3137 23.5152 30.1151C23.1662 29.9185 22.7327 29.8782 22.2662 29.9862L22.2584 29.9882C20.0913 30.5272 18.8067 30.6931 16.7164 30.7479C16.665 29.0926 16.5863 27.9312 16.3892 26.1044C17.8023 26.0291 18.7176 25.8736 20.1412 25.455L20.1715 25.4452L20.2008 25.4325C20.9028 25.1237 21.3063 24.4199 21.2398 23.7577C21.2052 23.4154 21.0417 23.0815 20.7281 22.8524C20.4187 22.6265 20.0152 22.5393 19.5611 22.578L19.5142 22.5819L19.4703 22.5946C18.1637 22.956 17.367 23.1048 16.1783 23.2401C16.0651 20.9958 15.8999 19.5605 15.4966 17.3954L17.6402 17.0233L17.7398 17.0057L17.8248 16.952C18.3698 16.6032 18.8791 15.9709 19.3511 15.162C19.8296 14.342 20.2973 13.2911 20.7398 12.0487C21.6253 9.5624 22.4254 6.26342 23.0054 2.40027L23.0074 2.38269C23.0655 1.87754 23.0866 1.44737 23.0484 1.10437C23.0118 0.776329 22.9085 0.411545 22.6041 0.185425C22.2886 -0.0487137 21.9116 -0.0226059 21.608 0.055542C21.2965 0.135803 20.9414 0.301369 20.5543 0.511597L20.5299 0.525269L20.5064 0.540894L12.4566 6.15613L3.24763 2.9657L3.23981 2.96277L3.23102 2.96082C2.54281 2.74802 1.98414 2.6259 1.54255 2.61023C1.10657 2.5948 0.675859 2.68063 0.38825 3.01453C0.113611 3.33364 0.0815544 3.75387 0.107 4.11414C0.133034 4.48148 0.230675 4.9118 0.347235 5.36902C1.04315 8.86356 2.78727 11.9908 4.67536 14.2655C5.6201 15.4036 6.60958 16.3393 7.53571 17.0048C8.44641 17.659 9.35252 18.0938 10.1226 18.1425L10.1666 18.1454L10.2105 18.1405L12.6383 17.868C12.9444 19.8924 13.1069 21.2196 13.2984 23.2362C11.5645 23.0409 10.5412 22.7224 8.9322 21.9784L8.75641 21.8934C8.35036 21.7098 7.96148 21.6346 7.60993 21.6874C7.19073 21.7504 6.86443 21.9923 6.69196 22.3436C6.36287 23.0145 6.65872 23.8736 7.31794 24.4384L7.357 24.4716L7.4029 24.4969C8.49206 25.0942 9.41185 25.501 10.4312 25.7665C11.3381 26.0026 12.3062 26.1214 13.5191 26.1766C13.6394 27.8901 13.6946 29.0409 13.7369 30.7606C10.9209 30.4276 9.23022 30.0709 6.40192 29.2098L6.20856 29.1581C5.76217 29.0546 5.35015 29.0785 5.00251 29.2313C4.6008 29.408 4.33056 29.7384 4.22419 30.1239C4.00949 30.9033 4.46963 31.7636 5.4195 32.12L5.44489 32.1298L5.47126 32.1366C8.62782 32.9401 10.5247 33.2742 13.7633 33.6093C13.815 35.4345 13.8138 36.6327 13.7642 38.4813C10.482 38.4502 8.51356 38.1409 5.08356 37.0663L5.07282 37.0634L5.06306 37.0604C4.45626 36.8984 3.93693 36.887 3.51911 37.0262C3.08612 37.1707 2.78808 37.4706 2.66071 37.8466C2.42153 38.5532 2.82473 39.3847 3.5777 39.6512H3.57868C7.19479 40.921 9.4905 41.3115 13.6109 41.4335C13.5747 43.5609 13.473 44.9387 13.2154 47.1014C9.46173 46.9172 7.24852 46.57 3.42243 45.5077L3.21931 45.453C2.75128 45.3398 2.33052 45.3247 1.97419 45.4051C1.56448 45.4977 1.21348 45.7275 1.03962 46.0946C0.865191 46.4636 0.917358 46.8713 1.10993 47.2157C1.30081 47.5567 1.63259 47.8508 2.06501 48.0702L2.10212 48.0887L2.14216 48.1014C5.77771 49.2329 8.2159 49.7221 12.8843 50.0497C12.6496 51.6464 12.4662 52.6961 12.1402 54.203L5.72712 53.3475L5.7154 53.3456C3.59701 53.1147 2.10587 53.2667 1.17341 54.1317C0.246895 54.9916 0.0293159 56.4156 0.00641441 58.2225C-0.0352688 61.4172 0.136253 63.8196 0.676336 66.0048C1.21774 68.1951 2.12283 70.1406 3.5152 72.4315L3.52009 72.4393L3.52595 72.4471C5.30363 75.1379 6.94887 76.7908 9.02302 77.076C11.0771 77.3584 13.3611 76.269 16.3316 74.08L16.358 74.0604L16.3814 74.0389C20.4323 70.1545 22.4537 67.7215 24.6265 62.3436L24.6295 62.3358L24.6324 62.327C24.9628 61.4161 25.2113 60.6035 25.3345 59.8866C25.4575 59.1711 25.4628 58.5124 25.2701 57.9286C24.8909 56.7802 23.8379 56.1444 22.2125 55.7782L21.8795 55.7089L21.8668 55.7059L21.855 55.705L15.0425 54.7323C15.3803 53.0435 15.5685 51.8985 15.7603 50.1288C19.3224 49.9311 21.419 49.6557 24.9381 48.8309L24.9517 48.828L24.9644 48.8241C25.8119 48.5745 26.3882 47.8341 26.2984 47.08ZM17.6871 63.4657C17.6869 64.8755 16.5331 66.0184 15.1099 66.0184C13.6869 66.0182 12.5329 64.8754 12.5328 63.4657C12.5328 62.0559 13.6868 60.9122 15.1099 60.912C16.5332 60.912 17.6871 62.0557 17.6871 63.4657Z" fill="#864B4B"/>
</svg>
