<svg width="134" height="40" viewBox="0 0 134 40" fill="none" xmlns="http://www.w3.org/2000/svg">
<path d="M51.9886 0.0128813C52.5206 0.073012 53.0241 0.349123 53.3236 0.875255C53.6164 1.39006 53.6729 2.07132 53.4857 2.87702L53.4836 2.88872L53.4796 2.90138C52.132 7.6139 51.6458 10.3623 51.456 15.0834C55.596 14.738 58.1402 14.6096 62.29 14.5666C62.5208 10.514 62.798 8.19239 63.6323 4.44116L63.6354 4.42362L63.6414 4.4061C64.119 2.81918 65.245 1.93353 66.3475 1.93764C66.9003 1.9398 67.4247 2.17438 67.7721 2.63979C68.1162 3.10117 68.2456 3.73203 68.1401 4.46105L68.1359 4.4903L68.1278 4.51952C67.1012 8.33719 66.8066 10.5846 66.5899 14.391C69.9424 14.3441 72.054 14.3818 75.4772 14.571C75.6914 10.9081 76.0026 8.75073 77.0448 5.23408L77.0529 5.20682L77.0639 5.18056C77.61 3.89552 78.8078 3.33882 79.8264 3.4969C80.3362 3.57618 80.8189 3.84079 81.116 4.30315C81.4164 4.77076 81.4837 5.37239 81.2965 6.03751L81.2935 6.04627C80.2962 9.35618 79.9978 11.291 79.8761 14.5527C83.0557 14.6645 85.1326 14.8051 88.6592 15.1741C88.8059 12.928 89.08 11.5583 89.8545 9.37353L89.8666 9.33947L89.8826 9.30741C90.3889 8.3449 91.4778 7.86842 92.4102 7.95827C92.8882 8.00447 93.3651 8.20343 93.7005 8.60533C94.0398 9.01213 94.1844 9.566 94.1127 10.219L94.1063 10.2717L94.0892 10.3223C93.4087 12.3596 93.1383 13.5691 92.874 15.483C97.1085 15.7003 99.6458 15.9772 103.724 16.6822L104.46 13.2257L104.484 13.1156L104.552 13.0265C105.127 12.2732 106.176 11.5563 107.565 10.8795C108.968 10.1956 110.774 9.5263 112.922 8.89434C117.22 7.63 122.933 6.50239 129.63 5.71011L129.636 5.70921L129.644 5.70831C130.513 5.63171 131.22 5.6118 131.765 5.66952C132.286 5.72478 132.782 5.86259 133.084 6.21922C133.418 6.61315 133.39 7.10685 133.254 7.54426C133.117 7.98348 132.836 8.49176 132.468 9.05973L132.452 9.08495L132.433 9.10722L122.493 21.0713L127.925 34.9207L127.928 34.9286L127.931 34.9384C128.288 35.961 128.487 36.7774 128.506 37.4132C128.526 38.0566 128.363 38.6131 127.886 38.9576C127.448 39.2738 126.862 39.3198 126.273 39.278C125.673 39.2354 124.953 39.0895 124.153 38.9057C118.179 37.8227 112.835 35.203 108.951 32.3783C107.008 30.9658 105.419 29.4934 104.296 28.1242C103.188 26.7748 102.475 25.4567 102.406 24.3576L102.402 24.3068L102.41 24.2561L102.952 20.4294C99.0927 19.885 96.7121 19.6118 92.8363 19.2611C93.1467 22.0585 93.6884 23.6311 95.0253 26.1677C95.4192 26.8364 95.5797 27.4642 95.4781 28.0123C95.371 28.5884 94.991 28.9882 94.505 29.1869C93.5763 29.5665 92.2856 29.2339 91.3704 28.2993L91.3327 28.2598L91.3039 28.2146C90.2898 26.5929 89.6066 25.2318 89.1672 23.7295C88.7602 22.3382 88.5702 20.8475 88.4994 18.9451C85.1975 18.7095 83.1208 18.6028 79.7828 18.5021C80.3284 22.8741 80.9189 25.4241 82.4058 29.7513L82.4048 29.7513C82.6645 30.5004 82.6402 31.1751 82.3574 31.7128C82.0755 32.2487 81.575 32.5755 81.0308 32.6983C79.9511 32.9416 78.6265 32.4078 78.0523 31.0583L78.0409 31.0298L78.0324 31.0005C76.6678 26.2258 76.1212 23.3904 75.5821 18.4366C72.0991 18.3124 69.9506 18.293 66.4146 18.3415C66.4025 23.3862 66.8962 26.3497 68.7448 31.5741L68.7496 31.5859L68.7524 31.5977C69.0185 32.4843 69.0232 33.2231 68.7923 33.7994C68.5551 34.3909 68.0941 34.7486 67.5759 34.8934C67.0712 35.0343 66.5209 34.9731 66.0537 34.7674C65.5857 34.5612 65.1599 34.1906 64.9506 33.6691L64.9497 33.6672C62.7805 28.2123 62.1526 24.7876 62.0152 18.5113C57.9823 18.5206 55.5162 18.6516 51.4253 19.0325C51.6841 24.7694 52.2495 28.0937 54.0649 33.9002L54.0639 33.9002C54.3269 34.6986 54.3712 35.3987 54.2156 35.9663C54.0566 36.546 53.6887 36.9757 53.1865 37.1736C52.1865 37.5674 51.0007 36.9628 50.2977 35.7464L50.2747 35.7062L50.2595 35.6621C48.3302 30.1729 47.5247 26.5234 47.0297 19.3956C43.9018 19.7531 41.9927 20.0141 39.0635 20.5317L40.48 30.2978L40.4818 30.3115L40.5433 30.8932C40.8089 33.7421 40.4548 35.692 39.1202 36.9004C38.4176 37.5365 37.4885 37.922 36.3631 38.1515C35.2393 38.3805 33.8833 38.4613 32.2923 38.4622C26.761 38.4674 22.6349 38.1708 18.9008 37.3395C15.1614 36.5069 11.8368 35.1435 7.90037 33.0408L7.8926 33.0368L7.88484 33.0319C5.55405 31.6799 3.71939 30.4041 2.41119 29.1025C1.09863 27.7964 0.291145 26.4402 0.0651726 24.9327C-0.16041 23.4272 0.204914 21.8444 1.09131 20.106C1.97591 18.3712 3.39593 16.4481 5.33038 14.2439L5.35212 14.2197L5.37676 14.1975C12.1626 8.25491 16.3741 5.32294 25.6747 2.20788L25.6825 2.20503L25.6903 2.20316C27.2693 1.72983 28.6558 1.38207 29.8647 1.21663C31.0717 1.05151 32.135 1.06329 33.0532 1.33333C34.9603 1.89453 36.039 3.50117 36.6282 6.22281L36.6319 6.2375L36.6338 6.25119L38.2621 16.6903C41.516 16.1609 43.56 15.8927 46.9405 15.6201C47.3399 10.2043 47.8425 7.08608 49.3441 1.80713L49.3481 1.79253L49.3532 1.77695C49.7825 0.567657 50.9599 -0.102999 51.9886 0.0128813ZM23.4626 12.297C21.0147 12.2719 19.0127 13.9689 18.9909 16.0873C18.9692 18.2058 20.9359 19.9434 23.3839 19.9685C25.8318 19.9935 27.8339 18.2966 27.8557 16.1783C27.8774 14.0599 25.9104 12.3223 23.4626 12.297Z" fill="#CAA2A2"/>
</svg>
