<svg width="27" height="78" viewBox="0 0 27 78" fill="none" xmlns="http://www.w3.org/2000/svg">
<path d="M26.2984 47.0799C26.251 46.6841 26.0165 46.3354 25.6206 46.1375C25.2421 45.9484 24.7569 45.9149 24.2017 46.0203L24.1802 46.0242C21.0766 46.7556 19.2454 47.0213 16.1958 47.1082C16.4306 44.9276 16.5328 43.4961 16.5894 41.2967C19.2223 41.1882 20.7775 41.0394 23.2613 40.5887L23.2769 40.5858L23.2925 40.5819C24.0415 40.3957 24.6262 40.0071 24.9126 39.5154C24.9479 39.2881 25.0124 39.0714 25.104 38.868C25.1045 38.8556 25.1059 38.8433 25.106 38.8309C25.109 38.4188 24.9058 38.0471 24.5494 37.8143C24.2045 37.5892 23.7508 37.5121 23.2466 37.5701L23.2212 37.5731L23.1958 37.5789C20.6908 38.1329 19.1964 38.2939 16.7466 38.3963C16.7923 36.658 16.7806 35.4788 16.691 33.701C19.0573 33.5982 20.5034 33.4256 22.8277 32.8572L22.8521 32.8514L22.8755 32.8436C23.78 32.5233 24.2736 31.7601 24.148 31.0154C24.0856 30.6466 23.8677 30.3136 23.5152 30.1151C23.1662 29.9185 22.7325 29.8782 22.2661 29.9862L22.2583 29.9881C20.0913 30.5272 18.8066 30.6931 16.7163 30.7479C16.665 29.0926 16.5863 27.9312 16.3892 26.1043C17.8022 26.0291 18.7175 25.8735 20.1411 25.4549L20.1714 25.4451L20.2007 25.4324C20.9028 25.1236 21.3064 24.4199 21.2398 23.7576C21.2051 23.4154 21.0417 23.0814 20.7281 22.8524C20.4187 22.6265 20.0151 22.5393 19.5611 22.5779L19.5142 22.5819L19.4703 22.5946C18.1636 22.956 17.367 23.1048 16.1783 23.2401C16.0651 20.9958 15.8999 19.5605 15.4966 17.3953L17.6402 17.0233L17.7398 17.0057L17.8247 16.952C18.3698 16.6031 18.8791 15.9709 19.3511 15.1619C19.8295 14.3419 20.2973 13.291 20.7398 12.0487C21.6253 9.56232 22.4254 6.26335 23.0054 2.40022L23.0074 2.38264C23.0654 1.87746 23.0866 1.4473 23.0484 1.10432C23.0117 0.776306 22.9085 0.411423 22.604 0.185371C22.2887 -0.0486832 21.9115 -0.0226135 21.6079 0.0554886C21.2965 0.135719 20.9414 0.301346 20.5542 0.511543L20.5298 0.525215L20.5064 0.54084L12.4566 6.15607L3.24759 2.96564L3.23978 2.96272L3.23099 2.96076C2.54285 2.74799 1.98409 2.62586 1.54252 2.61018C1.10662 2.59473 0.67584 2.68074 0.38822 3.01447C0.113482 3.33353 0.0815525 3.75379 0.10697 4.11408C0.132967 4.48143 0.230637 4.9117 0.347204 5.36897C1.04307 8.86356 2.78721 11.9907 4.67533 14.2654C5.62009 15.4036 6.60951 16.3393 7.53568 17.0047C8.44644 17.659 9.35245 18.0938 10.1226 18.1424L10.1665 18.1453L10.2105 18.1404L12.6382 17.868C12.9444 19.8924 13.1069 21.2196 13.2984 23.2362C11.5644 23.0409 10.5412 22.7223 8.93217 21.9783L8.75638 21.8934C8.3504 21.7098 7.9614 21.6346 7.6099 21.6873C7.19075 21.7503 6.86445 21.9924 6.69193 22.3436C6.36263 23.0145 6.65864 23.8734 7.31791 24.4383L7.35697 24.4715L7.40287 24.4969C8.49206 25.0942 9.4118 25.501 10.4312 25.7664C11.3381 26.0025 12.3062 26.1214 13.5191 26.1766C13.6394 27.8901 13.6946 29.0409 13.7369 30.7606C10.9209 30.4276 9.23018 30.0708 6.40189 29.2098L6.20853 29.158C5.76223 29.0545 5.35007 29.0786 5.00248 29.2313C4.60077 29.4079 4.3306 29.7385 4.22416 30.1238C4.00925 30.9033 4.46948 31.7635 5.41947 32.1199L5.44486 32.1297L5.47123 32.1365C8.62776 32.9401 10.5247 33.2741 13.7632 33.6092C13.8149 35.4346 13.8138 36.6328 13.7642 38.4813C10.482 38.4501 8.51354 38.1408 5.08353 37.0662L5.07279 37.0633L5.06302 37.0604C4.45633 36.8984 3.93687 36.8871 3.51908 37.0262C3.08612 37.1706 2.78812 37.4706 2.66068 37.8465C2.42129 38.5533 2.82459 39.3846 3.57767 39.6512H3.57865C7.19477 40.921 9.49043 41.3115 13.6109 41.4334C13.5747 43.561 13.473 44.9387 13.2154 47.1014C9.46169 46.9171 7.24848 46.5699 3.4224 45.5076L3.21927 45.4529C2.75133 45.3398 2.33045 45.3247 1.97416 45.4051C1.5645 45.4976 1.21352 45.7276 1.03959 46.0946C0.865026 46.4635 0.917347 46.8712 1.1099 47.2156C1.30076 47.5568 1.63247 47.8508 2.06498 48.0701L2.10209 48.0887L2.14213 48.1014C5.77768 49.2329 8.21585 49.722 12.8843 50.0496C12.6496 51.6464 12.4661 52.6961 12.1402 54.2029L5.72709 53.3475L5.71537 53.3455C3.59713 53.1146 2.10586 53.2668 1.17338 54.1317C0.246752 54.9915 0.0293064 56.4156 0.0063839 58.2225C-0.0353127 61.4172 0.13625 63.8195 0.676306 66.0047C1.21769 68.1951 2.12279 70.1405 3.51517 72.4315L3.52006 72.4393L3.52592 72.4471C5.30366 75.1379 6.94878 76.7908 9.02299 77.076C11.0771 77.3583 13.361 76.269 16.3316 74.0799L16.3579 74.0604L16.3814 74.0389C20.4322 70.1545 22.4536 67.7215 24.6265 62.3436L24.6294 62.3358L24.6324 62.327C24.9628 61.416 25.2113 60.6034 25.3345 59.8865C25.4574 59.171 25.4628 58.5124 25.2701 57.9285C24.8908 56.7803 23.8377 56.1444 22.2124 55.7781L21.8794 55.7088L21.8667 55.7059L21.855 55.7049L15.0425 54.7322C15.3802 53.0435 15.5685 51.8985 15.7603 50.1287C19.3223 49.931 21.419 49.6557 24.938 48.8309L24.9517 48.8279L24.9644 48.824C25.8119 48.5744 26.3884 47.8341 26.2984 47.0799Z" fill="#6E9858"/>
</svg>
