<svg width="64" height="138" viewBox="0 0 64 138" fill="none" xmlns="http://www.w3.org/2000/svg">
<path d="M0.700806 85.701C0.215182 85.2366 -0.0822725 84.6298 0.0201415 84.0057C0.125513 83.3639 0.622189 82.8838 1.33948 82.6229C2.05187 82.3638 3.03596 82.293 4.29163 82.4666L4.29944 82.4676L4.30725 82.4695C12.272 83.8361 16.8835 84.3068 24.9489 84.4461C24.3063 80.1689 24.0504 77.5373 23.9088 73.241C17.0357 73.0454 13.1995 72.79 6.92249 71.9607L6.89905 71.9568C5.65643 71.7321 4.70105 71.3541 4.04163 70.8914C3.39344 70.4366 2.96345 69.8456 2.95667 69.1951C2.94974 68.5143 3.40407 67.9839 4.05432 67.6746C4.70117 67.367 5.60179 67.2374 6.70471 67.3299L6.72327 67.3309L6.7428 67.3338C13.231 68.3784 17.0075 68.6537 23.5465 68.8377C23.4111 65.3624 23.4386 63.1755 23.694 59.6307C17.4771 59.45 13.9235 59.1606 8.03967 58.1131L8.02014 58.1102L8.00256 58.1053C7.04194 57.8577 6.31731 57.4515 5.85315 56.951C5.38621 56.4474 5.17209 55.8288 5.31213 55.2254C5.45177 54.6243 5.91525 54.1573 6.55627 53.8943C7.19542 53.6322 8.03284 53.5583 9.02307 53.7254L9.02893 53.7264C14.678 54.7495 17.9438 55.0326 23.5865 55.118C23.7175 51.8179 23.915 49.667 24.4655 46.0184C20.6128 45.8963 18.366 45.6401 14.691 44.8533L14.6666 44.8475L14.6432 44.8397C13.2588 44.3963 12.3174 43.327 12.4723 42.2049C12.5512 41.6338 12.9144 41.1507 13.4938 40.8426C14.0621 40.5404 14.8372 40.4028 15.8024 40.4627L15.8365 40.4647L15.8707 40.4715C19.4194 41.1861 21.4767 41.4504 24.903 41.7147C25.1901 37.3179 25.5995 34.6854 26.692 30.4754L20.7516 29.7254L20.6735 29.7156L20.6031 29.6834C19.41 29.1275 18.2188 28.0769 17.066 26.6385C15.9095 25.1953 14.7696 23.3338 13.6852 21.117C11.5161 16.6829 9.55157 10.7875 8.12561 3.87286L8.12268 3.86115L8.12073 3.84943C7.97857 2.94884 7.9297 2.19768 8.02014 1.60724C8.11238 1.00519 8.36424 0.496307 8.88147 0.216614C9.36517 -0.0448914 9.9717 -0.0419006 10.6217 0.079895C11.2847 0.204193 12.0864 0.470367 13.028 0.84259L13.0494 0.851379L13.0699 0.862122L33.234 11.1023L56.3131 5.28107L56.3258 5.27814L56.9352 5.14532C58.3165 4.85429 59.4095 4.69853 60.2594 4.67657C61.2103 4.65202 61.964 4.79092 62.4596 5.20978C62.9905 5.65852 63.0954 6.30855 63.0319 6.96271C62.9692 7.60709 62.734 8.3701 62.443 9.19904C60.7405 15.407 56.4869 20.9519 51.901 24.9744C49.6028 26.9903 47.2087 28.635 44.9899 29.7957C42.781 30.9512 40.7067 31.6475 39.0543 31.7234L39.0221 31.7254L38.9908 31.7225L32.274 31.1727C31.4276 35.2109 31.015 37.6737 30.4967 41.7117C35.4358 41.359 38.1115 40.7775 42.4498 39.3143V39.3152C43.5074 38.9157 44.4222 38.7801 45.1647 38.8611C45.9101 38.9426 46.5177 39.2494 46.8639 39.7625C47.2156 40.2841 47.2345 40.926 46.9811 41.5272C46.7306 42.121 46.2167 42.6839 45.4772 43.1453L45.4391 43.1697L45.3971 43.1854C40.1879 45.2652 36.756 45.9624 30.0524 46.1424C29.7161 49.5777 29.5747 51.7237 29.4645 55.2C36.9645 54.5774 41.2264 53.9396 48.5192 52.3231L48.9371 52.241C49.8946 52.079 50.7147 52.1271 51.3698 52.3367C52.1171 52.576 52.6768 53.0388 52.9098 53.6541C53.1466 54.28 53.0064 54.9611 52.5582 55.5291C52.1162 56.0891 51.3804 56.5417 50.3864 56.8133L50.3658 56.8182L50.3453 56.8221C42.4161 58.2916 37.7503 58.8801 29.4283 59.4939C29.282 63.0938 29.2863 65.3086 29.4274 68.9686C37.4846 68.9419 42.3493 68.4694 50.1383 66.7664L51.7701 66.4022L51.7858 66.3982C53.1832 66.1266 54.2771 66.1288 55.0934 66.327C55.9086 66.5249 56.4959 66.9349 56.7633 67.5096C57.0339 68.0913 56.9208 68.7238 56.5748 69.2283C56.2307 69.7298 55.6533 70.1208 54.9332 70.3064H54.9323C45.9203 72.6104 40.3058 73.2804 29.7828 73.4803C29.8668 77.6551 30.1271 80.1949 30.8326 84.4422C40.5709 84.1159 46.1174 83.5005 55.8434 81.534L56.3063 81.4441C57.3638 81.2581 58.26 81.2425 58.9762 81.3602C59.7772 81.4918 60.4355 81.8061 60.7731 82.325C61.144 82.8952 61.0315 83.5506 60.6158 84.0916C60.2143 84.6142 59.5122 85.074 58.5602 85.4256L58.5299 85.4363L58.4977 85.4441C49.4253 87.5 43.4259 88.3617 31.5026 88.9461C32.1494 92.182 32.6153 94.1491 33.5358 97.2068L50.0436 95.6043L50.0524 95.6033C52.6711 95.3955 54.7951 95.3736 56.5094 95.5672C58.2229 95.7607 59.5609 96.173 60.5797 96.8611C62.6563 98.2637 63.2218 100.672 63.2789 103.953C63.3815 109.672 62.9599 113.956 61.6403 117.844C60.3196 121.734 58.1128 125.189 54.7047 129.271L54.691 129.287C50.2975 134.129 46.4062 136.878 41.6989 137.349C37.0187 137.818 31.6454 136.021 24.319 132.09L24.2926 132.076L24.2692 132.059C14.3487 125.133 9.42704 120.824 4.11096 111.244L4.1012 111.224C3.29106 109.598 2.68748 108.159 2.38928 106.895C2.09082 105.63 2.08599 104.49 2.53577 103.498C2.98817 102.5 3.8618 101.739 5.14124 101.153C6.25578 100.643 7.70742 100.252 9.52991 99.9529L10.3336 99.8299L10.3434 99.8289L10.3522 99.8279L27.819 98.0125C26.895 94.6793 26.4176 92.568 25.9098 89.077C16.7964 88.7222 11.6501 88.2439 2.83752 86.74L2.82776 86.7381L2.81702 86.7361C1.9178 86.5433 1.19243 86.171 0.700806 85.701ZM20.4879 113.347C20.4879 115.874 23.3282 117.923 26.8317 117.923C30.3351 117.923 33.1754 115.874 33.1754 113.347C33.1754 110.821 30.3351 108.772 26.8317 108.772C23.3282 108.772 20.4879 110.821 20.4879 113.347Z" fill="black"/>
</svg>
