<svg width="27" height="78" viewBox="0 0 27 78" fill="none" xmlns="http://www.w3.org/2000/svg">
<path d="M0.00923406 47.08C0.0565385 46.6841 0.291043 46.3355 0.686968 46.1376C1.06555 45.9485 1.55058 45.9149 2.10591 46.0204L2.1274 46.0243C5.23103 46.7557 7.06217 47.0214 10.1118 47.1083C9.87701 44.9275 9.77479 43.4962 9.71822 41.2967C7.08525 41.1882 5.53016 41.0394 3.04634 40.5887L3.03072 40.5858L3.01509 40.5819C1.94357 40.3156 1.2078 39.6353 1.20162 38.8309C1.19856 38.4187 1.40177 38.0472 1.75826 37.8143C2.10317 37.5892 2.55668 37.5121 3.06099 37.5702L3.08638 37.5731L3.11177 37.579C5.61682 38.1329 7.11112 38.294 9.56099 38.3964C9.51528 36.6579 9.52705 35.4789 9.61666 33.701C7.25022 33.5983 5.8042 33.4256 3.47994 32.8573L3.45552 32.8514L3.43209 32.8436C2.52754 32.5234 2.03403 31.7602 2.15962 31.0155C2.22198 30.6465 2.43983 30.3137 2.79244 30.1151C3.14148 29.9185 3.57499 29.8782 4.04146 29.9862L4.04927 29.9882C6.21639 30.5272 7.5009 30.6931 9.59127 30.7479C9.64264 29.0925 9.72129 27.9313 9.91841 26.1044C8.50532 26.0291 7.59015 25.8736 6.16646 25.455L6.13619 25.4452L6.10689 25.4325C5.40473 25.1237 5.00121 24.42 5.06783 23.7577C5.1024 23.4154 5.26588 23.0815 5.57955 22.8524C5.88898 22.6265 6.29247 22.5393 6.74654 22.578L6.79341 22.5819L6.83736 22.5946C8.14406 22.956 8.94057 23.1048 10.1294 23.2401C10.2425 20.9957 10.4077 19.5606 10.811 17.3954L8.66744 17.0233L8.56783 17.0057L8.48287 16.952C7.93778 16.6032 7.42857 15.971 6.9565 15.162C6.47804 14.3419 6.01036 13.2912 5.56783 12.0487C4.68232 9.56236 3.88228 6.26351 3.3022 2.40027L3.30025 2.38269C3.24218 1.87744 3.22098 1.4474 3.25923 1.10437C3.29587 0.776306 3.39911 0.411537 3.70357 0.185425C4.01899 -0.0487137 4.39607 -0.0226059 4.69966 0.055542C5.01118 0.135788 5.36617 0.301346 5.75337 0.511597L5.77779 0.525269L5.80123 0.540894L13.851 6.15613L23.06 2.9657L23.0678 2.96277L23.0766 2.96082C23.7648 2.74802 24.3235 2.6259 24.7651 2.61023C25.2011 2.59479 25.6318 2.68061 25.9194 3.01453C26.1942 3.33366 26.2261 3.75381 26.2006 4.11414C26.1746 4.48152 26.077 4.91171 25.9604 5.36902C25.2645 8.86363 23.5204 11.9908 21.6323 14.2655C20.6875 15.4037 19.6981 16.3393 18.7719 17.0048C17.8612 17.6591 16.9551 18.0938 16.185 18.1425L16.1411 18.1454L16.0971 18.1405L13.6694 17.868C13.3632 19.8925 13.2007 21.2195 13.0092 23.2362C14.7432 23.0409 15.7664 22.7224 17.3754 21.9784L17.5512 21.8934C17.9573 21.7098 18.3462 21.6346 18.6977 21.6874C19.117 21.7504 19.4432 21.9923 19.6157 22.3436C19.9449 23.0146 19.649 23.8735 18.9897 24.4384L18.9506 24.4716L18.9047 24.4969C17.8156 25.0942 16.8958 25.501 15.8764 25.7665C14.9695 26.0026 14.0014 26.1214 12.7885 26.1766C12.6683 27.8902 12.613 29.0408 12.5708 30.7606C15.3867 30.4276 17.0774 30.0709 19.9057 29.2098L20.0991 29.1581C20.5455 29.0546 20.9575 29.0785 21.3051 29.2313C21.7069 29.408 21.9771 29.7384 22.0835 30.1239C22.2983 30.9033 21.8381 31.7636 20.8881 32.12L20.8627 32.1298L20.8364 32.1366C17.6798 32.9401 15.783 33.2741 12.5444 33.6092C12.4927 35.4347 12.4938 36.6327 12.5434 38.4813C15.8257 38.4502 17.7941 38.1409 21.2241 37.0663L21.2348 37.0634L21.2446 37.0604C21.8514 36.8984 22.3707 36.887 22.7885 37.0262C23.2216 37.1706 23.5195 37.4706 23.6469 37.8466C23.8863 38.5533 23.483 39.3847 22.7299 39.6512H22.729C19.1128 40.921 16.8172 41.3115 12.6967 41.4335C12.7329 43.5611 12.8346 44.9386 13.0922 47.1014C16.8459 46.9172 19.0591 46.57 22.8852 45.5077L23.0883 45.453C23.5564 45.3398 23.9771 45.3247 24.3335 45.4051C24.7432 45.4976 25.0941 45.7275 25.268 46.0946C25.4426 46.4636 25.3903 46.8712 25.1977 47.2157C25.0068 47.5568 24.6751 47.8508 24.2426 48.0702L24.2055 48.0887L24.1655 48.1014C20.5299 49.2329 18.0918 49.7221 13.4233 50.0497C13.658 51.6465 13.8415 52.696 14.1674 54.203L20.5805 53.3475L20.5922 53.3456C22.7106 53.1147 24.2018 53.2667 25.1342 54.1317C26.0609 54.9916 26.2783 56.4155 26.3012 58.2225C26.3429 61.4173 26.1714 63.8195 25.6313 66.0048C25.0899 68.1951 24.1848 70.1405 22.7924 72.4315L22.7876 72.4393L22.7817 72.4471C21.004 75.1379 19.3588 76.7908 17.2846 77.076C15.2305 77.3584 12.9466 76.2691 9.97603 74.08L9.94966 74.0604L9.92623 74.0389C5.87528 70.1544 3.854 67.7216 1.68111 62.3436L1.67818 62.3358L1.67525 62.327C1.34476 61.416 1.09631 60.6035 0.973101 59.8866C0.850155 59.171 0.844784 58.5125 1.03755 57.9286C1.41677 56.7802 2.46977 56.1444 4.09517 55.7782L4.42818 55.7089L4.44087 55.7059L4.45259 55.705L11.2651 54.7323C10.9273 53.0435 10.7391 51.8986 10.5473 50.1288C6.98521 49.9311 4.88869 49.6557 1.36959 48.8309L1.35591 48.828L1.34322 48.8241C0.495675 48.5745 -0.0807266 47.8342 0.00923406 47.08Z" fill="#D7D767"/>
</svg>
