<svg width="27" height="78" viewBox="0 0 27 78" fill="none" xmlns="http://www.w3.org/2000/svg">
<path d="M0.00920754 47.0799C0.0564982 46.6841 0.291225 46.3355 0.686942 46.1375C1.06546 45.9484 1.55068 45.9149 2.10589 46.0203L2.12737 46.0242C5.2309 46.7556 7.06235 47.0213 10.1117 47.1082C9.87699 44.9275 9.77477 43.496 9.71819 41.2967C7.08543 41.1882 5.53004 41.0394 3.04632 40.5887L3.03069 40.5857L3.01507 40.5818C1.94376 40.3155 1.20787 39.635 1.20159 38.8309C1.19854 38.4188 1.40194 38.0472 1.75823 37.8143C2.10307 37.5892 2.55678 37.5121 3.06097 37.5701L3.08636 37.573L3.11175 37.5789C5.61669 38.1328 7.11129 38.2939 9.56097 38.3963C9.51526 36.6579 9.52703 35.4787 9.61663 33.701C7.25039 33.5982 5.80407 33.4256 3.47991 32.8572L3.4555 32.8514L3.43206 32.8436C2.52775 32.5234 2.03414 31.7599 2.1596 31.0154C2.22193 30.6466 2.44 30.3137 2.79241 30.115C3.14139 29.9185 3.57507 29.8782 4.04143 29.9861L4.04925 29.9881C6.21625 30.5271 7.50107 30.693 9.59124 30.7478C9.64262 29.0925 9.72128 27.9311 9.91839 26.1043C8.50547 26.0291 7.59002 25.8735 6.16643 25.4549L6.13616 25.4451L6.10686 25.4324C5.4049 25.1236 5.00128 24.4198 5.0678 23.7576C5.10237 23.4154 5.26605 23.0814 5.57952 22.8523C5.88888 22.6264 6.29258 22.5393 6.74651 22.5779L6.79339 22.5818L6.83733 22.5945C8.14393 22.9559 8.94071 23.1048 10.1293 23.24C10.2425 20.9957 10.4077 19.5604 10.811 17.3953L8.66741 17.0232L8.5678 17.0057L8.48284 16.952C7.9378 16.6031 7.42851 15.9709 6.95647 15.1619C6.47802 14.3419 6.01033 13.2911 5.5678 12.0486C4.6823 9.5623 3.88225 6.2634 3.30218 2.40019L3.30022 2.38261C3.24216 1.87746 3.22098 1.4473 3.25921 1.10429C3.29583 0.776344 3.39931 0.411476 3.70354 0.185349C4.01887 -0.0487213 4.39609 -0.0226212 4.69964 0.0554657C5.01111 0.135696 5.3662 0.301308 5.75335 0.51152L5.77776 0.525192L5.8012 0.540817L13.851 6.15605L23.06 2.96562L23.0678 2.96269L23.0766 2.96074C23.7646 2.748 24.3235 2.62588 24.7651 2.61015C25.201 2.59471 25.6317 2.68056 25.9194 3.01445C26.1942 3.33359 26.2261 3.75371 26.2006 4.11406C26.1746 4.48141 26.0769 4.91171 25.9604 5.36894C25.2645 8.86346 23.5203 11.9907 21.6323 14.2654C20.6876 15.4035 19.698 16.3393 18.7719 17.0047C17.8613 17.6589 16.955 18.0938 16.185 18.1424L16.141 18.1453L16.0971 18.1404L13.6694 17.868C13.3632 19.8923 13.2007 21.2195 13.0092 23.2361C14.743 23.0409 15.7666 22.7222 17.3754 21.9783L17.5512 21.8934C17.9571 21.7098 18.3462 21.6347 18.6977 21.6873C19.1169 21.7503 19.4432 21.9922 19.6157 22.3436C19.9449 23.0145 19.649 23.8734 18.9897 24.4383L18.9506 24.4715L18.9047 24.4969C17.8157 25.0941 16.8957 25.501 15.8764 25.7664C14.9696 26.0025 14.0012 26.1214 12.7885 26.1766C12.6682 27.89 12.613 29.0408 12.5707 30.7605C15.3866 30.4276 17.0776 30.0707 19.9057 29.2098L20.0991 29.158C20.5454 29.0545 20.9575 29.0785 21.3051 29.2312C21.7069 29.4079 21.977 29.7383 22.0834 30.1238C22.2982 30.9032 21.838 31.7635 20.8881 32.1199L20.8627 32.1297L20.8364 32.1365C17.68 32.94 15.7828 33.2741 12.5444 33.6092C12.4926 35.4345 12.4938 36.6327 12.5434 38.4812C15.8255 38.4501 17.7943 38.1407 21.2241 37.0662L21.2348 37.0633L21.2446 37.0603C21.8512 36.8984 22.3707 36.8871 22.7885 37.0262C23.2216 37.1706 23.5195 37.4705 23.6469 37.8465C23.8862 38.5532 23.4829 39.3846 22.7299 39.6512H22.7289C19.113 40.9208 16.817 41.3114 12.6967 41.4334C12.7329 43.5609 12.8346 44.9386 13.0922 47.1014C16.8458 46.9171 19.0593 46.5698 22.8852 45.5076L23.0883 45.4529C23.5562 45.3398 23.9772 45.3247 24.3334 45.4051C24.7432 45.4976 25.0941 45.7274 25.268 46.0945C25.4425 46.4636 25.3903 46.8711 25.1977 47.2156C25.0068 47.5566 24.675 47.8508 24.2426 48.0701L24.2055 48.0887L24.1655 48.1014C20.5301 49.2328 18.0916 49.722 13.4233 50.0496C13.658 51.6463 13.8414 52.696 14.1674 54.2029L20.5805 53.3475L20.5922 53.3455C22.7106 53.1146 24.2017 53.2667 25.1342 54.1316C26.0609 54.9915 26.2783 56.4154 26.3012 58.2225C26.3429 61.4171 26.1714 63.8195 25.6313 66.0047C25.0899 68.195 24.1848 70.1405 22.7924 72.4314L22.7875 72.4393L22.7817 72.4471C21.004 75.1377 19.3587 76.7907 17.2846 77.076C15.2305 77.3581 12.9464 76.2689 9.976 74.0799L9.94964 74.0603L9.9262 74.0389C5.8753 70.1544 3.85396 67.7215 1.68108 62.3436L1.67815 62.3357L1.67522 62.3269C1.34475 61.4159 1.09628 60.6034 0.973075 59.8865C0.850145 59.171 0.84484 58.5124 1.03753 57.9285C1.41672 56.7802 2.46995 56.1444 4.09515 55.7781L4.42815 55.7088L4.44085 55.7059L4.45257 55.7049L11.2651 54.7322C10.9273 53.0434 10.7391 51.8984 10.5473 50.1287C6.98538 49.931 4.88857 49.6556 1.36956 48.8309L1.35589 48.8279L1.34319 48.824C0.495862 48.5744 -0.0806209 47.8339 0.00920754 47.0799ZM8.62054 63.4656C8.62065 64.8755 9.77451 66.0183 11.1977 66.0184C12.6209 66.0184 13.7747 64.8755 13.7748 63.4656C13.7748 62.0557 12.621 60.9129 11.1977 60.9129C9.77444 60.9129 8.62054 62.0557 8.62054 63.4656Z" fill="#DF9F9F"/>
</svg>
