<svg width="38" height="88" viewBox="0 0 38 88" fill="none" xmlns="http://www.w3.org/2000/svg">
<path d="M0.0136144 53.3895C0.0859761 52.9132 0.42996 52.5582 0.908146 52.3699C1.37538 52.1861 1.99676 52.1442 2.75483 52.2576L2.76264 52.2586L2.77143 52.2606C7.34616 53.1096 10.0222 53.4092 14.5869 53.5028C14.2388 50.9668 14.0927 49.3266 14.0107 46.7694C10.0992 46.6459 7.85715 46.4802 4.22943 45.9617L4.21674 45.9598L4.20404 45.9569C3.45238 45.8098 2.85906 45.5598 2.44037 45.242C2.02875 44.9296 1.73613 44.5084 1.73139 44.0301C1.72664 43.5258 2.04103 43.1312 2.47846 42.9061C2.90681 42.6857 3.48209 42.6028 4.15522 42.6639L4.17572 42.6658L4.19525 42.6698C7.90899 43.3165 10.0977 43.4957 13.7851 43.6121C13.7156 41.5767 13.7328 40.2214 13.8671 38.1434C10.3462 38.028 8.26684 37.839 4.87299 37.1854L4.85248 37.1815L4.83295 37.1766C3.68522 36.8566 2.92061 36.0511 3.11518 35.1434C3.31288 34.2227 4.35281 33.8313 5.53315 34.0467L5.53998 34.0477C8.7657 34.6796 10.654 34.8637 13.8232 34.9217C13.8979 32.9851 14.0113 31.6513 14.3046 29.5184C12.1699 29.4372 10.8566 29.2665 8.76068 28.7811L8.73529 28.7752L8.7099 28.7664C7.82825 28.461 7.20373 27.7129 7.30658 26.9061C7.35949 26.4921 7.60539 26.1355 7.99897 25.909C8.38102 25.6893 8.88376 25.5996 9.47846 25.6395L9.51557 25.6424L9.5517 25.6502C11.5447 26.0844 12.7272 26.2548 14.5996 26.4158C14.7638 23.7992 15.0014 22.1544 15.5956 19.6463L12.331 19.2L12.248 19.1883L12.1738 19.1512C11.433 18.7779 10.7131 18.0837 10.0302 17.1619C9.34282 16.234 8.66872 15.0426 8.03022 13.6307C6.75288 10.806 5.59866 7.05717 4.76166 2.66682L4.75775 2.64534C4.67388 2.07064 4.64305 1.57638 4.69916 1.17952C4.75597 0.778404 4.91685 0.388542 5.29584 0.166824C5.65026 -0.0404358 6.07459 -0.025383 6.47358 0.0554962C6.88501 0.138916 7.37163 0.314224 7.9267 0.55159L7.94916 0.561356L7.97065 0.573074L19.7031 7.01839L33.1328 3.35432L33.1464 3.35042C34.1316 3.11048 34.9048 2.9803 35.498 2.9637C36.0732 2.94763 36.5897 3.03486 36.9423 3.35725C37.3168 3.70009 37.3735 4.17951 37.3349 4.60921C37.2967 5.03372 37.155 5.52795 36.9863 6.04866C35.9796 10.0217 33.4658 13.5649 30.7597 16.1326C29.4033 17.4196 27.9875 18.4725 26.6708 19.2176C25.3652 19.9564 24.1141 20.4169 23.0947 20.4676L23.0605 20.4696L23.0253 20.4666L19.2831 20.1346C18.8243 22.516 18.5898 24.0405 18.3056 26.409C21.0108 26.1858 22.5396 25.8202 24.9755 24.9324L25.2158 24.8406C25.7664 24.6446 26.2631 24.5754 26.6894 24.6258C27.1807 24.6839 27.6001 24.9073 27.8398 25.2918C28.3361 26.0889 27.8529 27.0722 26.9706 27.6678L26.9316 27.6942L26.8886 27.7127C23.8566 29.0222 21.8335 29.475 18.0029 29.5985C17.8229 31.609 17.7426 32.9316 17.6806 34.9549C21.9184 34.5679 24.3912 34.1632 28.5751 33.16V33.161C29.9282 32.8339 31.0744 33.2051 31.3974 34.1278C31.5553 34.5792 31.461 35.0658 31.1679 35.4676C30.8784 35.8644 30.404 36.1736 29.7861 36.3563L29.7646 36.3631L29.7421 36.367C25.1469 37.2883 22.4158 37.6642 17.6474 38.0487C17.5701 40.1733 17.5719 41.5448 17.6464 43.701C22.2289 43.6763 25.0452 43.372 29.5253 42.3123L30.4775 42.0819L30.4853 42.0799L30.4941 42.078C31.3332 41.9015 32.0123 41.8975 32.5361 42.035C33.0642 42.1737 33.4675 42.469 33.6513 42.8963C34.0294 43.776 33.3445 44.6565 32.4462 44.9071L32.4453 44.908C27.204 46.3576 23.9108 46.7904 17.8632 46.9227C17.9147 49.3987 18.0635 50.9743 18.4472 53.4979C24.0215 53.2899 27.2478 52.8985 32.8662 51.6698L33.1455 51.6112C33.7854 51.4893 34.3395 51.4769 34.7929 51.5574C35.2983 51.6473 35.7509 51.8689 35.9882 52.2635C36.2471 52.6942 36.1628 53.1783 35.8886 53.5643C35.6246 53.9357 35.1754 54.2479 34.5937 54.4803L34.5615 54.493L34.5273 54.5008C29.2565 55.7928 25.7471 56.3438 18.9023 56.7147C19.2514 58.5891 19.5172 59.7969 20.0087 61.577L29.497 60.5809L29.5058 60.5799C31.0469 60.4476 32.3092 60.432 33.3359 60.5574C34.3629 60.6829 35.1871 60.9531 35.8232 61.4178C37.1207 62.3659 37.447 63.9749 37.4804 66.0506C37.5406 69.6815 37.294 72.4152 36.5136 74.9022C35.7319 77.393 34.4258 79.6011 32.4218 82.1981L32.416 82.2059L32.4091 82.2137C29.8295 85.2889 27.5043 87.0879 24.6572 87.3963C21.8369 87.7018 18.6335 86.5277 14.3388 84.035L14.3134 84.0203L14.289 84.0018C8.46384 79.6024 5.55664 76.8501 2.42572 70.7469L2.42084 70.7381L2.41693 70.7283C1.9407 69.6944 1.58174 68.769 1.40326 67.951C1.22477 67.1326 1.21662 66.3733 1.49799 65.702C1.78357 65.021 2.33443 64.5072 3.11811 64.119C3.79658 63.7829 4.67008 63.5304 5.74994 63.3387L6.22553 63.2596L6.24506 63.2576L16.2499 62.1326C15.7521 60.1749 15.4807 58.8622 15.1992 56.8016C9.96024 56.5771 6.94449 56.2697 1.82709 55.325L1.81635 55.3231L1.80561 55.3201C1.24314 55.1897 0.7789 54.9361 0.459903 54.6063C0.145444 54.281 -0.0555022 53.8458 0.0136144 53.3895ZM12.208 72.0057C12.2081 73.6067 13.8719 74.9049 15.9238 74.9051C17.9759 74.9051 19.6394 73.6068 19.6396 72.0057C19.6396 70.4045 17.976 69.1063 15.9238 69.1063C13.8718 69.1064 12.208 70.4046 12.208 72.0057Z" fill="#958EC4"/>
</svg>
