<svg width="27" height="78" viewBox="0 0 27 78" fill="none" xmlns="http://www.w3.org/2000/svg">
<path d="M0.00923105 47.0799C0.0565369 46.684 0.291017 46.3355 0.686965 46.1375C1.06553 45.9484 1.55063 45.9149 2.10591 46.0203L2.1274 46.0242C5.23091 46.7556 7.06224 47.0213 10.1118 47.1082C9.87701 44.9274 9.77479 43.4961 9.71821 41.2967C7.08532 41.1882 5.53004 41.0394 3.04634 40.5887L3.03072 40.5858L3.01509 40.5818C1.94359 40.3156 1.20783 39.6352 1.20161 38.8309C1.19856 38.4187 1.40174 38.0472 1.75825 37.8143C2.10316 37.5892 2.55672 37.5121 3.06099 37.5701L3.08638 37.5731L3.11177 37.5789C5.61669 38.1328 7.11118 38.2939 9.56099 38.3963C9.51528 36.6579 9.52705 35.4788 9.61665 33.701C7.25028 33.5982 5.80407 33.4255 3.47993 32.8572L3.45552 32.8514L3.43208 32.8436C2.52755 32.5234 2.03404 31.7601 2.15962 31.0154C2.22198 30.6465 2.43981 30.3137 2.79243 30.1151C3.14146 29.9185 3.57503 29.8781 4.04146 29.9861L4.04927 29.9881C6.21626 30.5271 7.50096 30.6931 9.59126 30.7479C9.64264 29.0924 9.72129 27.9312 9.91841 26.1043C8.50538 26.0291 7.59003 25.8735 6.16646 25.4549L6.13618 25.4451L6.10689 25.4324C5.40474 25.1237 5.00122 24.4199 5.06782 23.7576C5.1024 23.4153 5.26585 23.0814 5.57954 22.8524C5.88897 22.6264 6.2925 22.5393 6.74654 22.5779L6.79341 22.5818L6.83736 22.5945C8.14393 22.9559 8.94063 23.1048 10.1293 23.2401C10.2425 20.9956 10.4077 19.5605 10.811 17.3953L8.66743 17.0233L8.56782 17.0057L8.48286 16.952C7.93781 16.6032 7.42855 15.9709 6.9565 15.1619C6.47805 14.3419 6.01034 13.2911 5.56782 12.0486C4.68232 9.56231 3.88228 6.26342 3.3022 2.40021L3.30025 2.38263C3.24217 1.8774 3.22098 1.44733 3.25923 1.10431C3.29587 0.77623 3.39907 0.411476 3.70357 0.185364C4.01898 -0.0487213 4.39608 -0.0226593 4.69966 0.055481C5.01112 0.13575 5.36625 0.301331 5.75337 0.511536L5.77779 0.525208L5.80122 0.540833L13.851 6.15607L23.06 2.96564L23.0678 2.96271L23.0766 2.96075C23.7648 2.74799 24.3235 2.62584 24.7651 2.61017C25.201 2.59476 25.6318 2.6806 25.9194 3.01447C26.194 3.33358 26.2261 3.75379 26.2006 4.11407C26.1746 4.48145 26.077 4.91166 25.9604 5.36896C25.2645 8.86356 23.5204 11.9907 21.6323 14.2654C20.6875 15.4036 19.6981 16.3392 18.7719 17.0047C17.8612 17.659 16.9551 18.0937 16.185 18.1424L16.1411 18.1453L16.0971 18.1404L13.6694 17.868C13.3632 19.8924 13.2007 21.2195 13.0092 23.2361C14.7431 23.0409 15.7665 22.7223 17.3754 21.9783L17.5512 21.8934C17.9572 21.7098 18.3462 21.6346 18.6977 21.6873C19.1169 21.7504 19.4432 21.9923 19.6157 22.3436C19.9448 23.0145 19.6489 23.8735 18.9897 24.4383L18.9506 24.4715L18.9047 24.4969C17.8156 25.0942 16.8957 25.501 15.8764 25.7664C14.9695 26.0025 14.0013 26.1214 12.7885 26.1766C12.6682 27.8901 12.613 29.0408 12.5708 30.7606C15.3866 30.4276 17.0775 30.0708 19.9057 29.2098L20.0991 29.158C20.5454 29.0546 20.9575 29.0785 21.3051 29.2313C21.7068 29.408 21.9771 29.7384 22.0835 30.1238C22.2982 30.9032 21.838 31.7635 20.8881 32.1199L20.8627 32.1297L20.8364 32.1365C17.6799 32.94 15.7828 33.2741 12.5444 33.6092C12.4927 35.4346 12.4938 36.6326 12.5434 38.4813C15.8255 38.4501 17.7941 38.1408 21.2241 37.0662L21.2348 37.0633L21.2446 37.0604C21.8513 36.8984 22.3707 36.887 22.7885 37.0262C23.2215 37.1706 23.5196 37.4706 23.6469 37.8465C23.8862 38.5532 23.4829 39.3846 22.7299 39.6512H22.729C19.1129 40.9209 16.8171 41.3115 12.6967 41.4334C12.7329 43.561 12.8346 44.9386 13.0922 47.1014C16.8458 46.9171 19.0592 46.5699 22.8852 45.5076L23.0883 45.4529C23.5563 45.3398 23.9772 45.3247 24.3335 45.4051C24.7431 45.4976 25.0942 45.7275 25.268 46.0945C25.4425 46.4635 25.3903 46.8712 25.1977 47.2156C25.0069 47.5567 24.6751 47.8508 24.2426 48.0701L24.2055 48.0887L24.1655 48.1014C20.53 49.2329 18.0917 49.722 13.4233 50.0496C13.658 51.6464 13.8415 52.696 14.1674 54.2029L20.5805 53.3475L20.5922 53.3455C22.7105 53.1146 24.2018 53.2667 25.1342 54.1317C26.0608 54.9916 26.2783 56.4155 26.3012 58.2225C26.3429 61.4172 26.1714 63.8195 25.6313 66.0047C25.0899 68.1951 24.1848 70.1404 22.7924 72.4315L22.7876 72.4393L22.7817 72.4471C21.004 75.1378 19.3587 76.7907 17.2846 77.076C15.2305 77.3583 12.9465 76.269 9.97603 74.0799L9.94966 74.0604L9.92622 74.0389C5.87531 70.1544 3.85398 67.7215 1.68111 62.3436L1.67818 62.3358L1.67525 62.327C1.34477 61.416 1.09631 60.6034 0.973098 59.8865C0.85015 59.1709 0.844775 58.5124 1.03755 57.9285C1.41677 56.7801 2.46975 56.1444 4.09517 55.7781L4.42818 55.7088L4.44087 55.7059L4.45259 55.7049L11.2651 54.7322C10.9273 53.0434 10.7391 51.8985 10.5473 50.1287C6.98528 49.931 4.88857 49.6556 1.36958 48.8309L1.35591 48.8279L1.34322 48.824C0.495681 48.5745 -0.0807135 47.8341 0.00923105 47.0799ZM8.62056 63.4656C8.62061 64.8754 9.77371 66.0181 11.1967 66.0184C12.62 66.0184 13.7738 64.8756 13.7739 63.4656C13.7739 62.0557 12.62 60.9129 11.1967 60.9129C9.77368 60.9132 8.62056 62.0558 8.62056 63.4656Z" fill="#FEBE7D"/>
</svg>
