<svg width="27" height="78" viewBox="0 0 27 78" fill="none" xmlns="http://www.w3.org/2000/svg">
<path d="M26.2984 47.0799C26.2511 46.6842 26.0164 46.3356 25.6207 46.1376C25.2422 45.9485 24.7569 45.915 24.2017 46.0204L24.1802 46.0243C21.0767 46.7556 19.2453 47.0214 16.1959 47.1083C16.4306 44.9275 16.5328 43.4961 16.5894 41.2967C19.2222 41.1882 20.7776 41.0394 23.2613 40.5887L23.2769 40.5858L23.2926 40.5819C24.3639 40.3156 25.0997 39.6351 25.106 38.8309C25.1091 38.4188 24.9057 38.0472 24.5494 37.8143C24.2045 37.5892 23.7508 37.5122 23.2467 37.5702L23.2213 37.5731L23.1959 37.579C20.6909 38.1329 19.1963 38.2939 16.7467 38.3963C16.7924 36.658 16.7806 35.4788 16.691 33.701C19.0572 33.5983 20.5035 33.4256 22.8277 32.8573L22.8521 32.8514L22.8756 32.8436C23.7799 32.5234 24.2735 31.76 24.148 31.0155C24.0857 30.6466 23.8676 30.3138 23.5152 30.1151C23.1662 29.9186 22.7325 29.8782 22.2662 29.9862L22.2584 29.9881C20.0914 30.5272 18.8065 30.6931 16.7164 30.7479C16.665 29.0925 16.5863 27.9312 16.3892 26.1044C17.8021 26.0291 18.7176 25.8735 20.1412 25.4549L20.1715 25.4452L20.2008 25.4325C20.9027 25.1237 21.3063 24.4198 21.2398 23.7577C21.2053 23.4155 21.0416 23.0815 20.7281 22.8524C20.4187 22.6265 20.015 22.5394 19.5611 22.578L19.5142 22.5819L19.4703 22.5946C18.1637 22.956 17.3669 23.1048 16.1783 23.2401C16.0651 20.9958 15.8999 19.5605 15.4967 17.3954L17.6402 17.0233L17.7398 17.0057L17.8248 16.952C18.3698 16.6032 18.8791 15.971 19.3511 15.162C19.8296 14.3419 20.2973 13.2912 20.7398 12.0487C21.6253 9.56236 22.4254 6.26346 23.0054 2.40025L23.0074 2.38268C23.0655 1.87752 23.0866 1.44736 23.0484 1.10435C23.0118 0.776405 22.9083 0.411537 22.6041 0.18541C22.2887 -0.0486603 21.9115 -0.0225601 21.608 0.0555267C21.2965 0.135757 20.9414 0.301369 20.5543 0.511581L20.5299 0.525253L20.5064 0.540878L12.4566 6.15611L3.24763 2.96568L3.23982 2.96275L3.23103 2.9608C2.543 2.74806 1.98409 2.62594 1.54255 2.61021C1.10657 2.59477 0.675875 2.68062 0.388254 3.01451C0.113449 3.33365 0.0815525 3.75377 0.107004 4.11412C0.133034 4.48147 0.230675 4.91177 0.347239 5.369C1.04315 8.86353 2.78728 11.9908 4.67536 14.2655C5.62006 15.4035 6.60962 16.3394 7.53572 17.0047C8.44635 17.6589 9.35258 18.0938 10.1226 18.1424L10.1666 18.1454L10.2105 18.1405L12.6383 17.868C12.9444 19.8924 13.1069 21.2196 13.2984 23.2362C11.5646 23.0409 10.541 22.7223 8.9322 21.9784L8.75642 21.8934C8.35048 21.7098 7.9614 21.6347 7.60993 21.6874C7.19068 21.7504 6.86445 21.9923 6.69197 22.3436C6.36271 23.0145 6.65865 23.8735 7.31794 24.4383L7.357 24.4715L7.4029 24.4969C8.49193 25.0941 9.41195 25.5011 10.4312 25.7665C11.338 26.0025 12.3064 26.1214 13.5191 26.1766C13.6394 27.8901 13.6946 29.0409 13.7369 30.7606C10.921 30.4276 9.23001 30.0708 6.40193 29.2098L6.20857 29.1581C5.76226 29.0546 5.35011 29.0786 5.00251 29.2313C4.60071 29.408 4.33058 29.7384 4.22419 30.1239C4.00938 30.9033 4.46957 31.7636 5.4195 32.12L5.44489 32.1297L5.47126 32.1366C8.6276 32.94 10.5248 33.2741 13.7633 33.6092C13.815 35.4346 13.8139 36.6327 13.7642 38.4813C10.4821 38.4501 8.51336 38.1408 5.08357 37.0663L5.07282 37.0633L5.06306 37.0604C4.45638 36.8985 3.9369 36.8871 3.51911 37.0262C3.08604 37.1706 2.7881 37.4705 2.66072 37.8465C2.42141 38.5533 2.82467 39.3846 3.57771 39.6512H3.57868C7.1946 40.9209 9.4906 41.3115 13.6109 41.4335C13.5747 43.561 13.473 44.9386 13.2154 47.1014C9.46183 46.9172 7.24831 46.5699 3.42243 45.5077L3.21931 45.453C2.7514 45.3399 2.33046 45.3248 1.97419 45.4051C1.56443 45.4976 1.21351 45.7274 1.03962 46.0946C0.865074 46.4636 0.917326 46.8712 1.10993 47.2157C1.30083 47.5567 1.63264 47.8509 2.06501 48.0702L2.10212 48.0887L2.14216 48.1014C5.77752 49.2328 8.21603 49.7221 12.8843 50.0497C12.6496 51.6464 12.4662 52.696 12.1402 54.203L5.72712 53.3475L5.7154 53.3456C3.59705 53.1147 2.10588 53.2667 1.17341 54.1317C0.246738 54.9916 0.0293217 56.4155 0.00641823 58.2225C-0.0352688 61.4172 0.136253 63.8195 0.67634 66.0047C1.21774 68.195 2.12284 70.1406 3.51521 72.4315L3.52009 72.4393L3.52595 72.4471C5.30361 75.1378 6.9489 76.7908 9.02302 77.076C11.0771 77.3582 13.3612 76.269 16.3316 74.0799L16.358 74.0604L16.3814 74.0389C20.4323 70.1545 22.4537 67.7216 24.6265 62.3436L24.6295 62.3358L24.6324 62.327C24.9629 61.416 25.2113 60.6035 25.3345 59.8866C25.4575 59.1711 25.4628 58.5124 25.2701 57.9286C24.8909 56.7803 23.8377 56.1444 22.2125 55.7782L21.8795 55.7088L21.8668 55.7059L21.8551 55.7049L15.0426 54.7323C15.3803 53.0435 15.5685 51.8985 15.7603 50.1288C19.3222 49.931 21.419 49.6557 24.9381 48.8309L24.9517 48.828L24.9644 48.8241C25.8118 48.5745 26.3882 47.834 26.2984 47.0799ZM17.6871 63.4657C17.687 64.8755 16.5331 66.0184 15.1099 66.0184C13.6867 66.0184 12.5329 64.8755 12.5328 63.4657C12.5328 62.0557 13.6867 60.9129 15.1099 60.9129C16.5332 60.913 17.6871 62.0557 17.6871 63.4657Z" fill="#864B4B"/>
</svg>
