<svg width="27" height="78" viewBox="0 0 27 78" fill="none" xmlns="http://www.w3.org/2000/svg">
<path d="M26.2984 47.0799C26.2511 46.6841 26.0165 46.3355 25.6207 46.1375C25.2421 45.9484 24.7569 45.9149 24.2017 46.0204L24.1802 46.0243C21.0767 46.7556 19.2453 47.0214 16.1958 47.1082C16.4306 44.9274 16.5328 43.4961 16.5894 41.2967C19.2222 41.1882 20.7775 41.0394 23.2613 40.5887L23.2769 40.5858L23.2925 40.5819C24.3639 40.3156 25.0998 39.6352 25.106 38.8309C25.1091 38.4188 24.9058 38.0472 24.5494 37.8143C24.2045 37.5892 23.7509 37.5121 23.2466 37.5702L23.2212 37.5731L23.1958 37.5789C20.6909 38.1329 19.1964 38.2939 16.7466 38.3963C16.7923 36.6579 16.7806 35.4788 16.691 33.701C19.0573 33.5983 20.5035 33.4256 22.8277 32.8573L22.8521 32.8514L22.8755 32.8436C23.7799 32.5234 24.2736 31.7601 24.148 31.0155C24.0857 30.6466 23.8677 30.3137 23.5152 30.1151C23.1662 29.9185 22.7326 29.8782 22.2662 29.9862L22.2583 29.9881C20.0913 30.5272 18.8066 30.6931 16.7164 30.7479C16.665 29.0925 16.5863 27.9313 16.3892 26.1043C17.8022 26.0291 18.7175 25.8735 20.1412 25.4549L20.1714 25.4452L20.2007 25.4325C20.9028 25.1236 21.3064 24.4199 21.2398 23.7577C21.2052 23.4154 21.0416 23.0815 20.7281 22.8524C20.4187 22.6265 20.0151 22.5393 19.5611 22.578L19.5142 22.5819L19.4703 22.5946C18.1636 22.956 17.3669 23.1048 16.1783 23.2401C16.0651 20.9957 15.8999 19.5606 15.4966 17.3954L17.6402 17.0233L17.7398 17.0057L17.8248 16.952C18.3698 16.6032 18.8791 15.971 19.3511 15.162C19.8296 14.3419 20.2973 13.2912 20.7398 12.0487C21.6253 9.56232 22.4253 6.2635 23.0054 2.40024L23.0074 2.38266C23.0654 1.87742 23.0866 1.44737 23.0484 1.10434C23.0118 0.776329 22.9084 0.411514 22.6041 0.185394C22.2887 -0.0486908 21.9115 -0.0225906 21.608 0.0555115C21.2965 0.13575 20.9414 0.301346 20.5542 0.511566L20.5298 0.525238L20.5064 0.540863L12.4566 6.1561L3.24761 2.96567L3.23979 2.96274L3.231 2.96078C2.54292 2.74802 1.98409 2.6259 1.54253 2.6102C1.10656 2.59476 0.675852 2.68063 0.388231 3.0145C0.113426 3.33363 0.0815296 3.75375 0.106981 4.11411C0.132994 4.48149 0.230633 4.91168 0.347216 5.36899C1.04311 8.86359 2.78722 11.9908 4.67534 14.2655C5.62008 15.4036 6.60956 16.3393 7.53569 17.0047C8.44638 17.659 9.35252 18.0938 10.1226 18.1424L10.1666 18.1454L10.2105 18.1405L12.6382 17.868C12.9444 19.8925 13.1069 21.2195 13.2984 23.2362C11.5645 23.0409 10.5411 22.7223 8.93218 21.9784L8.7564 21.8934C8.35043 21.7098 7.9614 21.6347 7.60991 21.6873C7.19066 21.7504 6.86443 21.9923 6.69194 22.3436C6.36263 23.0145 6.65861 23.8735 7.31792 24.4383L7.35698 24.4715L7.40288 24.4969C8.49198 25.0941 9.41188 25.501 10.4312 25.7664C11.3381 26.0025 12.3063 26.1214 13.5191 26.1766C13.6394 27.8902 13.6946 29.0408 13.7369 30.7606C10.921 30.4276 9.23008 30.0708 6.4019 29.2098L6.20854 29.158C5.76222 29.0546 5.35009 29.0786 5.00249 29.2313C4.60069 29.408 4.33056 29.7384 4.22417 30.1239C4.00928 30.9033 4.46949 31.7635 5.41948 32.12L5.44487 32.1297L5.47124 32.1366C8.62767 32.94 10.5247 33.2741 13.7632 33.6092C13.815 35.4346 13.8138 36.6326 13.7642 38.4813C10.482 38.4501 8.51344 38.1408 5.08354 37.0662L5.0728 37.0633L5.06304 37.0604C4.45633 36.8984 3.93688 36.8871 3.51909 37.0262C3.08602 37.1706 2.78808 37.4705 2.66069 37.8465C2.4213 38.5533 2.82461 39.3846 3.57768 39.6512H3.57866C7.19467 40.9209 9.49052 41.3115 13.6109 41.4334C13.5747 43.561 13.473 44.9386 13.2154 47.1014C9.46176 46.9171 7.24838 46.5699 3.42241 45.5077L3.21929 45.453C2.75135 45.3398 2.33046 45.3247 1.97417 45.4051C1.56442 45.4976 1.21349 45.7274 1.0396 46.0946C0.865013 46.4636 0.917292 46.8712 1.10991 47.2157C1.30079 47.5567 1.63255 47.8508 2.06499 48.0702L2.1021 48.0887L2.14214 48.1014C5.77759 49.2329 8.21594 49.722 12.8843 50.0496C12.6496 51.6465 12.4662 52.696 12.1402 54.203L5.7271 53.3475L5.71538 53.3455C3.59704 53.1146 2.10586 53.2667 1.17339 54.1317C0.246716 54.9916 0.0292988 56.4155 0.00639534 58.2225C-0.0352993 61.4173 0.136221 63.8195 0.676317 66.0047C1.21772 68.1951 2.12278 70.1405 3.51518 72.4315L3.52007 72.4393L3.52593 72.4471C5.30363 75.1378 6.94883 76.7908 9.023 77.076C11.0771 77.3582 13.3611 76.269 16.3316 74.0799L16.358 74.0604L16.3814 74.0389C20.4323 70.1544 22.4536 67.7216 24.6265 62.3436L24.6294 62.3358L24.6324 62.327C24.9629 61.4159 25.2113 60.6035 25.3345 59.8866C25.4575 59.171 25.4628 58.5124 25.2701 57.9286C24.8909 56.7802 23.8377 56.1444 22.2125 55.7782L21.8794 55.7088L21.8667 55.7059L21.855 55.7049L15.0425 54.7323C15.3803 53.0434 15.5685 51.8986 15.7603 50.1287C19.3223 49.931 21.419 49.6557 24.938 48.8309L24.9517 48.828L24.9644 48.8241C25.8118 48.5744 26.3883 47.8341 26.2984 47.0799ZM17.6871 63.4657C17.687 64.8756 16.5332 66.0184 15.1099 66.0184C13.6867 66.0184 12.5328 64.8756 12.5328 63.4657C12.5328 62.0557 13.6867 60.913 15.1099 60.9129C16.5332 60.9129 17.6871 62.0557 17.6871 63.4657Z" fill="black"/>
</svg>
