<svg width="110" height="185" viewBox="0 0 110 185" fill="none" xmlns="http://www.w3.org/2000/svg">
<path d="M37.9009 185C40.4539 143.57 55.5619 114.085 50.4135 77.6268L54.4175 75.6611C55.3092 104.106 54.974 120.615 44.4074 156.744C61.523 127.904 72.1799 120.098 92.9563 120.625C79.2244 147.962 67.5018 154.286 44.4074 160.675C42.1098 172.895 41.1749 178.83 42.1552 182.543L37.9009 185Z" fill="#F1B3A8"/>
<path d="M75.9391 61.1641C125.9 88.0717 71.6384 131.332 52.1652 77.1349C22.9313 137.377 -17.3598 69.7889 34.3973 59.4442C-15.8008 67.3624 -9.57246 -7.86713 43.4064 39.2963C21.5309 -8.86183 84.494 -16.2769 69.6828 36.8393C106.054 1.96212 135.566 58.0321 75.9391 61.1641Z" fill="#FCD4CA"/>
<ellipse cx="55.1682" cy="57.7245" rx="12.5126" ry="11.7939" fill="#F2B4A7"/>
</svg>
