<svg width="1440" height="42" viewBox="0 0 1440 42" fill="none" xmlns="http://www.w3.org/2000/svg">
<ellipse cx="945" cy="-0.5" rx="45" ry="42.5" fill="#9A5D5D"/>
<ellipse cx="855" cy="-0.5" rx="45" ry="42.5" fill="#9A5D5D"/>
<ellipse cx="1125" cy="-0.5" rx="45" ry="42.5" fill="#9A5D5D"/>
<ellipse cx="1035" cy="-0.5" rx="45" ry="42.5" fill="#9A5D5D"/>
<ellipse cx="1305" cy="-0.5" rx="45" ry="42.5" fill="#9A5D5D"/>
<ellipse cx="1215" cy="-0.5" rx="45" ry="42.5" fill="#9A5D5D"/>
<ellipse cx="1395" cy="-0.5" rx="45" ry="42.5" fill="#9A5D5D"/>
<ellipse cx="45" cy="-0.5" rx="45" ry="42.5" fill="#9A5D5D"/>
<ellipse cx="225" cy="-0.5" rx="45" ry="42.5" fill="#9A5D5D"/>
<ellipse cx="135" cy="-0.5" rx="45" ry="42.5" fill="#9A5D5D"/>
<ellipse cx="405" cy="-0.5" rx="45" ry="42.5" fill="#9A5D5D"/>
<ellipse cx="315" cy="-0.5" rx="45" ry="42.5" fill="#9A5D5D"/>
<ellipse cx="585" cy="-0.5" rx="45" ry="42.5" fill="#9A5D5D"/>
<ellipse cx="495" cy="-0.5" rx="45" ry="42.5" fill="#9A5D5D"/>
<ellipse cx="765" cy="-0.5" rx="45" ry="42.5" fill="#9A5D5D"/>
<ellipse cx="675" cy="-0.5" rx="45" ry="42.5" fill="#9A5D5D"/>
</svg>
