<svg width="72" height="30" viewBox="0 0 72 30" fill="none" xmlns="http://www.w3.org/2000/svg">
<path d="M44.1997 4.76872C41.9371 6.27416 16.8548 3.76188 1 2.82608V23.1323C19.2756 23.2172 36.8145 22.6003 40.932 23.9753C54.8107 32.2734 61.5587 29.2913 57.2704 22.2892C68.8185 26.5558 74.3104 18.6677 61.8119 15.435C77.3912 12.941 71.0603 4.74197 58.3781 7.88429C66.6523 1.77089 54.5705 -2.38172 44.1997 4.76872Z" fill="#CBB4AE" stroke="#C3ABA5" stroke-width="2"/>
<path d="M36.8891 11.7329C37.777 6.12938 44.4069 6.97233 47.5228 11.7329C52.0375 14.1308 51.6366 15.4793 46.4705 17.8908C42.9919 22.6478 36.1027 22.771 36.1691 17.3776C33.7552 15.0487 33.9325 13.8146 36.8891 11.7329Z" fill="#342E2E" stroke="#231918" stroke-width="2"/>
<path d="M55.5655 4.0307C56.2516 4.4359 56.3911 5.46507 55.1392 6.39347C53.8874 7.32181 52.3265 7.34682 51.6404 6.94162C50.9546 6.53633 50.8159 5.50763 52.0676 4.57935C53.3193 3.65107 54.8793 3.62565 55.5655 4.0307Z" fill="#342E2E" stroke="#231918" stroke-width="2"/>
<mask id="path-4-inside-1_24_836" fill="white">
<ellipse cx="1.93542" cy="4.30587" rx="1.93542" ry="4.30587" transform="matrix(0.345571 0.938393 -0.987241 0.159236 67.2864 8.47076)"/>
</mask>
<ellipse cx="1.93542" cy="4.30587" rx="1.93542" ry="4.30587" transform="matrix(0.345571 0.938393 -0.987241 0.159236 67.2864 8.47076)" fill="#342E2E"/>
<path d="M64.3732 12.7888L63.682 10.912C62.721 11.067 61.8835 11.0218 61.3505 10.8993C61.0815 10.8375 60.9887 10.7787 61.0121 10.7932C61.0492 10.8162 61.298 10.9871 61.4279 11.3398L59.4534 11.6583L57.4789 11.9767C58.1054 13.6779 59.9602 14.3469 60.9923 14.584C62.2399 14.8707 63.6776 14.8892 65.0643 14.6656L64.3732 12.7888ZM59.4534 11.6583L61.4279 11.3398C61.5577 11.6924 61.4557 11.92 61.4387 11.9516C61.428 11.9716 61.4695 11.8912 61.6654 11.7544C62.0535 11.4834 62.7656 11.1882 63.7267 11.0332L63.0355 9.15642L62.3444 7.27963C60.9577 7.50329 59.6941 7.95751 58.7857 8.59195C58.0342 9.11682 56.8524 10.2755 57.4789 11.9767L59.4534 11.6583ZM63.0355 9.15642L63.7267 11.0332C64.6877 10.8782 65.5252 10.9234 66.0582 11.0459C66.3272 11.1077 66.42 11.1665 66.3966 11.152C66.3595 11.129 66.1106 10.9581 65.9808 10.6054L67.9553 10.2869L69.9297 9.96848C69.3033 8.26726 67.4485 7.59834 66.4164 7.36116C65.1688 7.07447 63.731 7.05597 62.3444 7.27963L63.0355 9.15642ZM67.9553 10.2869L65.9808 10.6054C65.8509 10.2528 65.953 10.0252 65.97 9.99355C65.9807 9.97356 65.9391 10.054 65.7433 10.1908C65.3552 10.4618 64.6431 10.757 63.682 10.912L64.3732 12.7888L65.0643 14.6656C66.451 14.4419 67.7146 13.9877 68.623 13.3533C69.3745 12.8284 70.5562 11.6697 69.9297 9.96848L67.9553 10.2869Z" fill="#231918" mask="url(#path-4-inside-1_24_836)"/>
<path d="M64.8644 20.5503C64.8344 20.5816 64.6242 20.7433 63.9387 20.7519C63.296 20.7598 62.4691 20.6163 61.6593 20.2763C60.8492 19.9361 60.3001 19.5019 60.0372 19.1137C59.7569 18.6996 59.8884 18.5048 59.9184 18.4735C59.9494 18.4416 60.16 18.2812 60.8434 18.2727C61.4862 18.2647 62.3137 18.4085 63.1238 18.7486C63.9336 19.0887 64.4821 19.5227 64.7449 19.9109C65.0244 20.3237 64.8949 20.5181 64.8644 20.5503Z" fill="#342E2E" stroke="#231918" stroke-width="2"/>
<path d="M54.4344 25.8721C53.8285 26.2115 52.3184 26.1672 51.05 25.1753C49.7817 24.1836 49.9651 23.1905 50.5709 22.8512C51.1767 22.5118 52.6869 22.5562 53.9553 23.548C55.2237 24.5398 55.0402 25.5328 54.4344 25.8721Z" fill="#342E2E" stroke="#231918" stroke-width="2"/>
</svg>
