<svg width="1440" height="182" viewBox="0 0 1440 182" fill="none" xmlns="http://www.w3.org/2000/svg">
<g filter="url(#filter0_di_26_82)">
<path d="M552.809 130.093C581.985 139.401 593.822 149.271 608.488 173.5C623.533 150.924 634.733 140.681 663.504 130.093C656.244 110.937 629.036 87 608.488 87.0001C587.94 87.0001 562.878 107.275 552.809 130.093Z" fill="#C0D3D9"/>
<path d="M442.446 130.093C471.622 139.401 483.459 149.271 498.125 173.5C513.17 150.924 524.37 140.681 553.141 130.093C545.881 110.936 518.673 86.9999 498.125 87C477.577 87.0001 452.515 107.275 442.446 130.093Z" fill="#C0D3D9"/>
<path d="M774.198 130.093C803.374 139.401 815.211 149.271 829.877 173.5C844.922 150.924 856.122 140.681 884.893 130.093C877.632 110.937 850.425 87 829.877 87.0001C809.329 87.0001 784.267 107.275 774.198 130.093Z" fill="#C0D3D9"/>
<path d="M110.363 130.093C139.538 139.401 151.375 149.271 166.042 173.5C181.087 150.924 192.287 140.681 221.057 130.093C213.797 110.937 186.59 87 166.042 87.0001C145.494 87.0001 120.432 107.275 110.363 130.093Z" fill="#C0D3D9"/>
<path d="M0 130.093C29.1753 139.401 41.0124 149.271 55.6786 173.5C70.7236 150.924 81.9238 140.681 110.694 130.093C103.434 110.936 76.2267 86.9999 55.6786 87C35.1306 87.0001 10.0687 107.275 0 130.093Z" fill="#C0D3D9"/>
<path d="M331.752 130.093C360.927 139.401 372.764 149.271 387.431 173.5C402.476 150.924 413.676 140.681 442.446 130.093C435.186 110.937 407.979 87 387.431 87.0001C366.883 87.0001 341.821 107.275 331.752 130.093Z" fill="#C0D3D9"/>
<path d="M221.389 130.093C250.564 139.401 262.401 149.271 277.068 173.5C292.112 150.924 303.313 140.681 332.083 130.093C324.823 110.936 297.616 86.9999 277.068 87C256.519 87.0001 231.458 107.275 221.389 130.093Z" fill="#C0D3D9"/>
<path d="M663.835 130.093C693.011 139.401 704.848 149.271 719.514 173.5C734.559 150.924 745.759 140.681 774.53 130.093C767.269 110.936 740.062 86.9999 719.514 87C698.966 87.0001 673.904 107.275 663.835 130.093Z" fill="#C0D3D9"/>
<path d="M884.893 130.093C914.068 139.401 925.905 149.271 940.571 173.5C955.616 150.924 966.817 140.681 995.587 130.093C988.327 110.936 961.119 86.9999 940.571 87C920.023 87.0001 894.961 107.275 884.893 130.093Z" fill="#C0D3D9"/>
<path d="M1107.1 130.093C1136.27 139.401 1148.11 149.271 1162.78 173.5C1177.82 150.924 1189.02 140.681 1217.79 130.093C1210.53 110.936 1183.33 86.9999 1162.78 87C1142.23 87.0001 1117.17 107.275 1107.1 130.093Z" fill="#C0D3D9"/>
<path d="M1218.2 130.093C1247.38 139.401 1259.21 149.271 1273.88 173.5C1288.93 150.924 1300.13 140.681 1328.9 130.093C1321.64 110.936 1294.43 86.9999 1273.88 87C1253.33 87.0001 1228.27 107.275 1218.2 130.093Z" fill="#C0D3D9"/>
<path d="M995.996 130.093C1025.17 139.401 1037.01 149.271 1051.67 173.5C1066.72 150.924 1077.92 140.681 1106.69 130.093C1099.43 110.936 1072.22 86.9999 1051.67 87C1031.13 87.0001 1006.06 107.275 995.996 130.093Z" fill="#C0D3D9"/>
<path d="M1329.31 130.093C1358.48 139.401 1370.32 149.271 1384.98 173.5C1400.03 150.924 1411.23 140.681 1440 130.093C1432.74 110.936 1405.53 86.9999 1384.98 87C1364.44 87.0001 1339.37 107.275 1329.31 130.093Z" fill="#C0D3D9"/>
</g>
<g filter="url(#filter1_di_26_82)">
<path d="M552.809 43.0928C581.985 52.4014 593.822 62.271 608.488 86.5001C623.533 63.9241 634.733 53.6814 663.504 43.0928C656.244 23.9365 629.036 -1.57582e-05 608.488 6.10352e-05C587.94 0.000137829 562.878 20.2753 552.809 43.0928Z" fill="#C0D3D9"/>
<path d="M442.446 43.0928C471.622 52.4013 483.459 62.271 498.125 86.5001C513.17 63.924 524.37 53.6814 553.141 43.0928C545.881 23.9365 518.673 -7.67934e-05 498.125 0C477.577 7.67937e-05 452.515 20.2752 442.446 43.0928Z" fill="#C0D3D9"/>
<path d="M774.198 43.0928C803.374 52.4014 815.211 62.271 829.877 86.5001C844.922 63.9241 856.122 53.6814 884.893 43.0928C877.632 23.9365 850.425 -1.57582e-05 829.877 6.10352e-05C809.329 0.000137829 784.267 20.2753 774.198 43.0928Z" fill="#C0D3D9"/>
<path d="M110.363 43.0928C139.538 52.4014 151.375 62.271 166.042 86.5001C181.087 63.9241 192.287 53.6814 221.057 43.0928C213.797 23.9365 186.59 -1.57582e-05 166.042 6.10352e-05C145.494 0.000137829 120.432 20.2753 110.363 43.0928Z" fill="#C0D3D9"/>
<path d="M0 43.0928C29.1753 52.4013 41.0124 62.271 55.6786 86.5001C70.7236 63.924 81.9238 53.6814 110.694 43.0928C103.434 23.9365 76.2267 -7.67934e-05 55.6786 0C35.1306 7.67937e-05 10.0687 20.2752 0 43.0928Z" fill="#C0D3D9"/>
<path d="M331.752 43.0928C360.927 52.4014 372.764 62.271 387.431 86.5001C402.476 63.9241 413.676 53.6814 442.446 43.0928C435.186 23.9365 407.979 -1.57582e-05 387.431 6.10352e-05C366.883 0.000137829 341.821 20.2753 331.752 43.0928Z" fill="#C0D3D9"/>
<path d="M221.389 43.0928C250.564 52.4013 262.401 62.271 277.068 86.5001C292.112 63.924 303.313 53.6814 332.083 43.0928C324.823 23.9365 297.616 -7.67934e-05 277.068 0C256.519 7.67937e-05 231.458 20.2752 221.389 43.0928Z" fill="#C0D3D9"/>
<path d="M663.835 43.0928C693.011 52.4013 704.848 62.271 719.514 86.5001C734.559 63.924 745.759 53.6814 774.53 43.0928C767.269 23.9365 740.062 -7.67934e-05 719.514 0C698.966 7.67937e-05 673.904 20.2752 663.835 43.0928Z" fill="#C0D3D9"/>
<path d="M884.893 43.0928C914.068 52.4013 925.905 62.271 940.571 86.5001C955.616 63.924 966.817 53.6814 995.587 43.0928C988.327 23.9365 961.119 -7.67934e-05 940.571 0C920.023 7.67937e-05 894.961 20.2752 884.893 43.0928Z" fill="#C0D3D9"/>
<path d="M1107.1 43.0928C1136.27 52.4013 1148.11 62.271 1162.78 86.5001C1177.82 63.924 1189.02 53.6814 1217.79 43.0928C1210.53 23.9365 1183.33 -7.67934e-05 1162.78 0C1142.23 7.67937e-05 1117.17 20.2752 1107.1 43.0928Z" fill="#C0D3D9"/>
<path d="M1218.2 43.0928C1247.38 52.4013 1259.21 62.271 1273.88 86.5001C1288.93 63.924 1300.13 53.6814 1328.9 43.0928C1321.64 23.9365 1294.43 -7.67934e-05 1273.88 0C1253.33 7.67937e-05 1228.27 20.2752 1218.2 43.0928Z" fill="#C0D3D9"/>
<path d="M995.996 43.0928C1025.17 52.4013 1037.01 62.271 1051.67 86.5001C1066.72 63.924 1077.92 53.6814 1106.69 43.0928C1099.43 23.9365 1072.22 -7.67934e-05 1051.67 0C1031.13 7.67937e-05 1006.06 20.2752 995.996 43.0928Z" fill="#C0D3D9"/>
<path d="M1329.31 43.0928C1358.48 52.4013 1370.32 62.271 1384.98 86.5001C1400.03 63.924 1411.23 53.6814 1440 43.0928C1432.74 23.9365 1405.53 -7.67934e-05 1384.98 0C1364.44 7.67937e-05 1339.37 20.2752 1329.31 43.0928Z" fill="#C0D3D9"/>
</g>
<defs>
<filter id="filter0_di_26_82" x="-4" y="87" width="1448" height="94.5001" filterUnits="userSpaceOnUse" color-interpolation-filters="sRGB">
<feFlood flood-opacity="0" result="BackgroundImageFix"/>
<feColorMatrix in="SourceAlpha" type="matrix" values="0 0 0 0 0 0 0 0 0 0 0 0 0 0 0 0 0 0 127 0" result="hardAlpha"/>
<feOffset dy="4"/>
<feGaussianBlur stdDeviation="2"/>
<feComposite in2="hardAlpha" operator="out"/>
<feColorMatrix type="matrix" values="0 0 0 0 0 0 0 0 0 0 0 0 0 0 0 0 0 0 0.25 0"/>
<feBlend mode="normal" in2="BackgroundImageFix" result="effect1_dropShadow_26_82"/>
<feBlend mode="normal" in="SourceGraphic" in2="effect1_dropShadow_26_82" result="shape"/>
<feColorMatrix in="SourceAlpha" type="matrix" values="0 0 0 0 0 0 0 0 0 0 0 0 0 0 0 0 0 0 127 0" result="hardAlpha"/>
<feOffset dy="4"/>
<feGaussianBlur stdDeviation="2"/>
<feComposite in2="hardAlpha" operator="arithmetic" k2="-1" k3="1"/>
<feColorMatrix type="matrix" values="0 0 0 0 0 0 0 0 0 0 0 0 0 0 0 0 0 0 0.25 0"/>
<feBlend mode="normal" in2="shape" result="effect2_innerShadow_26_82"/>
</filter>
<filter id="filter1_di_26_82" x="-4" y="0" width="1448" height="94.5001" filterUnits="userSpaceOnUse" color-interpolation-filters="sRGB">
<feFlood flood-opacity="0" result="BackgroundImageFix"/>
<feColorMatrix in="SourceAlpha" type="matrix" values="0 0 0 0 0 0 0 0 0 0 0 0 0 0 0 0 0 0 127 0" result="hardAlpha"/>
<feOffset dy="4"/>
<feGaussianBlur stdDeviation="2"/>
<feComposite in2="hardAlpha" operator="out"/>
<feColorMatrix type="matrix" values="0 0 0 0 0 0 0 0 0 0 0 0 0 0 0 0 0 0 0.25 0"/>
<feBlend mode="normal" in2="BackgroundImageFix" result="effect1_dropShadow_26_82"/>
<feBlend mode="normal" in="SourceGraphic" in2="effect1_dropShadow_26_82" result="shape"/>
<feColorMatrix in="SourceAlpha" type="matrix" values="0 0 0 0 0 0 0 0 0 0 0 0 0 0 0 0 0 0 127 0" result="hardAlpha"/>
<feOffset dy="4"/>
<feGaussianBlur stdDeviation="2"/>
<feComposite in2="hardAlpha" operator="arithmetic" k2="-1" k3="1"/>
<feColorMatrix type="matrix" values="0 0 0 0 0 0 0 0 0 0 0 0 0 0 0 0 0 0 0.25 0"/>
<feBlend mode="normal" in2="shape" result="effect2_innerShadow_26_82"/>
</filter>
</defs>
</svg>
