<svg width="71" height="63" viewBox="0 0 71 63" fill="none" xmlns="http://www.w3.org/2000/svg">
<path d="M20.4942 51.741C24.6217 59.8711 32.4368 57.7336 42.5073 52.8869C50.3538 55.5604 61.7829 57.5505 63.1464 51.49C64.51 45.4295 48.4984 32.3174 37.2554 33.1471C23.1441 36.5865 18.2592 47.3384 20.4942 51.741Z" fill="#373737"/>
<path d="M34.5285 58.6604C33.6877 59.1178 31.8452 59.4527 30.7796 59.5159C30.7601 59.5175 30.7406 59.519 30.7211 59.5206C30.4677 59.5392 30.2375 59.5588 29.9496 59.5765C29.2815 59.5936 28.3469 59.7227 26.3627 59.2397C25.7821 59.1284 25.1984 58.9664 24.6307 58.7494C21.7037 57.6678 19.6574 55.1459 18.5282 52.7391C16.8963 48.7683 18.4076 45.5786 19.8777 42.95C19.9119 42.8865 19.9473 42.8219 19.9835 42.7567C20.6727 41.4889 21.7341 40.0789 22.5294 39.3208C23.5348 38.3509 24.2861 37.8027 24.9156 37.3607C28.3607 34.6624 32.3773 32.9797 36.4666 31.9809C36.6245 31.9423 36.7835 31.9045 36.9435 31.8675L37.1584 31.8337C38.3793 31.758 39.5866 31.8273 40.7711 31.9901C42.0089 32.161 43.216 32.435 44.4 32.7805C45.0935 32.9461 45.7563 33.1234 46.3608 33.3028C47.213 33.556 47.9609 33.817 48.5577 34.0704C50.004 34.6798 51.5255 35.5988 52.6097 36.3308C52.7878 36.4502 52.955 36.5643 53.1089 36.6702C53.9988 37.2024 54.8756 37.77 55.7269 38.3671C55.7729 38.4214 55.8182 38.4762 55.865 38.5329C56.4474 39.244 57.3025 39.895 58.5777 41.0487C59.1367 41.5587 59.7619 42.1565 60.4509 42.9229C60.8952 43.4197 61.0485 43.735 61.1775 43.9954C61.2147 44.0715 61.249 44.1427 61.2861 44.2122C61.4112 44.4477 61.6336 44.6345 61.8908 44.8621C62.2169 45.149 62.625 45.5289 62.9162 46.1737C63.8336 48.2526 64.2238 49.2194 64.5021 50.0815C64.577 50.3349 64.6305 50.5846 64.6482 50.8366C64.668 51.1143 64.6439 51.4643 64.5615 51.8084C64.4177 52.429 64.1021 53.0608 63.7376 53.52C63.3413 54.0843 62.4289 55.1202 61.5935 55.6569C61.289 55.8698 60.8359 56.0851 60.3002 56.2688C59.7492 56.4594 59.1098 56.6184 58.4418 56.7686C56.7502 57.128 55.8668 57.1309 55.1538 57.1701C54.9536 57.1777 54.7658 57.1822 54.5771 57.1853C53.9857 57.1956 53.2559 57.17 52.5235 57.1171C51.6445 57.0547 50.7706 56.9557 50.0989 56.8862C48.3962 56.5341 46.7321 56.0764 45.1009 55.5544C44.2604 55.2853 43.5074 54.86 43.0144 54.3807C42.5192 53.9004 42.3273 53.4129 42.4607 53.0239C42.5934 52.6338 43.0387 52.3681 43.6983 52.2611C44.3571 52.1541 45.1726 52.2117 45.9833 52.4044C47.6122 52.7924 49.2573 53.1097 50.8923 53.338C52.8809 53.6122 54.8765 53.7699 56.7501 53.6524C58.0476 53.57 59.3072 53.3146 60.1744 52.8109C60.2642 52.7591 60.3472 52.7067 60.4275 52.6508C60.9806 52.1314 61.1474 51.5797 61.2274 51.0583C61.2296 51.0365 61.2314 51.0145 61.233 50.9922C61.2533 50.7065 61.2686 50.3869 61.2451 50.0756C61.2307 49.8715 61.1959 49.6627 61.1196 49.4675C61.0794 49.3645 61.0174 49.2216 60.9286 49.0406C60.5888 48.316 59.7618 47.0923 58.9172 45.9451C58.5431 45.4277 58.1103 44.8247 57.6672 44.2605C57.0303 43.4474 56.3784 42.7223 55.9819 42.426C55.2959 41.9114 54.5547 41.256 53.876 40.6997C53.2307 40.1688 52.6451 39.7266 52.2596 39.5534C51.8002 39.3478 51.4646 39.0921 50.9521 38.7221C50.5971 38.4669 50.1562 38.1565 49.525 37.7917C48.7964 37.372 48.2882 37.0568 47.8526 36.794C47.2382 36.4263 46.7646 36.1579 45.9912 35.9476C45.1297 35.7139 44.2415 35.4791 43.5672 35.2443C43.2551 35.1352 42.8929 35.0381 42.5192 34.9491C42.0137 34.8284 41.4983 34.725 41.0162 34.6043C40.6235 34.5056 40.3099 34.3829 40.0204 34.2789C39.9309 34.2466 39.845 34.2165 39.7615 34.1898C39.4431 34.16 39.1197 34.1396 38.7995 34.1307C38.7473 34.1418 38.6927 34.1544 38.6359 34.1677C38.3542 34.2349 38.0022 34.3243 37.5869 34.3919C37.5063 34.405 37.4274 34.4171 37.3499 34.4283L37.5596 34.3952C36.9702 34.5797 36.4546 34.6798 35.881 34.8091C35.3835 34.9211 34.8672 35.0489 34.3014 35.2689C33.9241 35.4157 33.4836 35.6211 33.0737 35.8279C32.4516 36.1394 31.867 36.4675 31.4273 36.6553C31.2644 36.7244 31.1074 36.7489 30.9523 36.774C30.9515 36.774 30.9508 36.7741 30.9501 36.7741C30.9396 36.7758 30.929 36.7776 30.9185 36.7793C29.9146 37.3517 28.9601 37.9914 28.0671 38.6966C27.9944 38.7655 27.9216 38.8351 27.8503 38.9041C27.5064 39.2374 27.1748 39.5835 27.0035 39.8392C26.8121 40.1191 26.2288 40.6973 25.6823 41.3463C25.3191 41.7736 24.9703 42.2303 24.7221 42.619C24.5726 42.8511 24.3779 43.0194 24.1795 43.1996C23.9916 43.3719 23.8054 43.5485 23.6638 43.7856C23.5918 43.9061 23.5287 44.0439 23.4654 44.1898C23.4099 44.3176 23.3527 44.4543 23.2865 44.595C23.2249 44.7261 23.0458 44.9816 22.8322 45.3307C22.7032 45.5403 22.5582 45.793 22.4272 46.0541C22.1563 46.7875 21.9626 47.5329 21.8738 48.2524C21.8948 48.4043 21.9358 48.5465 22.0003 48.6514C22.0465 48.7277 22.1055 48.7921 22.1668 48.8555C22.25 48.9448 22.3376 49.0332 22.4081 49.142C22.4632 49.2268 22.4857 49.32 22.4627 49.3847C22.4519 49.4144 22.4313 49.4374 22.4128 49.4584C22.3916 49.4824 22.3729 49.5041 22.3746 49.5292C22.3758 49.5474 22.3923 49.5654 22.4125 49.5868C22.4446 49.6206 22.4863 49.6651 22.4944 49.7341C22.5233 49.9861 22.5675 50.2496 22.6295 50.4461C22.6503 50.513 22.6724 50.5722 22.6948 50.6238C22.8293 50.9061 22.9572 51.1434 23.0872 51.3454C23.2912 51.6634 23.5261 52.1247 23.8055 52.5527C23.9943 52.8458 24.2064 53.1257 24.4107 53.3351C24.6087 53.5394 24.8592 53.6991 25.1023 53.8283C25.3973 53.9862 25.683 54.1028 25.9026 54.2615C25.9472 54.2938 25.9821 54.3785 26.0314 54.4845C26.0662 54.5595 26.1089 54.6455 26.1658 54.7298C26.5045 54.8592 26.8598 54.9623 27.2288 55.0395C27.2435 55.0338 27.2586 55.0279 27.2737 55.0218C27.2739 55.0216 27.2742 55.0215 27.2744 55.0213C27.6246 54.8836 28.0395 54.6732 28.6431 54.8501C28.7958 54.8946 28.896 54.9701 28.9884 55.0376C29.0786 55.1038 29.1654 55.1621 29.2835 55.1701C29.4192 55.179 29.5791 55.1287 29.7543 55.0694C29.9956 54.9867 30.2667 54.886 30.5558 54.9116C30.5755 54.9134 30.5968 54.9153 30.619 54.9171C30.8291 54.9342 31.149 54.952 31.483 55.028C32.4095 54.8842 33.3522 54.672 34.2985 54.4167C35.8778 53.9896 37.4594 53.4487 39.0414 52.8491C39.8066 52.5597 40.6035 52.3992 41.2655 52.4224C41.9219 52.4485 42.3951 52.653 42.5701 53.0173C42.7455 53.3809 42.6103 53.8803 42.2024 54.4089C41.789 54.9395 41.1261 55.4559 40.3634 55.8412C39.1148 56.4708 37.8379 57.0744 36.5105 57.6158C36.4425 57.6488 36.3742 57.6815 36.306 57.7133C35.7968 57.9506 35.3399 58.219 34.8579 58.4826C34.7485 58.5427 34.6388 58.6022 34.5285 58.6604Z" fill="black"/>
<path d="M36.3928 17.2784C35.0144 12.5322 40.5328 5.488 44.6925 6.2153C48.8521 6.9426 52.5933 16.0064 48.92 20.6701C45.2467 25.3339 39.3393 24.2009 36.3928 17.2784Z" fill="#373737"/>
<path d="M42.1882 9.31832C42.0701 9.63466 41.5944 9.93237 41.3343 10.1319C41.3296 10.1355 41.3248 10.1391 41.3201 10.1427C41.2581 10.1892 41.2048 10.2388 41.1436 10.2979C40.9978 10.4417 40.7981 10.6277 40.3353 11.018C40.2327 11.1577 40.1324 11.2981 40.0331 11.4404C38.9703 12.9605 38.139 14.7509 38.1588 16.2712C38.1624 16.2898 38.1663 16.3086 38.1703 16.3274C38.1986 16.46 38.237 16.5994 38.279 16.7305L38.2001 16.5091C38.3444 16.8324 38.4817 17.1361 38.555 17.3793C38.6984 17.8595 38.7983 18.1891 38.8844 18.4636C39.5836 19.8788 40.6116 21.1409 41.9259 21.7721C42.3343 21.9688 42.7645 22.1003 43.1995 22.1551C43.6 22.2058 44.0037 22.1938 44.3975 22.12C44.6213 22.0422 44.8225 21.9406 45.0014 21.8352C45.2517 21.6873 45.4575 21.5327 45.634 21.4219C46.0592 21.1594 46.5734 20.8662 46.9469 20.5883C47.0076 20.5438 47.065 20.5001 47.1177 20.4581C47.3227 20.2241 47.5139 19.9731 47.6944 19.7048C47.723 19.6612 47.7509 19.6172 47.7779 19.5729C47.8041 19.5644 47.831 19.5559 47.8584 19.547C48.1992 19.4343 48.4113 19.108 48.6307 18.5509C48.7256 18.3063 48.821 18.0147 48.9191 17.66C48.9817 17.4308 49.085 17.324 49.1706 17.2333C49.1957 17.2067 49.219 17.1814 49.2386 17.1549C49.3058 17.0639 49.2636 16.9496 49.2099 16.8199C49.1402 16.6501 49.052 16.4557 49.1563 16.2067C49.4812 15.3927 49.219 15.0066 49.0387 14.7592C48.9843 14.6843 48.9343 14.6174 48.9016 14.5469C48.7966 14.3188 48.8106 13.9717 48.8525 13.6922C48.8879 13.4705 48.709 13.0769 48.5199 12.8049C48.4489 12.7015 48.4001 12.549 48.3372 12.3699C48.2721 12.1841 48.1927 11.9723 48.061 11.7638C47.7278 11.2422 47.5303 10.9879 47.375 10.7846C47.3306 10.7274 47.2884 10.6737 47.2455 10.621C47.1105 10.455 46.951 10.2486 46.7834 10.0531C46.5822 9.81674 46.3682 9.59703 46.1878 9.45766C45.8565 8.98171 45.4859 8.55683 45.1099 8.25847C44.9191 8.10577 44.8116 7.8592 44.7334 7.51696C44.6574 7.17474 44.5997 6.76432 44.6676 6.3578C44.7351 5.95382 44.962 5.57865 45.3853 5.38726C45.7979 5.19204 46.3521 5.22397 46.7917 5.45263C47.6845 5.91495 48.4109 6.52883 49.0301 7.19585C49.783 8.01292 50.378 8.92453 50.8285 9.89082C51.143 10.5675 51.3957 11.2683 51.5882 11.9845C51.6081 12.0585 51.627 12.1322 51.6456 12.2063C51.9113 12.7789 52.1264 13.3825 52.227 13.8219C52.3107 14.1848 52.2866 14.4631 52.262 14.6981C52.2449 14.8606 52.2271 15.0033 52.2399 15.1458C52.2467 15.2223 52.2584 15.3267 52.2703 15.4542C52.3221 15.9687 52.3558 16.8796 52.1201 17.6908C52.0187 18.0482 51.8429 18.4543 51.6488 18.8251C51.3736 19.3577 51.0578 19.8126 50.9686 20.0754C50.815 20.541 50.4782 21.0083 50.1448 21.3776C50.0989 21.429 50.0531 21.4788 50.0079 21.527C49.754 21.7959 49.5396 22.0079 49.4503 22.1904C49.3295 22.4403 49.1418 22.5843 48.8577 22.7773C48.6605 22.9097 48.4139 23.0696 48.0842 23.293C47.7045 23.5481 47.3905 23.669 47.1264 23.7603C46.7508 23.8869 46.474 23.9622 46.0966 24.2056C45.6778 24.4753 45.1684 24.6687 44.7528 24.6952C44.5631 24.7083 44.349 24.7358 44.1242 24.7523C43.8268 24.7746 43.5107 24.7761 43.2289 24.7166C42.9968 24.6676 42.8168 24.5628 42.6633 24.4663C42.6154 24.4362 42.5708 24.407 42.5272 24.3801C42.3516 24.3486 42.1738 24.3097 42.0024 24.2662C41.9712 24.2712 41.9381 24.2769 41.9035 24.2824C41.7295 24.31 41.5104 24.3372 41.2615 24.2924C40.8655 24.22 40.5651 24.0301 40.2757 23.8198C40.0452 23.6525 39.8253 23.4749 39.5473 23.3014C39.3618 23.1859 39.1345 23.0581 38.9234 22.9288C38.6022 22.7316 38.3043 22.5203 38.1422 22.3181C38.0837 22.2447 38.0627 22.1521 38.0435 22.0605C38.0435 22.0601 38.0434 22.0596 38.0434 22.0591C38.0421 22.0529 38.0407 22.0467 38.0394 22.0405C37.5894 21.6298 37.1776 21.1922 36.7937 20.7289C36.7533 20.6944 36.7129 20.6589 36.6729 20.6233C36.4764 20.4476 36.2936 20.2736 36.1364 20.1813C35.9638 20.0788 35.6906 19.7324 35.4197 19.3408C35.2469 19.0948 35.07 18.8224 34.9166 18.6138C34.8267 18.4918 34.815 18.3405 34.8049 18.185C34.8002 18.1116 34.7957 18.037 34.7833 17.9634L34.713 17.7662C34.7057 17.68 34.692 17.5941 34.6641 17.5079C34.6358 17.4204 34.5928 17.3289 34.5491 17.2296C34.5105 17.142 34.4718 17.0501 34.4423 16.9506C34.4151 16.8591 34.4099 16.6406 34.4233 16.3743C34.4313 16.2093 34.446 16.0205 34.4635 15.8304C34.4227 15.3255 34.4307 14.823 34.4756 14.3367C34.4461 14.2288 34.4033 14.1299 34.3413 14.0475C34.2969 13.9882 34.2412 13.9336 34.1846 13.8769C34.1078 13.7996 34.029 13.7183 33.975 13.6153C33.9327 13.5349 33.9285 13.4485 33.9646 13.3999C33.9814 13.3771 34.0066 13.3629 34.0293 13.3502C34.0554 13.3356 34.0786 13.3227 34.0832 13.3012C34.0866 13.2857 34.0754 13.2659 34.0621 13.2416C34.0408 13.2028 34.0136 13.152 34.0287 13.089C34.0849 12.854 34.1736 12.5969 34.2682 12.3511C34.374 12.0753 34.4846 11.8187 34.5582 11.6049C34.6394 11.3669 34.8346 11.0608 35.0396 10.7713C35.1826 10.5683 35.3306 10.3707 35.4446 10.1966C35.5564 10.0257 35.634 9.82671 35.7134 9.63492C35.8086 9.40483 35.9072 9.18425 36.0612 9.04487C36.0924 9.01673 36.1725 9.00961 36.2725 9.00194C36.3434 8.9965 36.4245 8.99057 36.5053 8.97687C36.6492 8.77089 36.7994 8.5714 36.9575 8.37587C36.9562 8.36368 36.955 8.35117 36.9537 8.33852C36.9536 8.33828 36.9536 8.33804 36.9535 8.3378C36.9226 8.05434 36.8961 7.65077 37.2896 7.45068C37.3891 7.40055 37.4888 7.40426 37.579 7.40727C37.6675 7.41039 37.7461 7.41407 37.8061 7.36866C37.8741 7.31708 37.9125 7.21685 37.9564 7.10766C38.0171 6.95524 38.0936 6.78026 38.2647 6.70872C38.2764 6.70383 38.289 6.69866 38.3021 6.69317C38.4247 6.64167 38.6105 6.56488 38.8404 6.54936C39.2741 6.22062 39.7397 5.91952 40.236 5.65848C41.0643 5.22504 41.9841 4.88861 43.0059 4.77853C43.4997 4.72459 44.0212 4.89257 44.3344 5.21638C44.6555 5.54039 44.7394 5.96232 44.6676 6.3578C44.5954 6.75564 44.4014 7.11515 44.2144 7.40949C44.0238 7.70301 43.8465 7.90208 43.6324 7.98921C43.2803 8.13057 42.913 8.35273 42.5555 8.62753C42.5391 8.64628 42.5225 8.66499 42.5057 8.68338C42.383 8.81905 42.3029 9.00518 42.2352 9.19016C42.2195 9.23281 42.204 9.27574 42.1882 9.31832Z" fill="black"/>
<path d="M25.007 25.918C14.0101 22.0991 11.293 13.4789 16.5716 9.526C21.8501 5.57307 26.8462 11.5227 27.8427 14.9007C28.8392 18.2786 28.8474 26.9679 25.007 25.918Z" fill="#373737"/>
<path d="M16.4704 13.5882C16.5907 13.8658 16.4542 14.2923 16.4148 14.5665C16.4141 14.5714 16.4134 14.5763 16.4126 14.5812C16.4022 14.6446 16.4006 14.7058 16.4008 14.7778C16.4049 14.9498 16.3967 15.1731 16.3922 15.7139C16.4317 15.8626 16.4764 16.014 16.5244 16.1634C17.0446 17.7959 18.1857 19.4807 19.6898 20.9216C19.7108 20.937 19.7322 20.9528 19.754 20.9686C20.1774 21.2799 20.7288 21.6328 21.035 21.911C21.4342 22.273 21.7018 22.5212 21.9327 22.7326C23.0204 23.4721 24.208 24.1078 25.4589 24.6167L25.3703 24.5892C25.5954 24.6711 25.7036 24.6726 25.7995 24.6484C25.9247 24.6245 26.1692 24.4085 26.3581 24.0304C26.5348 23.6877 26.6716 23.2548 26.7674 22.8001C26.7892 22.5254 26.7881 22.2569 26.7801 22.0078C26.769 21.6555 26.7444 21.3407 26.7479 21.0811C26.7578 20.4576 26.8445 19.7408 26.8865 19.1998C26.8936 19.1113 26.8997 19.0276 26.9044 18.9503C26.8647 18.5224 26.8097 18.0957 26.7406 17.6745C26.7539 17.6446 26.7678 17.6145 26.782 17.5839C26.9577 17.201 26.9074 16.7454 26.7722 16.0681C26.724 15.832 26.6597 15.5511 26.586 15.2714C26.572 15.2178 26.5564 15.1608 26.539 15.1004C26.4733 14.8743 26.5011 14.7218 26.526 14.6C26.533 14.5637 26.5391 14.5293 26.5414 14.4957C26.5488 14.3798 26.4509 14.3021 26.3349 14.2167C26.182 14.1017 26.0021 13.9789 25.9536 13.7012C25.7847 12.8072 25.3556 12.6056 25.0664 12.4795C24.9796 12.442 24.901 12.4092 24.835 12.3643C24.6222 12.2184 24.4494 11.9105 24.3357 11.6485C24.2475 11.4393 23.8842 11.1983 23.5808 11.0769C23.4662 11.03 23.3441 10.9313 23.196 10.8212C23.0435 10.7078 22.8624 10.5821 22.6458 10.4982C22.0981 10.2905 21.8155 10.2404 21.5926 10.1972C21.5289 10.1859 21.47 10.1765 21.4116 10.1689C21.227 10.1445 21.0064 10.1153 20.791 10.1085C20.5323 10.099 20.2816 10.1229 20.0982 10.1768C19.6189 10.1382 19.119 10.1933 18.5928 10.37C18.3208 10.4608 17.9878 10.4449 17.6265 10.3203C17.2673 10.1939 16.9056 9.97145 16.6583 9.64179C16.4109 9.31365 16.302 8.89374 16.3902 8.46772C16.4767 8.04351 16.7717 7.64641 17.2047 7.40788C18.0565 6.93367 19.0604 6.60557 20.108 6.54441C21.3819 6.4624 22.6556 6.78088 23.7146 7.32929C24.4602 7.71267 25.1221 8.19157 25.7107 8.72083C25.7713 8.77537 25.8311 8.83058 25.8902 8.88625C26.4523 9.25217 26.969 9.67554 27.2937 10.0101C27.5626 10.2866 27.6892 10.5412 27.7943 10.7601C27.8659 10.9104 27.9258 11.0429 28.0131 11.1611C28.0598 11.2243 28.1253 11.3091 28.202 11.4119C28.5193 11.8331 29.0298 12.5914 29.2702 13.426C29.3549 13.7167 29.4213 14.0694 29.4577 14.4242C29.4656 14.5111 29.4722 14.5988 29.4779 14.6865C29.5147 15.2846 29.4907 15.799 29.566 16.0456C29.6978 16.4771 29.7117 16.9965 29.7078 17.4395C29.7051 17.8671 29.6891 18.2365 29.7678 18.4433C29.8618 18.6926 29.8364 18.9077 29.7921 19.2284C29.7609 19.4499 29.7209 19.7217 29.6956 20.09C29.6657 20.5163 29.5902 20.8156 29.5232 21.0681C29.4275 21.4243 29.3509 21.686 29.3914 22.1053C29.4357 22.5724 29.4121 23.0676 29.2856 23.4454C29.2289 23.6154 29.1793 23.817 29.1185 24.0278C29.0388 24.3053 28.9376 24.6019 28.7814 24.8616C28.657 25.0667 28.4853 25.2242 28.3355 25.3416C28.2887 25.3784 28.2404 25.4177 28.1964 25.4531C28.0906 25.6239 27.9712 25.7935 27.8325 25.9586C27.8197 25.9933 27.8062 26.0301 27.7911 26.0685C27.7092 26.2658 27.5913 26.514 27.3207 26.7522C26.8945 27.1275 26.3196 27.264 25.8037 27.2428C25.4255 27.2292 25.0741 27.1508 24.6961 27.0553L24.6202 27.0317C24.6016 27.0258 24.5829 27.02 24.5639 27.0143C24.3631 26.9541 24.1296 26.9045 23.9006 26.8528C23.5642 26.7779 23.22 26.6907 23.011 26.5711C22.9325 26.5263 22.8812 26.4502 22.8313 26.3747C22.8312 26.3743 22.831 26.3738 22.8308 26.3734C22.8274 26.3683 22.824 26.3632 22.8206 26.3581C22.2723 26.1655 21.7314 25.9602 21.1817 25.7288C21.1304 25.717 21.0788 25.7047 21.0278 25.6924C20.7781 25.6316 20.5419 25.5708 20.357 25.5645C20.157 25.5582 19.7579 25.3941 19.3284 25.1932C19.0465 25.0617 18.7688 24.9257 18.5217 24.8192C18.3777 24.7573 18.2877 24.6317 18.1983 24.5027C18.1143 24.3819 18.0335 24.2602 17.9008 24.1772C17.8339 24.1352 17.7533 24.1013 17.6676 24.0646C17.5922 24.0323 17.5127 23.9978 17.4357 23.9539C17.3632 23.9123 17.2427 23.7815 17.0831 23.6024C16.9848 23.4921 16.8754 23.3665 16.7603 23.2382C16.402 22.9674 16.0421 22.6698 15.7005 22.3586C15.6002 22.3203 15.4994 22.2996 15.3984 22.3024C15.3259 22.3044 15.2504 22.3185 15.1729 22.3323C15.0675 22.351 14.9581 22.3696 14.8471 22.3574C14.7606 22.3482 14.6913 22.3051 14.6739 22.2488C14.666 22.2228 14.6694 22.1945 14.6725 22.1689C14.6761 22.1397 14.6793 22.1136 14.6649 22.0978C14.6545 22.0865 14.6322 22.0845 14.6051 22.0818C14.5617 22.0775 14.5054 22.0714 14.464 22.0246C14.3092 21.8496 14.1562 21.641 14.0044 21.422C13.837 21.1805 13.6883 20.9491 13.547 20.7614C13.3902 20.554 13.2442 20.2211 13.1078 19.8684C13.0139 19.6253 12.9302 19.3838 12.8441 19.1749C12.7603 18.9715 12.6385 18.7865 12.5201 18.591C12.3786 18.3579 12.2521 18.1316 12.225 17.9042C12.2195 17.8581 12.2598 17.7842 12.3117 17.6934C12.3484 17.629 12.3909 17.5558 12.4273 17.4778C12.3439 17.2181 12.2711 16.9469 12.2128 16.6747C12.2023 16.6671 12.1916 16.6592 12.1807 16.6512C12.1805 16.6511 12.1803 16.651 12.18 16.6509C11.9369 16.4793 11.5972 16.1907 11.7016 15.7095C11.7283 15.5859 11.7968 15.504 11.8589 15.4317C11.92 15.3606 11.9752 15.2987 11.9819 15.2144C11.9895 15.1183 11.9419 15.0113 11.8927 14.8872C11.8235 14.7144 11.7519 14.5138 11.8239 14.3176C11.8288 14.3042 11.8342 14.2899 11.8397 14.275C11.8913 14.1336 11.9731 13.9219 12.1331 13.7307C12.233 13.123 12.4093 12.5243 12.6562 11.9614C13.0666 11.0208 13.6758 10.1882 14.3849 9.52166C14.7326 9.19277 15.1953 9.02464 15.6229 9.06211C16.054 9.09734 16.4176 9.31842 16.6583 9.64179C16.9002 9.9658 17.013 10.3659 17.0379 10.7419C17.0613 11.1187 16.9919 11.4431 16.8402 11.6833C16.592 12.0735 16.4174 12.4798 16.308 12.8893C16.3068 12.9127 16.3056 12.936 16.3041 12.959C16.2927 13.1309 16.3512 13.3088 16.4212 13.4749C16.4373 13.5132 16.4539 13.551 16.4704 13.5882Z" fill="black"/>
<path d="M11.2962 39.7405C2.80479 35.1223 1.67433 28.6474 7.29393 26.2261C12.9135 23.8048 19.7355 27.4792 20.3172 34.2098C20.7765 41.9154 17.293 42.5911 11.2962 39.7405Z" fill="#373737"/>
<path d="M6.36436 30.0044C6.46733 30.241 6.32456 30.5115 6.2766 30.726C6.27573 30.7297 6.27487 30.7334 6.27402 30.7372C6.26198 30.786 6.25892 30.833 6.25751 30.8895C6.25919 31.0301 6.24171 31.1991 6.24711 31.6888C6.28965 31.8216 6.33849 31.9573 6.39304 32.0955C6.98864 33.6112 8.35312 35.2523 9.98126 36.6424C10.004 36.6574 10.0273 36.6726 10.0509 36.688C10.5019 36.9838 11.0801 37.3215 11.4159 37.6014C11.7062 37.8459 11.9327 38.0396 12.1294 38.2086L12.0448 38.1656C12.137 38.2362 12.22 38.3007 12.2971 38.3607C13.8108 39.2263 15.5162 40.0062 16.8756 39.9498C17.2908 39.9286 17.6224 39.8232 17.8821 39.634C18.1216 39.4607 18.3248 39.1981 18.484 38.8496C18.5444 38.6328 18.5764 38.4011 18.5931 38.1834C18.6182 37.8721 18.6167 37.5789 18.635 37.346C18.6837 36.7712 18.7905 36.0782 18.8436 35.5351C18.8525 35.4499 18.8603 35.3679 18.8665 35.291C18.8423 34.9571 18.809 34.6436 18.7671 34.3022L18.7701 34.3435C18.755 34.2487 18.7385 34.1551 18.7206 34.0625C18.7334 34.0345 18.7468 34.0062 18.7605 33.9773C18.9284 33.6161 18.862 33.1843 18.6701 32.5525C18.5852 32.2777 18.4741 31.9635 18.3298 31.598C18.2364 31.3637 18.2529 31.2108 18.2651 31.0822C18.2686 31.0445 18.2716 31.0091 18.271 30.9751C18.2687 30.8581 18.1651 30.7887 18.0418 30.7114C17.8809 30.6105 17.6921 30.5034 17.6219 30.2354C17.3808 29.3728 16.9279 29.2293 16.6324 29.1483C16.5429 29.1238 16.4623 29.1035 16.3925 29.0695C16.1676 28.9592 15.9591 28.6865 15.8093 28.4485C15.6923 28.2575 15.2979 28.0816 14.9779 28.0132C14.857 27.9863 14.7188 27.9091 14.5521 27.8246C14.3798 27.7371 14.176 27.6418 13.9393 27.5901C13.3418 27.4634 13.0257 27.4401 12.7729 27.4172C12.7009 27.4114 12.6339 27.4068 12.567 27.4036C12.3554 27.393 12.0973 27.3757 11.8371 27.3737C11.5259 27.3704 11.2126 27.3901 10.9779 27.437C10.3716 27.3807 9.75285 27.3883 9.13618 27.4768C8.81961 27.5214 8.47587 27.44 8.1421 27.2405C7.81073 27.0398 7.51494 26.7371 7.35117 26.359C7.1876 25.9819 7.17667 25.5501 7.35885 25.1556C7.5397 24.7618 7.90536 24.4451 8.34609 24.3024C9.22969 24.0148 10.1613 23.8424 11.1033 23.8067C12.251 23.7624 13.4129 23.9218 14.5048 24.2929C15.2685 24.552 16.0003 24.9024 16.6806 25.332C16.7506 25.3762 16.82 25.4213 16.889 25.4672C17.515 25.7401 18.1137 26.0949 18.4973 26.3941C18.8155 26.6412 18.9847 26.8884 19.1231 27.1002C19.2186 27.2466 19.2983 27.3763 19.4024 27.4883C19.4581 27.5484 19.5363 27.6295 19.6281 27.7291C20.0051 28.1296 20.6033 28.8803 20.9052 29.69C21.0425 30.0483 21.1453 30.4824 21.2156 30.8948C21.3199 31.4887 21.3547 32.0333 21.4516 32.2854C21.6259 32.735 21.6736 33.2876 21.6818 33.7623C21.6842 33.8759 21.6849 33.9862 21.6856 34.0915L21.6883 34.1281C21.6811 34.4309 21.6822 34.6764 21.7386 34.83C21.8282 35.0849 21.7991 35.3066 21.7479 35.6264C21.7116 35.8633 21.6661 36.1185 21.627 36.5119C21.5822 36.9429 21.4885 37.2651 21.405 37.5183C21.283 37.8929 21.1843 38.1603 21.1713 38.6063C21.1541 39.1119 21.0265 39.6618 20.7904 40.0488C20.6803 40.2321 20.5712 40.4321 20.4237 40.6531C20.2376 40.9336 19.9939 41.2244 19.7099 41.4265C19.4793 41.591 19.2376 41.6638 19.0327 41.7078C18.9682 41.7218 18.9066 41.7336 18.848 41.7452C18.6615 41.8506 18.4712 41.939 18.2738 42.0142C18.2468 42.0378 18.2183 42.0631 18.1879 42.0889C18.0355 42.2186 17.8329 42.3706 17.5578 42.4656C17.1258 42.614 16.729 42.5854 16.3504 42.5276C16.05 42.4816 15.7567 42.4163 15.423 42.3807C15.1946 42.3562 14.9368 42.3411 14.6809 42.3165C14.3048 42.2813 13.937 42.2256 13.7068 42.1233C13.6202 42.0849 13.5537 42.0111 13.4968 41.9401C13.4966 41.9397 13.4963 41.9393 13.4961 41.9389C13.4921 41.9341 13.4881 41.9293 13.4842 41.9244C12.8958 41.7724 12.3327 41.5989 11.7696 41.4067C11.7181 41.3987 11.666 41.3901 11.6142 41.3812C11.3597 41.3374 11.1145 41.2913 10.9366 41.302C10.8538 41.3068 10.7305 41.2849 10.5809 41.2452L10.5002 41.2041C10.3013 41.1392 10.0615 41.0414 9.81916 40.9385C9.54746 40.8242 9.24709 40.6877 9.00618 40.5973C8.86354 40.5435 8.77373 40.4253 8.67631 40.2988C8.58698 40.1818 8.49771 40.062 8.36412 39.9874C8.29718 39.9501 8.21714 39.9216 8.13206 39.8909C8.05815 39.8646 7.9743 39.8324 7.89535 39.7929C7.82155 39.7558 7.68908 39.6278 7.52623 39.4633C7.42724 39.3629 7.30919 39.243 7.18602 39.1219C6.81195 38.874 6.43487 38.6031 6.0788 38.3247C5.9757 38.2936 5.87363 38.2806 5.77311 38.291C5.701 38.2985 5.6269 38.3183 5.5508 38.3381C5.44726 38.365 5.3398 38.3921 5.2286 38.389C5.14171 38.3865 5.07046 38.3501 5.05061 38.2973C5.04143 38.2727 5.04209 38.2438 5.0433 38.2182C5.04455 38.1888 5.04571 38.1626 5.0301 38.148C5.01881 38.1375 4.9965 38.1374 4.96926 38.1369C4.92578 38.1361 4.86926 38.1347 4.82433 38.0915C4.65613 37.9298 4.48955 37.738 4.3193 37.5321C4.13327 37.3071 3.96379 37.0879 3.80701 36.9136C3.6348 36.7233 3.45391 36.3966 3.28842 36.0588C3.17673 35.8296 3.06117 35.5791 2.95992 35.3817C2.86184 35.191 2.71329 34.9963 2.58045 34.812C2.42255 34.5951 2.26698 34.3537 2.22317 34.1268C2.2139 34.08 2.24945 34.0047 2.29302 33.9059C2.32426 33.8367 2.36062 33.758 2.39062 33.6748C2.2853 33.408 2.19308 33.1304 2.11739 32.8447C2.10641 32.8371 2.09522 32.8291 2.08385 32.8212C2.0836 32.8211 2.08336 32.8209 2.08312 32.8208C1.82894 32.6467 1.47052 32.3509 1.56082 31.8175C1.58451 31.6836 1.652 31.5951 1.71326 31.5173C1.77362 31.4412 1.82829 31.3742 1.83476 31.2811C1.84219 31.1757 1.7951 31.0549 1.74821 30.9194C1.68214 30.7329 1.61732 30.5017 1.70028 30.2873C1.70593 30.2726 1.71215 30.2569 1.7185 30.2406C1.77807 30.0872 1.8753 29.8546 2.05401 29.6549C2.21273 28.9906 2.49123 28.3529 2.85964 27.7947C3.47219 26.8617 4.31447 26.1698 5.16686 25.6963C5.58779 25.4608 6.07419 25.4129 6.48121 25.551C6.88868 25.6897 7.19266 25.9882 7.35117 26.359C7.51088 26.7304 7.52314 27.1476 7.45247 27.521C7.37802 27.8958 7.22382 28.1978 7.0172 28.3939C6.67812 28.7128 6.42688 29.0563 6.27097 29.3898C6.26681 29.41 6.26272 29.4301 6.25859 29.4497C6.22632 29.5977 6.26647 29.7597 6.32325 29.9061C6.33631 29.9397 6.35029 29.9726 6.36436 30.0044Z" fill="black"/>
<path d="M58.5845 35.9755C44.8022 28.8284 57.0467 18.3133 62.1676 20.6839C67.2885 23.0545 67.1594 25.9999 65.8239 30.2334C64.4883 34.4668 61.9611 37.467 58.5845 35.9755Z" fill="#373737"/>
<path d="M59.0653 22.9958C58.8807 23.2615 58.383 23.3984 58.0977 23.5101C58.0926 23.5121 58.0874 23.5141 58.0823 23.5161C58.0159 23.541 57.9568 23.5715 57.8876 23.6087C57.7225 23.7006 57.5005 23.8142 56.9941 24.0441C56.8721 24.1438 56.7514 24.2456 56.6326 24.3487C55.3499 25.4632 54.3639 26.8222 54.1918 28.2644C54.193 28.2826 54.1944 28.3012 54.1959 28.32C54.2214 28.6878 54.3316 29.1148 54.3569 29.4153C54.3862 29.7999 54.4352 30.0874 54.4785 30.3222C54.9656 31.5703 56.0461 32.7783 57.3374 33.7094C57.7397 34.0015 58.1817 34.2807 58.6205 34.5246C58.8015 34.6252 58.9888 34.7245 59.1825 34.8224L59.1093 34.7873C59.3098 34.8725 59.502 34.934 59.6952 34.9745C59.9013 34.9814 60.0857 34.9531 60.2412 34.9109C60.4606 34.8513 60.6247 34.767 60.7629 34.7139C61.0881 34.5934 61.512 34.4343 61.849 34.2189C61.9031 34.1853 61.9556 34.1502 62.0022 34.1175C62.2201 33.8834 62.4237 33.6119 62.6107 33.3166C62.6374 33.3079 62.6649 33.2992 62.693 33.2901C63.0446 33.1734 63.2692 32.8452 63.5634 32.2871C63.6912 32.0432 63.8323 31.753 63.9996 31.4069C64.1078 31.1819 64.2326 31.0969 64.3369 31.0228C64.3674 31.0011 64.396 30.9806 64.421 30.9588C64.507 30.8834 64.492 30.7618 64.4724 30.6189C64.4462 30.4352 64.4121 30.2162 64.5825 29.9991C64.6163 29.9558 64.6476 29.9132 64.6765 29.8714C65.1194 29.2178 65.023 28.8329 64.9478 28.5448C64.9239 28.4549 64.9012 28.3764 64.8968 28.2977C64.8822 28.0463 65.0236 27.7398 65.1656 27.5094C65.2801 27.3274 65.2578 26.9238 65.174 26.6403C65.1431 26.5343 65.1493 26.3932 65.1483 26.2343C65.1472 26.0693 65.138 25.8823 65.0726 25.6992C64.9037 25.2438 64.7693 25.0662 64.667 24.9154C64.6368 24.8732 64.6082 24.8354 64.5784 24.7984C64.4837 24.6804 64.3712 24.54 64.2376 24.4025C64.0795 24.2389 63.8929 24.0844 63.722 23.9841C63.412 23.6044 62.981 23.2128 62.4937 22.8555C62.2428 22.6706 62.0564 22.3655 61.9774 21.9873C61.9019 21.6106 61.9337 21.1889 62.1068 20.8152C62.279 20.4415 62.5841 20.1433 62.9622 19.9897C63.3418 19.8372 63.7734 19.8521 64.1452 20.0318C64.8875 20.3915 65.6467 20.8406 66.3419 21.4681C67.1887 22.218 67.9258 23.3332 68.1993 24.5392C68.3991 25.3774 68.4113 26.2059 68.3338 26.9601C68.3259 27.0381 68.3166 27.1171 68.307 27.1926C68.3442 27.8314 68.3143 28.4442 68.2531 28.8584C68.2022 29.2007 68.0873 29.4239 67.9883 29.6137C67.9205 29.7421 67.8593 29.856 67.8285 29.9793C67.8123 30.0444 67.7927 30.1342 67.7682 30.243C67.7322 30.4017 67.6889 30.5898 67.6306 30.8033C67.5197 31.2084 67.3542 31.683 67.1203 32.1005C66.9599 32.3883 66.733 32.7013 66.5038 32.9953C66.1776 33.4155 65.8498 33.7822 65.7535 34.0136C65.5879 34.4182 65.2669 34.8172 64.9555 35.1499C64.658 35.4706 64.3726 35.728 64.2643 35.9365C64.1355 36.1846 63.9394 36.3263 63.6364 36.5096C63.4228 36.6369 63.1594 36.7858 62.7872 36.9817C62.3547 37.2062 61.9991 37.2794 61.703 37.3215C61.282 37.3762 60.9767 37.3843 60.5168 37.505C60.0016 37.6379 59.4291 37.6257 59.0321 37.488C58.847 37.4255 58.6456 37.3678 58.4335 37.2934C58.3123 37.2509 58.1883 37.2032 58.0667 37.1478L57.9946 37.1132C57.8679 37.0454 57.7467 36.9724 57.6401 36.891C57.481 36.7695 57.3798 36.6215 57.2933 36.491C57.2663 36.4503 57.2406 36.4113 57.2151 36.3752C57.0834 36.3006 56.9567 36.2277 56.8261 36.1516C56.7972 36.1492 56.7665 36.1472 56.7345 36.145C56.5743 36.1337 56.3776 36.1183 56.1738 36.0403C55.8467 35.9132 55.6526 35.7267 55.4096 35.4932C55.2271 35.3156 55.0463 35.1311 54.8145 34.9633C54.6606 34.8522 54.4575 34.726 54.2611 34.5962C53.9679 34.4025 53.7055 34.216 53.5535 34.019C53.4969 33.9456 53.4785 33.8542 53.4622 33.7644C53.4622 33.764 53.4622 33.7635 53.4622 33.763C53.4611 33.7569 53.4599 33.7509 53.4588 33.7448C53.0396 33.3575 52.6244 32.9142 52.2654 32.4532C52.2263 32.4177 52.1848 32.3773 52.1454 32.339C51.9514 32.15 51.7747 31.9595 51.6222 31.8532C51.4616 31.7498 51.1865 31.3293 50.9649 30.885C50.8127 30.5815 50.6769 30.2528 50.5629 29.9878C50.4954 29.8308 50.5127 29.6553 50.5381 29.4848C50.5615 29.3244 50.5907 29.1644 50.5606 28.9982C50.5456 28.9152 50.5159 28.8222 50.4864 28.7244C50.4604 28.638 50.4344 28.5459 50.4183 28.4489C50.4036 28.3582 50.4268 28.1578 50.4735 27.902C50.5022 27.7439 50.54 27.5669 50.581 27.3843C50.6031 26.8924 50.6748 26.4012 50.7889 25.927C50.7751 25.8165 50.7466 25.7141 50.6977 25.6226C50.6627 25.5569 50.6158 25.4944 50.5686 25.4294C50.5044 25.341 50.4391 25.2478 50.4019 25.1371C50.3727 25.0508 50.3821 24.9642 50.4256 24.9217C50.4458 24.9018 50.473 24.8915 50.4976 24.8822C50.5257 24.8716 50.5508 24.8623 50.559 24.8415C50.5649 24.8265 50.5571 24.805 50.548 24.7785C50.5335 24.7364 50.5151 24.6811 50.5407 24.6205C50.6358 24.3947 50.7689 24.1526 50.9074 23.9247C51.0612 23.6705 51.2223 23.432 51.3358 23.2364C51.4629 23.0161 51.7181 22.7509 51.9806 22.5094C52.1638 22.3399 52.352 22.178 52.5018 22.0334C52.6487 21.8914 52.769 21.7154 52.8906 21.547C53.0361 21.3451 53.1838 21.1544 53.3662 21.0567C53.403 21.0369 53.4824 21.0495 53.5809 21.0665C53.6507 21.0786 53.7305 21.0928 53.8118 21.0996C53.9993 20.9368 54.1933 20.7819 54.3919 20.6354C54.3936 20.6234 54.3955 20.6111 54.3973 20.5986C54.3973 20.5983 54.3973 20.5981 54.3973 20.5979C54.4356 20.3185 54.5141 19.9205 54.9399 19.8343C55.0473 19.8132 55.1431 19.8426 55.2282 19.8699C55.3119 19.8968 55.3859 19.9216 55.4546 19.8944C55.5325 19.8635 55.5944 19.7781 55.6642 19.6856C55.7614 19.556 55.8761 19.4113 56.059 19.3892C56.0714 19.3878 56.0848 19.3863 56.0986 19.3846C56.2297 19.3687 56.4241 19.3479 56.6439 19.3984C57.1415 19.2049 57.6566 19.0513 58.1856 18.9443C59.0732 18.766 60.0147 18.7067 60.9824 18.8709C61.4461 18.9491 61.8896 19.243 62.0973 19.6333C62.3122 20.0257 62.278 20.4514 62.1068 20.8152C61.9345 21.1809 61.6616 21.4819 61.413 21.7204C61.1613 21.9571 60.9445 22.1046 60.7264 22.1321C60.3632 22.1753 59.9681 22.2861 59.5718 22.4453C59.5522 22.4585 59.5325 22.4715 59.5127 22.4841C59.3637 22.5788 59.2479 22.7317 59.1398 22.8878C59.1148 22.9237 59.0901 22.96 59.0653 22.9958Z" fill="black"/>
</svg>
