<svg width="479" height="80" viewBox="0 0 479 80" fill="none" xmlns="http://www.w3.org/2000/svg">
<path d="M177.054 25.7402C154.844 31.4438 139.317 37.2772 126.36 45.1025C113.407 52.9259 102.993 62.7575 91.0264 76.498L90.6484 76.1699L90.2715 75.8408C102.272 62.0609 112.766 52.1447 125.844 44.2461C138.919 36.3496 154.55 30.4867 176.806 24.7715L177.054 25.7402ZM299.11 24.7715C321.366 30.4867 336.997 36.3496 350.072 44.2461C363.15 52.1447 373.644 62.0609 385.645 75.8408L385.268 76.1699L384.89 76.498C372.923 62.7575 362.509 52.9259 349.556 45.1025C336.599 37.2772 321.072 31.4438 298.862 25.7402L299.11 24.7715ZM84.8213 22.7695C110.735 15.1417 139.584 13.0355 178.343 13.79L178.333 14.2891L178.323 14.7891C139.6 14.0352 110.871 16.1436 85.1035 23.7285C59.3434 31.3112 36.5065 44.3779 9.58789 65.5957L8.96875 64.8105C35.95 43.5433 58.9001 30.3996 84.8213 22.7695ZM297.573 13.79C336.332 13.0355 365.181 15.1417 391.095 22.7695C417.016 30.3996 439.966 43.5433 466.947 64.8105L466.328 65.5957C439.41 44.3779 416.573 31.3112 390.812 23.7285C365.045 16.1436 336.316 14.0352 297.593 14.7891L297.583 14.2891L297.573 13.79ZM244.01 2.00684C246.596 1.93825 248.56 2.2699 249.984 2.94336C251.426 3.62531 252.306 4.65583 252.696 5.92676C253.08 7.17698 252.976 8.6082 252.565 10.0869C252.154 11.5698 251.424 13.1407 250.512 14.6982C248.686 17.8135 246.089 20.9344 243.685 23.2773C242.482 24.4492 241.317 25.4368 240.31 26.1348C239.807 26.4835 239.333 26.7664 238.908 26.9639C238.673 27.0731 238.437 27.1604 238.211 27.2178C238.27 30.3195 237.93 33.0646 237.155 35.6094C239.863 40.96 242.337 44.6509 245.186 47.7939C248.091 50.9999 251.402 53.6536 255.794 56.9268L255.495 57.3281L255.196 57.7285C250.797 54.4496 247.419 51.7481 244.444 48.4658C241.679 45.4154 239.274 41.8774 236.707 36.9297C236.008 38.7958 235.062 40.5644 233.85 42.2998C230.551 47.0192 225.311 51.4775 217.916 57.0459L217.314 56.2471C224.712 50.6769 229.832 46.3023 233.029 41.7275C236.003 37.4718 237.326 33.0229 237.213 27.2227C236.991 27.1692 236.761 27.087 236.53 26.9844C236.113 26.7987 235.65 26.5316 235.16 26.2031C234.179 25.5456 233.049 24.6145 231.883 23.5049C229.552 21.2861 227.035 18.3153 225.234 15.3008C224.334 13.7932 223.604 12.2609 223.169 10.7969C222.735 9.3361 222.585 7.91035 222.882 6.63379C223.183 5.34008 223.936 4.23517 225.231 3.42969C226.512 2.63362 228.299 2.14295 230.666 2.00781L230.681 2.00684H244.01ZM244.036 3.00684H230.709C228.444 3.13767 226.844 3.60343 225.759 4.27832C224.686 4.94535 224.097 5.8284 223.856 6.86035C223.612 7.90954 223.723 9.14908 224.128 10.5127C224.532 11.8729 225.22 13.3272 226.093 14.7881C227.839 17.7109 230.294 20.6118 232.572 22.7803C233.711 23.8641 234.797 24.7563 235.717 25.373C236.177 25.6814 236.588 25.9152 236.937 26.0703C237.022 26.1083 237.102 26.1398 237.176 26.167C237.173 26.1187 237.172 26.07 237.17 26.0215L238.168 25.9707C238.172 26.0414 238.174 26.1123 238.177 26.1826C238.269 26.1492 238.374 26.1094 238.487 26.0566C238.844 25.891 239.266 25.6412 239.74 25.3125C240.688 24.6555 241.81 23.7079 242.986 22.5615C245.341 20.2675 247.878 17.2162 249.649 14.1934C250.535 12.6821 251.221 11.1923 251.602 9.81934C251.983 8.44232 252.047 7.2205 251.74 6.21973C251.439 5.2399 250.766 4.41882 249.557 3.84668C248.329 3.26611 246.54 2.94042 244.036 3.00684ZM0 19.2988C59.7748 -0.728945 99.274 -2.2934 178.404 9.0957L178.333 9.59082L178.262 10.085C99.2332 -1.28948 59.9015 0.28358 0.318359 20.2471L0.15918 19.7734L0 19.2988ZM297.512 9.0957C376.642 -2.2934 416.141 -0.728945 475.916 19.2988L475.757 19.7734L475.598 20.2471C416.015 0.28358 376.683 -1.28948 297.654 10.085L297.583 9.59082L297.512 9.0957Z" fill="white"/>
<path d="M102.771 67.3911C99.3766 70.9284 95.8848 74.1763 92.6009 77.8692L91.3029 79.4347L89.6575 78.0746C89.5328 77.9641 89.4076 77.8538 89.2821 77.7436C89.1637 77.6393 89.0493 77.5389 88.9346 77.4387C88.9236 77.4291 88.9126 77.4195 88.9016 77.4099L87.341 76.1126L88.7007 74.4728C93.0415 69.4878 97.288 64.216 102.164 59.6234C107.012 55.0535 112.226 50.7667 117.783 47.0191C120.088 45.4618 122.449 43.9949 124.861 42.619C128.264 40.6773 131.763 38.9214 135.328 37.3318C141.41 34.6197 147.675 32.3893 154.003 30.4623C158.299 29.1549 162.629 27.9852 166.98 26.906C168.891 26.4321 170.788 25.9807 172.709 25.5382C174.055 25.229 175.406 24.9256 176.768 24.6263L176.909 24.5865L176.951 24.7343C176.967 24.8104 176.984 24.8865 177.001 24.9627C177.044 25.1615 177.064 25.3576 177.054 25.5084C177.044 25.6592 177.006 25.7526 176.946 25.7679C176.885 25.783 176.807 25.7189 176.725 25.5909C176.644 25.4629 176.568 25.281 176.511 25.0857C176.489 25.0117 176.467 24.9377 176.446 24.8636L176.898 25.1314C175.549 25.5269 174.211 25.9264 172.881 26.3314C171.306 26.8105 169.755 27.2937 168.193 27.792C167.875 27.6165 167.483 27.5261 166.825 27.6255C166.485 27.6775 166.004 27.7972 165.67 27.9439C165.369 28.0758 165.158 28.2166 164.953 28.3521C164.739 28.494 164.536 28.6287 164.258 28.7377C163.784 28.9231 163.363 29.1618 162.908 29.4183C162.744 29.5112 162.577 29.6058 162.405 29.7C160.934 30.2014 159.453 30.7195 157.995 31.2457C157.41 31.4066 156.879 31.5581 156.44 31.7147C156.044 31.8562 155.692 32.0307 155.352 32.2165C155.126 32.3009 154.903 32.385 154.678 32.47C153.217 33.0218 151.779 33.5823 150.333 34.1655C149.174 34.5194 147.959 34.9045 146.414 35.4809C145.746 35.7308 145.085 35.9563 144.444 36.1798C143.506 36.5064 142.618 36.8268 141.877 37.1848C141.38 37.4252 140.842 37.6203 140.296 37.8228C139.57 38.0917 138.845 38.3678 138.253 38.75C137.883 38.9892 137.544 39.2309 137.238 39.4531C136.751 39.8064 136.323 40.1204 135.905 40.3318C135.12 40.7288 134.473 41.1446 133.907 41.5136C133.226 41.9581 132.662 42.3354 132.101 42.5466C132.016 42.5786 131.918 42.6133 131.807 42.6524C131.224 42.8594 130.287 43.1943 129.106 43.961C128.685 44.2344 128.315 44.5361 127.957 44.8323C127.564 45.1579 127.181 45.4785 126.754 45.7533C126.613 45.8441 126.467 45.93 126.314 46.0098C126.222 46.0579 126.114 46.0894 126.016 46.1181C125.891 46.1546 125.782 46.1868 125.74 46.243C125.618 46.4077 125.405 46.6389 125.176 46.8909C125.008 47.0761 124.831 47.2727 124.673 47.462C123.182 48.462 121.715 49.4962 120.273 50.5637C119.613 51.0527 118.957 51.5489 118.307 52.0518C117.901 52.2101 117.494 52.3858 117.084 52.5988C116.548 52.8778 115.916 53.3231 115.109 53.9098C114.515 54.3416 113.827 54.8498 113.013 55.4301C111.506 56.5026 110.092 57.7744 109.234 58.6374C109.052 58.8197 108.869 59.0056 108.677 59.2031C107.945 59.956 107.029 60.8948 105.301 62.6829C103.668 64.3767 102.278 65.8166 101.242 66.9077C100.713 67.4648 100.276 67.9307 99.9482 68.2939C99.3842 68.9187 98.6946 69.6802 98.0085 70.4492C96.9293 71.6575 95.8643 72.8808 95.2761 73.5996C95.0693 73.8524 94.854 74.1208 94.6209 74.4123C93.9818 75.2114 93.2222 76.1684 92.1411 77.469L91.902 73.9731C91.9184 73.9868 91.9349 74.0005 91.9514 74.0143C92.0666 74.1104 92.1779 74.2037 92.2857 74.2946C92.4132 74.4012 92.5405 74.5087 92.6631 74.6129L89.1437 74.8584C89.9936 73.8621 90.6296 73.1825 91.3032 72.4979C91.6386 72.1573 91.9957 71.9032 92.3596 71.6475C92.874 71.2872 93.422 70.9008 93.9709 70.2312C94.1003 70.0736 94.2305 69.8964 94.366 69.7122C94.6157 69.3728 94.8809 69.0125 95.2131 68.6843C95.3283 68.5705 95.4444 68.484 95.5581 68.3995C95.6831 68.3066 95.8056 68.2157 95.9222 68.0927C96.3568 67.6344 96.7801 67.1741 97.1509 66.7736C97.6332 66.2527 98.0406 65.818 98.3113 65.5697C98.7997 65.1208 99.2689 64.5839 99.7559 64.0342C100.126 63.6158 100.499 63.1978 100.89 62.8141C102.001 61.7233 103.483 60.1734 105.025 58.5781C105.607 57.9753 106.174 57.5371 106.9 56.9872C107.355 56.6423 107.868 56.2581 108.498 55.76C108.855 55.4783 109.107 55.1882 109.346 54.9174C109.565 54.6687 109.769 54.4391 110.022 54.256C110.245 54.0948 110.438 54.0511 110.619 54.0108C110.822 53.9659 111.012 53.9241 111.223 53.7261C111.335 53.6206 111.449 53.4671 111.588 53.2837C111.642 53.2112 111.701 53.1341 111.764 53.0537C111.771 53.0712 111.781 53.0847 111.789 53.0943C111.844 53.1624 112.102 53.0111 112.355 52.8642C112.456 52.8055 112.556 52.7471 112.642 52.7037C112.96 52.5434 113.482 52.1418 113.874 51.8289C114.041 51.696 114.209 51.5985 114.406 51.4854C114.581 51.385 114.778 51.2724 115.017 51.1124C115.153 51.0211 115.268 50.9649 115.364 50.9187C115.433 50.8853 115.492 50.857 115.541 50.8238C115.584 50.7951 115.601 50.7499 115.621 50.6991C115.636 50.6626 115.651 50.6229 115.678 50.5844C115.743 50.4922 115.846 50.4009 115.93 50.3517C115.969 50.3289 116.003 50.3156 116.037 50.3024C116.076 50.287 116.116 50.2718 116.163 50.2415C116.379 50.1024 116.562 49.9304 116.752 49.7523C116.962 49.5566 117.181 49.3532 117.464 49.1791C117.553 49.1243 117.653 49.074 117.751 49.0255C117.853 48.9748 117.952 48.9256 118.03 48.8753C118.347 48.6712 118.599 48.4149 118.832 48.1797C118.988 48.0233 119.135 47.8762 119.286 47.7607C119.563 47.5489 119.674 47.381 119.757 47.2567C119.799 47.1924 119.834 47.1398 119.88 47.0992C119.928 47.0692 119.976 47.0391 120.024 47.0099C120.069 46.9856 120.116 46.9605 120.156 46.931C120.159 46.9288 120.162 46.9264 120.165 46.9242C120.433 46.7634 120.702 46.6132 120.969 46.4654C121.57 46.1331 122.165 45.8108 122.748 45.3971C122.874 45.308 122.989 45.1969 123.107 45.0847C123.25 44.9471 123.398 44.8065 123.572 44.7003C123.987 44.4469 124.43 44.2318 124.868 44.0232C125.087 43.9184 125.306 43.8151 125.519 43.7089C125.942 43.498 126.344 43.276 126.692 43.0086C126.864 42.8764 127.022 42.7323 127.181 42.5875C127.27 42.5069 127.359 42.4258 127.451 42.3471C127.45 42.3954 127.458 42.4356 127.465 42.4732C127.48 42.5505 127.492 42.6168 127.421 42.7207C127.251 42.9664 127.078 43.2719 127.172 43.3657C127.197 43.3911 127.211 43.4284 127.223 43.4662C127.255 43.561 127.288 43.6576 127.525 43.5717C127.685 43.5136 128.092 43.3588 128.293 43.1576C128.337 43.1138 128.352 43.0676 128.37 43.0162C128.401 42.9239 128.438 42.8147 128.655 42.6712C128.691 42.647 128.731 42.6213 128.773 42.5949C128.938 42.4898 129.124 42.3726 129.171 42.2871C129.224 42.1887 129.173 42.1387 129.114 42.0804C129.036 42.0045 128.943 41.9145 129.05 41.6844C129.071 41.6389 129.134 41.5923 129.182 41.5571C129.215 41.5324 129.241 41.5133 129.239 41.504C129.237 41.4934 129.216 41.4812 129.188 41.4659C129.09 41.4123 128.921 41.3167 129.292 41.1033C129.393 41.0456 129.513 40.9885 129.621 40.9375C129.78 40.8624 129.912 40.8002 129.916 40.7671C129.918 40.7546 129.917 40.7423 129.915 40.7301C130.04 40.666 130.165 40.6021 130.29 40.5383C130.464 40.481 130.682 40.3604 130.958 40.2096C131.025 40.1731 131.096 40.1347 131.169 40.0952C131.416 39.9722 131.666 39.8483 131.912 39.728C132.112 39.6394 132.328 39.5524 132.563 39.4715C133.034 39.309 133.467 39.2211 133.891 39.1366C134.069 39.101 134.247 39.0661 134.425 39.0266C134.365 39.062 134.312 39.0953 134.273 39.1244C134.007 39.3236 133.943 39.4874 133.884 39.6379C133.845 39.738 133.808 39.8324 133.717 39.9275C133.55 40.1019 133.613 40.1751 133.659 40.2294C133.683 40.2575 133.702 40.2808 133.683 40.31C133.668 40.3335 133.62 40.3651 133.571 40.3977C133.528 40.4262 133.484 40.4557 133.459 40.481C133.158 40.7891 133.304 40.8039 133.516 40.8259C133.632 40.8381 133.768 40.8527 133.862 40.9195C133.951 40.9951 133.951 41.03 133.781 41.165C133.953 41.1369 134.125 41.1093 134.296 41.0826C134.352 41.0504 134.38 40.9986 134.417 40.9182C134.483 40.7746 134.826 40.562 135.096 40.3967C135.222 40.3201 135.331 40.2536 135.388 40.2087C135.693 39.9691 135.545 39.9171 135.414 39.8714C135.342 39.8463 135.275 39.823 135.293 39.7713C135.3 39.7493 135.272 39.7449 135.243 39.7403C135.221 39.7368 135.198 39.7332 135.192 39.7214C135.144 39.6355 135.314 39.4706 135.473 39.3177C135.564 39.2302 135.651 39.1465 135.691 39.0835C135.704 39.0644 135.712 39.0467 135.72 39.0297C135.731 39.005 135.743 38.9812 135.766 38.9545C135.818 38.8936 135.944 38.8084 136.084 38.7152C136.156 38.6673 136.23 38.6178 136.299 38.5684C136.388 38.5045 136.406 38.4526 136.426 38.3983C136.44 38.3599 136.455 38.3201 136.495 38.274C136.568 38.1907 136.747 38.0883 136.914 37.9936C136.986 37.9524 137.057 37.9123 137.115 37.8761C137.138 37.8613 137.148 37.8496 137.146 37.8401C137.42 37.6783 137.675 37.5251 137.927 37.3753C139.195 36.6243 140.295 35.9871 142.075 35.3384C142.41 35.2167 142.764 35.0646 143.118 34.9023C144.274 34.4655 145.443 34.0401 146.61 33.631C146.87 33.6251 147.176 33.5867 147.529 33.5141C148.191 33.3787 148.836 33.1606 149.604 32.9067C150.165 32.7215 150.808 32.5118 151.549 32.3125C152.808 31.9731 154.097 31.6184 155.53 31.1859C156.963 30.7526 158.597 30.2607 159.76 29.9077C160.385 29.7176 161.078 29.5852 161.714 29.4677C162.606 29.3024 163.422 29.1547 163.854 28.8856C163.994 28.7991 164.119 28.6838 164.242 28.5717C164.33 28.4919 164.416 28.4136 164.505 28.3483C164.771 28.2818 165.041 28.2147 165.304 28.1501C165.792 28.101 166.552 27.9811 167.225 27.6852C167.498 27.62 167.773 27.5548 168.039 27.4926C168.622 27.355 169.189 27.224 169.761 27.0932C169.948 27.0506 170.138 27.0074 170.328 26.9642C170.33 26.9638 170.332 26.9634 170.333 26.963C170.718 26.8756 171.101 26.7897 171.478 26.7061C171.639 26.6701 171.801 26.6343 171.963 26.5984C172.374 26.5076 172.798 26.4141 173.201 26.3274C173.415 26.281 173.633 26.234 173.851 26.1871C174.206 26.1111 174.565 26.0344 174.923 25.9586C175.493 25.8383 176.065 25.7192 176.642 25.6002C176.737 25.5808 176.83 25.5722 176.902 25.5772C176.974 25.5822 177.018 25.6001 177.025 25.6286C177.032 25.657 177.002 25.6942 176.941 25.7331C176.881 25.7719 176.795 25.8091 176.703 25.8376C176.14 26.0116 175.582 26.1853 175.026 26.3594C174.676 26.4684 174.327 26.5783 173.981 26.6872C173.768 26.7543 173.557 26.8211 173.348 26.8875C172.956 27.0119 172.542 27.143 172.142 27.2709C171.984 27.3214 171.826 27.3719 171.669 27.4224C171.301 27.5406 170.928 27.6607 170.552 27.7821C170.55 27.7829 170.548 27.7836 170.545 27.7843C170.362 27.8438 170.178 27.9032 169.998 27.9621C169.441 28.1431 168.889 28.324 168.322 28.5105C168.03 28.6072 167.727 28.7072 167.428 28.8067C167.262 28.8618 167.092 28.9183 166.927 28.9735C166.837 29.0037 166.745 29.0341 166.654 29.0647C164.554 29.7677 162.478 30.4844 160.388 31.231C158.307 31.9748 156.233 32.7424 154.18 33.5363C152.121 34.332 150.08 35.1546 148.054 36.0123C140.868 39.0529 133.884 42.5654 127.353 46.7456C122.202 50.0335 117.339 53.7358 112.756 57.7728C111.272 59.0788 109.776 60.4527 108.342 61.8239C106.891 63.2098 105.494 64.5956 104.084 66.0367C103.653 66.4772 103.22 66.9238 102.771 67.3911ZM377.041 62.8039C380.756 66.5145 383.805 70.5279 387.216 74.4723L388.586 75.9705L387.015 77.4104C386.926 77.4874 386.837 77.5646 386.748 77.6421C386.711 77.6744 386.674 77.7067 386.638 77.739C386.507 77.8522 386.382 77.9619 386.256 78.0718L384.756 79.4395L383.318 77.8668C379.128 73.0953 374.491 68.6507 370.034 64.2105C365.451 59.6408 360.605 55.3257 355.428 51.4638C353.203 49.8024 350.92 48.2222 348.577 46.7232C345.466 44.7324 342.253 42.8882 338.957 41.176C333.187 38.178 327.169 35.585 321.042 33.2584C316.881 31.6788 312.664 30.2194 308.412 28.8428C306.545 28.2387 304.688 27.6554 302.805 27.0801C301.488 26.6769 300.162 26.2792 298.825 25.8853L298.683 25.8524L298.717 25.703C298.739 25.6282 298.761 25.5535 298.783 25.4787C298.841 25.2835 298.918 25.1021 298.999 24.9745C299.08 24.847 299.158 24.7835 299.218 24.7991C299.279 24.8148 299.317 24.9088 299.326 25.0601C299.336 25.2113 299.316 25.4076 299.272 25.6063C299.256 25.6817 299.239 25.757 299.222 25.8324L298.955 25.3802C300.33 25.6844 301.695 25.9929 303.053 26.3071C304.661 26.6802 306.246 27.0574 307.845 27.4516C308.025 27.7678 308.312 28.0499 308.923 28.314C309.24 28.4499 309.71 28.6046 310.072 28.6603C310.397 28.7105 310.649 28.7053 310.897 28.7023C311.154 28.699 311.398 28.696 311.692 28.7566C312.192 28.8597 312.676 28.8917 313.2 28.9309C313.389 28.9447 313.581 28.9589 313.778 28.9769C315.289 29.3823 316.811 29.8056 318.314 30.2395C318.886 30.4538 319.408 30.6485 319.857 30.7866C320.265 30.9122 320.652 30.9851 321.039 31.0452C321.272 31.1157 321.501 31.1853 321.736 31.2572C323.243 31.719 324.735 32.1947 326.232 32.6931C327.362 33.1819 328.542 33.6965 330.087 34.3366C330.754 34.6133 331.399 34.9123 332.019 35.2046C332.931 35.6343 333.787 36.0486 334.569 36.3455C335.091 36.5436 335.611 36.8099 336.132 37.0813C336.826 37.4425 337.522 37.8119 338.203 38.0198C338.633 38.1514 339.038 38.259 339.41 38.3586C340 38.5161 340.524 38.6624 340.955 38.8662C341.77 39.2517 342.498 39.5289 343.147 39.7815C343.921 40.0829 344.572 40.345 345.073 40.7007C345.148 40.7546 345.234 40.8182 345.33 40.8902C345.841 41.2722 346.65 41.8801 347.94 42.5232C348.401 42.7533 348.854 42.9288 349.3 43.1047C349.696 43.2611 350.083 43.4166 350.458 43.608C350.699 43.7309 350.935 43.8686 351.163 44.0304C351.251 44.0924 351.331 44.1761 351.403 44.2523C351.495 44.3494 351.575 44.4341 351.645 44.4474C351.853 44.4864 352.162 44.5804 352.498 44.684C352.744 44.7603 353.005 44.8414 353.251 44.9105C354.843 45.8805 356.411 46.8921 357.953 47.9437C358.659 48.4255 359.36 48.9156 360.056 49.4139C360.338 49.7676 360.632 50.1188 360.959 50.4673C361.386 50.9224 361.999 51.4355 362.776 52.1067C363.349 52.6017 364.012 53.183 364.752 53.8925C366.124 55.2049 367.602 56.4635 368.575 57.2446C368.782 57.4103 368.987 57.5745 369.209 57.7522C370.048 58.4296 371.093 59.2684 372.988 60.9742C374.777 62.5899 376.227 64.0354 377.305 65.127C377.858 65.6878 378.308 66.1497 378.664 66.5055C379.266 67.1069 380 67.8589 380.728 68.6176C381.868 69.8021 383.004 71.0137 383.658 71.6804C383.891 71.9182 384.139 72.1674 384.406 72.4379C385.042 73.0803 385.793 73.8446 386.748 74.88L383.274 74.6376C383.394 74.5278 383.517 74.4151 383.644 74.2996C383.68 74.2666 383.721 74.2289 383.762 74.1908C383.846 74.1142 383.928 74.0396 384.009 73.9669L383.769 77.4744C382.683 76.2744 382.011 75.4736 381.33 74.6234C381.034 74.2539 380.83 73.881 380.619 73.496C380.315 72.9447 380.005 72.3802 379.39 71.7724C379.247 71.6312 379.085 71.4892 378.917 71.3415C378.608 71.0718 378.268 70.7752 377.975 70.4284C377.873 70.3073 377.798 70.1874 377.724 70.07C377.642 69.9409 377.563 69.8147 377.449 69.6906C377.023 69.2276 376.607 68.7962 376.227 68.4057C375.741 67.9052 375.335 67.4926 375.098 67.2143C374.679 66.7215 374.161 66.2424 373.632 65.7607C373.231 65.3953 372.819 65.0222 372.446 64.6441C371.378 63.5586 369.829 62.1492 368.171 60.7757C367.545 60.257 367.077 59.7483 366.471 59.101C366.093 58.6989 365.663 58.2435 365.104 57.7038C364.788 57.3989 364.469 57.1956 364.174 57.0099C363.903 56.8385 363.653 56.6819 363.436 56.4686C363.246 56.2808 363.175 56.1034 363.107 55.9348C363.031 55.7472 362.96 55.5708 362.732 55.4056C362.61 55.3175 362.441 55.2369 362.24 55.1419C362.16 55.1043 362.075 55.0642 361.986 55.0207C362.002 55.0095 362.013 54.9976 362.021 54.988C362.077 54.92 361.884 54.7035 361.693 54.4919C361.617 54.4072 361.541 54.3231 361.482 54.2497C361.265 53.979 360.771 53.5717 360.382 53.2727C360.218 53.1462 360.087 53.0095 359.933 52.8504C359.796 52.7092 359.642 52.5502 359.431 52.3655C359.31 52.2602 359.228 52.1658 359.16 52.0876C359.111 52.031 359.069 51.9828 359.025 51.9451C358.987 51.9125 358.939 51.9082 358.886 51.9034C358.847 51.9 358.806 51.8963 358.762 51.8816C358.658 51.8464 358.544 51.7743 358.476 51.709C358.444 51.6788 358.422 51.6504 358.401 51.6222C358.376 51.5893 358.351 51.5565 358.309 51.5207C358.12 51.3567 357.907 51.2351 357.686 51.1097C357.443 50.9719 357.189 50.829 356.943 50.6197C356.865 50.5539 356.788 50.4759 356.714 50.4004C356.636 50.3214 356.56 50.2448 356.489 50.1884C356.201 49.959 355.883 49.8111 355.59 49.6764C355.395 49.5868 355.211 49.5027 355.054 49.4044C354.767 49.2243 354.574 49.184 354.433 49.1544C354.359 49.139 354.299 49.1267 354.246 49.0992C354.202 49.0669 354.158 49.0338 354.115 49.0012C354.077 48.9688 354.038 48.9353 353.997 48.9099C353.994 48.9079 353.991 48.9062 353.988 48.9043C353.747 48.7195 353.516 48.5329 353.284 48.3478C352.764 47.9318 352.247 47.5259 351.645 47.1791C351.515 47.1045 351.37 47.0492 351.223 46.9932C351.042 46.9246 350.857 46.8548 350.691 46.7476C350.295 46.4914 349.92 46.1994 349.546 45.9123C349.436 45.8281 349.326 45.7444 349.217 45.6624C348.767 45.3254 348.314 45.0153 347.841 44.815C347.647 44.733 347.449 44.6695 347.249 44.6064C347.138 44.5713 347.026 44.5362 346.915 44.498C346.957 44.4744 346.987 44.4473 347.016 44.4221C347.075 44.37 347.125 44.3255 347.248 44.3341C347.54 44.3543 347.886 44.3521 347.922 44.2245C347.932 44.1899 347.957 44.16 347.984 44.1303C348.051 44.0556 348.119 43.9793 347.929 43.817C347.802 43.7076 347.467 43.4341 347.195 43.3653C347.136 43.3504 347.089 43.3609 347.036 43.3725C346.942 43.3934 346.83 43.4179 346.599 43.3079C346.56 43.2894 346.518 43.2687 346.475 43.2472C346.301 43.1614 346.107 43.0657 346.011 43.0717C345.9 43.0787 345.885 43.1484 345.866 43.2295C345.842 43.3352 345.813 43.4605 345.566 43.4938C345.517 43.5003 345.446 43.4729 345.393 43.4522C345.355 43.4376 345.327 43.4266 345.32 43.4329C345.312 43.4401 345.313 43.4648 345.314 43.4961C345.318 43.6067 345.325 43.799 344.959 43.6053C344.859 43.5529 344.75 43.4843 344.653 43.4228C344.508 43.3322 344.388 43.2573 344.358 43.272C344.347 43.2777 344.338 43.2851 344.328 43.2932C344.211 43.2259 344.092 43.1583 343.976 43.0918C343.838 42.9816 343.623 42.8693 343.352 42.7301C343.287 42.6963 343.217 42.6607 343.145 42.6233C342.911 42.4925 342.678 42.3631 342.445 42.2345C342.263 42.125 342.073 42.0019 341.877 41.8618C341.481 41.5801 341.167 41.2911 340.853 41.0068C340.721 40.8872 340.59 40.7686 340.454 40.6529C340.517 40.678 340.574 40.6993 340.62 40.7122C340.933 40.801 341.1 40.7535 341.254 40.7097C341.357 40.6806 341.453 40.6532 341.583 40.6694C341.819 40.6989 341.842 40.6053 341.858 40.536C341.867 40.5 341.874 40.4708 341.909 40.4687C341.937 40.4671 341.989 40.4864 342.044 40.5063C342.091 40.5237 342.14 40.5415 342.175 40.5466C342.598 40.6082 342.526 40.4823 342.421 40.2983C342.362 40.1968 342.295 40.0784 342.294 39.9641C342.303 39.8478 342.33 39.8261 342.539 39.8842C342.415 39.7616 342.292 39.6397 342.168 39.5175C342.108 39.4914 342.049 39.4989 341.963 39.5173C341.808 39.5499 341.431 39.4019 341.135 39.2873C340.998 39.2346 340.88 39.1893 340.809 39.1714C340.432 39.0767 340.483 39.2262 340.527 39.3574C340.551 39.4296 340.573 39.4964 340.522 39.5143C340.5 39.5219 340.513 39.5469 340.527 39.5723C340.538 39.5919 340.549 39.6119 340.544 39.6244C340.505 39.7147 340.272 39.6818 340.055 39.6519C339.931 39.6348 339.813 39.6188 339.739 39.6268C339.717 39.6292 339.698 39.6335 339.68 39.638C339.653 39.6445 339.628 39.6505 339.593 39.6494C339.514 39.647 339.369 39.6013 339.213 39.5527C339.133 39.5277 339.049 39.5017 338.968 39.4798C338.864 39.4514 338.812 39.47 338.758 39.4893C338.72 39.5029 338.68 39.5168 338.62 39.5152C338.511 39.5122 338.322 39.4404 338.145 39.3741C338.069 39.3452 337.994 39.3175 337.93 39.2967C337.904 39.2882 337.89 39.2887 337.883 39.2958C337.591 39.1935 337.314 39.1 337.041 39.0088C335.672 38.5527 334.492 38.1741 332.825 37.365C332.511 37.2127 332.159 37.0696 331.804 36.939C330.699 36.441 329.58 35.9512 328.463 35.475C328.271 35.3057 328.023 35.1303 327.715 34.9507C327.144 34.6155 326.518 34.3551 325.78 34.0541C325.239 33.833 324.621 33.5839 323.927 33.2715C322.748 32.7415 321.53 32.2266 320.133 31.7109C318.74 31.1959 317.134 30.6433 315.986 30.2704C315.368 30.0691 314.723 29.7864 314.135 29.5291C313.306 29.1667 312.546 28.8418 312.038 28.8312C311.874 28.8275 311.706 28.8556 311.543 28.883C311.427 28.9024 311.312 28.9212 311.203 28.9282C310.944 28.8397 310.683 28.7511 310.427 28.6642C309.992 28.4435 309.287 28.1392 308.563 28.0369C308.297 27.9482 308.03 27.8597 307.772 27.7737C307.205 27.5865 306.655 27.4052 306.099 27.2236C305.917 27.1641 305.733 27.1041 305.547 27.044C305.546 27.0434 305.544 27.0428 305.542 27.0422C305.168 26.9207 304.796 26.8005 304.43 26.6822C304.273 26.6315 304.115 26.5808 303.957 26.5302C303.557 26.4018 303.145 26.2707 302.754 26.1458C302.545 26.0792 302.333 26.012 302.12 25.9447C301.775 25.8354 301.426 25.7253 301.077 25.6159C300.522 25.4412 299.965 25.267 299.403 25.0924C299.311 25.0638 299.225 25.0263 299.165 24.9874C299.104 24.9485 299.074 24.9114 299.082 24.883C299.089 24.8547 299.134 24.8367 299.206 24.8318C299.277 24.827 299.37 24.8359 299.465 24.8554C300.042 24.9752 300.614 25.0953 301.184 25.2163C301.542 25.2925 301.901 25.3694 302.255 25.4459C302.473 25.493 302.69 25.5402 302.905 25.5869C303.307 25.6741 303.731 25.768 304.142 25.8593C304.304 25.8953 304.466 25.9314 304.627 25.9675C305.005 26.0518 305.388 26.1384 305.773 26.2265C305.776 26.227 305.778 26.2276 305.78 26.2281C305.969 26.2712 306.157 26.3142 306.343 26.3568C306.914 26.4883 307.481 26.62 308.063 26.7583C308.363 26.8289 308.675 26.9034 308.982 26.9772C309.153 27.0181 309.326 27.0599 309.496 27.1009C309.589 27.1235 309.683 27.1464 309.777 27.1695C311.935 27.694 314.074 28.2408 316.227 28.8258C318.373 29.4081 320.513 30.0226 322.639 30.6721C324.769 31.3232 326.887 32.0103 328.994 32.7414C336.56 35.3629 344.017 38.5644 351.068 42.5967C356.473 45.6787 361.623 49.2455 366.45 53.1888C368.039 54.4843 369.633 55.8539 371.158 57.2239C372.699 58.609 374.178 59.997 375.662 61.4441C376.112 61.8827 376.574 62.3378 377.041 62.8039ZM120.059 19.3426C110.892 20.4629 102.024 21.5032 93.0257 23.7368C90.572 24.3473 88.1316 25.0302 85.7067 25.7775C77.0773 28.4316 68.6866 31.9194 60.5459 35.7062C50.167 40.5218 40.1733 46.3392 30.568 52.7179C23.7759 57.2274 17.1706 62.0087 10.6708 66.9696L9.33095 68.0558L8.2142 66.6789C8.01187 66.414 7.80955 66.1491 7.60724 65.8841L6.52989 64.5558L7.8954 63.4488C10.366 61.5626 12.8449 59.7118 15.3515 57.8885C24.7819 51.0307 34.5614 44.59 44.8007 38.9784C51.7545 35.1661 58.9224 31.7449 66.2826 28.8288C69.5121 27.5484 72.7679 26.3677 76.0621 25.2832C78.52 24.4741 80.9946 23.7202 83.483 23.0212C83.829 22.9241 84.1676 22.8538 84.4244 22.8265C84.6812 22.7994 84.8356 22.8168 84.8528 22.8765C84.8699 22.9364 84.7486 23.0348 84.5181 23.1521C84.2877 23.2692 83.9663 23.3956 83.6254 23.5061C81.1526 24.3068 78.6985 25.1617 76.2655 26.071C73.5634 27.0807 70.8928 28.1556 68.2464 29.2966C67.7305 29.2321 67.0796 29.2885 65.9673 29.6662C65.4008 29.8584 64.5941 30.1857 64.0249 30.4869C63.5132 30.7574 63.1494 31.0021 62.8033 31.236C62.4416 31.4807 62.099 31.7139 61.6309 31.9552C60.8378 32.3644 60.1174 32.8187 59.3612 33.3026C59.0858 33.4789 58.8087 33.6577 58.5206 33.8404C56.0644 35.0769 53.6396 36.3656 51.2413 37.7034C50.2906 38.18 49.4259 38.6264 48.7058 39.0357C48.0589 39.4035 47.4919 39.7824 46.9372 40.1728C46.5713 40.3885 46.2052 40.6058 45.8391 40.8246C43.4866 42.2302 41.1546 43.6835 38.8491 45.1752C37.0014 46.2453 35.0626 47.4006 32.6146 48.9859C31.5518 49.6749 30.5105 50.331 29.4975 50.9787C28.0139 51.9266 26.6152 52.8408 25.4514 53.707C24.6672 54.2904 23.8151 54.8533 22.9651 55.4208C21.8171 56.1877 20.6958 56.9464 19.7487 57.7672C19.1552 58.2817 18.6322 58.7638 18.1407 59.2178C17.3572 59.9413 16.6851 60.5697 16.0243 61.0791C14.7757 62.0419 13.7605 62.9244 12.8521 63.718C11.7651 64.6683 10.8679 65.4628 9.97955 66.0642C9.97467 66.0675 9.96977 66.0709 9.96483 66.0742L10.2323 63.8141C10.3204 63.9446 10.4191 64.0942 10.5296 64.262C10.6088 64.3821 10.6942 64.5117 10.7864 64.6505L8.64304 64.3969C9.57851 63.7742 10.8937 62.8727 12.5966 61.4706C13.2889 60.9007 13.9098 60.33 14.5264 59.7676C15.4193 58.9526 16.2865 58.1674 17.3218 57.4544C17.4759 57.3483 17.6499 57.2556 17.8083 57.1715C18.0096 57.0645 18.1853 56.9715 18.2633 56.8814C18.4893 56.6193 18.8844 56.2227 19.3073 55.7987C19.6187 55.4866 19.9484 55.1572 20.2467 54.8473C22.8508 52.8986 25.4821 50.9891 28.1478 49.1247C29.3749 48.2665 30.6001 47.4241 31.8395 46.5876C32.5364 46.2658 33.2513 45.9223 33.9858 45.5408C34.9419 45.045 36.1427 44.3129 37.6862 43.3999C38.832 42.7223 40.1624 41.9475 41.7433 41.0896C44.6667 39.4998 47.6331 37.8064 49.5255 36.7066C49.9272 36.4725 50.3306 36.2381 50.7619 35.9892C52.4016 35.0504 54.4464 33.8642 58.4563 31.8498C62.2567 29.9495 65.576 28.5124 68.0863 27.4776C69.3689 26.9488 70.4392 26.525 71.2597 26.1965C72.6619 25.6347 74.3968 24.9727 76.1494 24.3401C78.8908 23.3463 81.6828 22.4337 83.2606 21.915C83.6431 21.7887 84.0387 21.658 84.4541 21.5222C84.6484 21.4587 84.8471 21.394 85.0508 21.3281C86.8205 20.7573 88.9635 20.0863 91.9588 19.2995C95.1029 18.4797 97.0746 18.0802 99.1334 17.7083C99.9709 17.5585 100.72 17.5062 101.498 17.4553C102.602 17.3838 103.744 17.317 105.254 17.0019C105.605 16.9287 105.979 16.8394 106.371 16.7469C107.093 16.5766 107.869 16.397 108.679 16.2873C108.961 16.249 109.213 16.2353 109.461 16.2223C109.733 16.208 110.002 16.1939 110.297 16.1498C111.399 15.9848 112.491 15.8177 113.443 15.6775C114.677 15.4956 115.723 15.3518 116.366 15.2921C117.521 15.1846 118.775 14.9943 120.046 14.8112C121.023 14.6704 121.994 14.5355 122.952 14.4417C125.676 14.1732 129.422 13.7643 133.283 13.3808C134.743 13.2355 135.989 13.2167 137.583 13.203C138.585 13.1943 139.693 13.1897 141.101 13.1627C141.9 13.1475 142.557 13.0644 143.178 12.9882C143.747 12.9181 144.282 12.8541 144.826 12.8571C145.304 12.8599 145.61 12.9394 145.901 13.0149C146.225 13.0991 146.53 13.1784 147.036 13.1439C147.304 13.1256 147.636 13.0695 148.019 13.0037C148.171 12.9777 148.334 12.9502 148.506 12.9227C148.498 12.9413 148.496 12.9578 148.496 12.9702C148.498 13.058 149.013 13.0888 149.52 13.1201C149.722 13.1326 149.924 13.145 150.09 13.161C150.706 13.2195 151.848 13.2038 152.727 13.1821C153.099 13.1729 153.438 13.1934 153.833 13.2177C154.187 13.2393 154.577 13.2642 155.077 13.2745C155.362 13.2804 155.582 13.3025 155.763 13.321C155.895 13.3344 156.007 13.3459 156.111 13.3479C156.201 13.3496 156.273 13.3234 156.355 13.2939C156.413 13.2726 156.477 13.2496 156.555 13.2341C156.742 13.1971 156.984 13.1836 157.154 13.1926C157.233 13.1967 157.295 13.2058 157.357 13.2148C157.428 13.2253 157.501 13.2359 157.597 13.2388C158.043 13.252 158.476 13.2187 158.928 13.1848C159.425 13.1475 159.945 13.1093 160.527 13.131C160.71 13.1379 160.906 13.1551 161.091 13.1719C161.286 13.1895 161.476 13.2066 161.637 13.2107C162.293 13.2273 162.912 13.1628 163.484 13.1043C163.864 13.0654 164.228 13.0291 164.554 13.0209C165.159 13.0061 165.485 12.9314 165.726 12.8763C165.85 12.8477 165.952 12.8243 166.059 12.8174C166.157 12.8198 166.256 12.8226 166.353 12.8256C166.443 12.8314 166.535 12.8375 166.622 12.836C166.628 12.8358 166.635 12.8355 166.641 12.8354C167.186 12.8557 167.728 12.8843 168.252 12.9133C169.434 12.9786 170.629 13.0464 171.865 13.0279C172.132 13.0239 172.405 12.9959 172.683 12.9677C173.023 12.9332 173.372 12.898 173.728 12.9058C174.582 12.9243 175.427 12.9886 176.266 13.0534C176.972 13.108 177.672 13.1628 178.354 13.1906L176.725 14.7578C176.732 14.5898 176.737 14.4231 176.74 14.2579C176.743 14.0898 176.744 13.9234 176.742 13.7586L178.312 15.3908C178.124 15.3929 177.94 15.3984 177.758 15.408C177.382 15.4279 177.016 15.4661 176.649 15.5049C176.445 15.5266 176.24 15.5485 176.034 15.5672C176.078 15.5267 176.102 15.4884 176.124 15.4527C176.17 15.379 176.21 15.316 176.409 15.2653C176.88 15.1454 177.416 14.9792 177.359 14.8498C177.344 14.8146 177.358 14.7761 177.373 14.7373C177.41 14.64 177.448 14.5404 177.012 14.4873C176.718 14.4515 175.965 14.3685 175.486 14.4359C175.382 14.4505 175.318 14.4819 175.247 14.5168C175.119 14.5794 174.972 14.6536 174.514 14.6646C174.437 14.6665 174.353 14.668 174.266 14.6693C173.921 14.6743 173.536 14.6802 173.391 14.7302C173.225 14.7879 173.259 14.8569 173.299 14.9374C173.352 15.0422 173.414 15.1667 173.055 15.3111C172.984 15.3397 172.85 15.348 172.748 15.3544C172.677 15.3589 172.622 15.3626 172.616 15.3714C172.61 15.3815 172.633 15.403 172.661 15.4301C172.763 15.526 172.938 15.6933 172.196 15.6914C171.995 15.691 171.766 15.6805 171.561 15.6712C171.26 15.6574 171.007 15.6463 170.972 15.6729C170.959 15.6831 170.95 15.6941 170.942 15.7055C170.698 15.6999 170.455 15.6943 170.212 15.6889C169.9 15.6539 169.464 15.6529 168.92 15.6526C168.789 15.6526 168.65 15.6524 168.506 15.6519C168.03 15.6422 167.556 15.633 167.073 15.6241C166.693 15.6087 166.289 15.5851 165.863 15.5487C165.01 15.4757 164.28 15.3586 163.546 15.2453C163.239 15.1975 162.935 15.1503 162.628 15.1076C162.748 15.1019 162.856 15.0953 162.939 15.0864C163.509 15.0255 163.739 14.9081 163.95 14.7998C164.09 14.7279 164.225 14.6601 164.441 14.6164C164.838 14.5364 164.799 14.4428 164.77 14.3734C164.754 14.3375 164.743 14.308 164.796 14.2906C164.839 14.2766 164.937 14.2701 165.039 14.2634C165.128 14.2576 165.22 14.2515 165.279 14.2403C165.993 14.1044 165.779 14.0245 165.466 13.908C165.294 13.8437 165.093 13.7685 165.001 13.6666C164.922 13.5588 164.949 13.5272 165.323 13.4849C165.031 13.4312 164.74 13.3777 164.45 13.3244C164.336 13.3279 164.25 13.3611 164.126 13.4164C163.906 13.5151 163.191 13.5518 162.635 13.5816C162.378 13.5954 162.154 13.6076 162.028 13.6232C161.358 13.7064 161.554 13.8178 161.726 13.9156C161.82 13.9695 161.908 14.0194 161.84 14.0583C161.811 14.075 161.853 14.0912 161.894 14.1078C161.926 14.1206 161.959 14.1336 161.961 14.1471C161.97 14.2453 161.574 14.3197 161.208 14.3893C160.999 14.4292 160.799 14.4675 160.686 14.5074C160.652 14.5195 160.625 14.5319 160.6 14.5439C160.563 14.5614 160.527 14.578 160.47 14.5925C160.342 14.6255 160.076 14.6489 159.786 14.6747C159.638 14.6879 159.483 14.7018 159.336 14.7179C159.147 14.7388 159.079 14.7782 159.007 14.8195C158.956 14.8486 158.903 14.8786 158.805 14.9039C158.628 14.9495 158.271 14.9689 157.94 14.9873C157.796 14.9953 157.657 15.0033 157.539 15.0129C157.49 15.0168 157.467 15.0238 157.462 15.033C156.912 15.0702 156.389 15.1087 155.881 15.147C153.349 15.3402 151.131 15.5178 147.853 15.5228C147.227 15.5243 146.557 15.5505 145.885 15.5895C143.731 15.6289 141.569 15.6839 139.412 15.7564C138.983 15.6903 138.459 15.6441 137.834 15.6211C136.664 15.5781 135.478 15.6268 134.063 15.6946C133.026 15.7444 131.86 15.8048 130.51 15.849C128.236 15.9243 125.901 16.0423 123.278 16.2666C120.672 16.4874 117.672 16.8132 115.573 17.0829C114.416 17.2303 113.215 17.3191 112.074 17.4136C110.482 17.5441 109.049 17.6808 108.211 17.9563C107.943 18.0443 107.692 18.1621 107.443 18.2778C107.267 18.3601 107.093 18.441 106.922 18.5087C106.445 18.5787 105.97 18.6503 105.496 18.7231C104.641 18.7843 103.313 18.9312 102.074 19.2764C101.583 19.3599 101.094 19.4451 100.622 19.5283C99.5975 19.7101 98.582 19.8978 97.5718 20.0925C97.2426 20.1558 96.9053 20.2218 96.5704 20.2881C96.5672 20.2887 96.564 20.2893 96.5608 20.2899C95.8852 20.4238 95.2094 20.5614 94.5417 20.7007C94.2554 20.7605 93.9695 20.8209 93.684 20.8819C92.9583 21.0369 92.2314 21.1967 91.5129 21.3587C91.1334 21.4442 90.7509 21.5318 90.3684 21.6206C89.7492 21.7642 89.121 21.9135 88.5 22.0643C87.4964 22.308 86.4959 22.5597 85.4982 22.8195C85.335 22.8619 85.1754 22.893 85.0549 22.9048C84.9343 22.9165 84.8619 22.9082 84.8538 22.88C84.8458 22.8518 84.9026 22.8054 85.0109 22.75C85.1192 22.6948 85.2705 22.6354 85.4312 22.5839C86.4151 22.2689 87.4035 21.9623 88.3955 21.664C89.0089 21.4796 89.6296 21.2966 90.2421 21.1196C90.6206 21.0102 90.9987 20.9024 91.3744 20.7964C92.0856 20.5959 92.8067 20.3974 93.5262 20.2042C93.8091 20.1282 94.0926 20.0527 94.3764 19.9779C95.0403 19.8028 95.7128 19.6297 96.3854 19.4604C96.3895 19.4594 96.3935 19.4584 96.3976 19.4574C96.7277 19.3743 97.0608 19.2915 97.3854 19.2115C98.3894 18.9645 99.3998 18.7247 100.42 18.4914C100.949 18.3698 101.502 18.246 102.053 18.1249C102.361 18.0573 102.663 17.9914 102.963 17.9267C103.127 17.8915 103.293 17.8561 103.46 17.8207C107.299 17.005 111.135 16.3037 115.024 15.6929C118.898 15.0842 122.795 14.5706 126.689 14.1382C130.591 13.7051 134.497 13.3523 138.408 13.0646C151.686 12.0921 165.029 11.8323 178.38 11.8969L180.247 11.9077L180.236 13.827C180.235 13.9934 180.234 14.1598 180.233 14.3262C180.232 14.4928 180.231 14.6595 180.231 14.8263L180.22 16.7075L178.286 16.6964C167.054 16.6399 155.836 16.7726 144.661 17.3173C141.131 17.4899 137.509 17.7102 133.984 17.9791C130.419 18.2507 126.936 18.5689 123.38 18.9586C122.298 19.0774 121.197 19.2043 120.059 19.3426ZM446.01 46.42C453.866 51.6054 460.854 57.3572 468.237 63.1746L469.868 64.4242L468.583 66.1003C468.573 66.1124 468.564 66.1245 468.554 66.1366C468.357 66.3861 468.161 66.6359 467.964 66.886L466.714 68.5166L465.038 67.2322C456.159 60.2614 446.691 53.8607 437.237 47.8039C427.577 41.6076 417.445 36.0587 406.877 31.5812C401.455 29.2794 395.922 27.2528 390.29 25.5042C384.941 23.8423 379.497 22.429 374.003 21.2431C362.736 18.8092 351.232 17.3199 339.682 16.3892C331.837 15.7578 323.949 15.3815 316.074 15.1653C312.621 15.0707 309.148 15.0075 305.702 14.9692C303.118 14.9406 300.544 14.926 297.952 14.9237C297.83 14.9235 297.711 14.9209 297.595 14.9159L297.47 14.92L297.466 14.7915C297.474 14.6092 297.488 14.4384 297.508 14.2905C297.513 14.2547 297.518 14.2203 297.523 14.1873C297.565 13.9329 297.623 13.7887 297.685 13.7878C297.747 13.7871 297.81 13.93 297.862 14.1835C297.868 14.2153 297.875 14.2486 297.881 14.2832C297.906 14.4302 297.927 14.6004 297.942 14.7822L297.586 14.4399C297.702 14.4303 297.824 14.423 297.946 14.4183C300.56 14.3185 303.156 14.2311 305.764 14.158C308.65 14.0769 311.55 14.0134 314.443 13.9718C314.892 14.2293 315.524 14.4257 316.695 14.5211C317.295 14.5698 318.152 14.5968 318.802 14.5576C319.382 14.5223 319.818 14.4525 320.231 14.3864C320.663 14.3172 321.072 14.2519 321.596 14.2359C322.496 14.2089 323.351 14.118 324.243 14.0248C324.568 13.9909 324.895 13.9566 325.241 13.9254C328.014 13.9438 330.769 13.9864 333.544 14.0591C334.599 14.1334 335.598 14.2044 336.425 14.2371C337.168 14.2664 337.859 14.2505 338.545 14.2231C338.974 14.2401 339.402 14.2578 339.829 14.2761C342.6 14.3963 345.352 14.5483 348.126 14.7405C350.27 14.9966 352.526 15.277 355.446 15.6355C356.71 15.7912 357.944 15.9771 359.137 16.1652C360.889 16.4415 362.541 16.7216 364.001 16.9012C364.976 17.021 365.986 17.2138 366.999 17.4143C368.349 17.6816 369.706 17.9638 370.946 18.0882C371.732 18.1676 372.456 18.2265 373.124 18.2834C374.188 18.3741 375.125 18.4629 375.949 18.6255C377.505 18.9331 378.857 19.1473 380.056 19.3472C381.49 19.5863 382.701 19.8044 383.72 20.1373C383.874 20.1877 384.052 20.2482 384.251 20.3166C385.3 20.6782 386.97 21.2574 389.429 21.8671C390.052 22.0219 390.653 22.1495 391.242 22.2698C391.482 22.3189 391.72 22.3669 391.956 22.4149C393.146 22.6571 394.301 22.9039 395.485 23.3336C395.662 23.3977 395.839 23.4861 396.001 23.5668C396.206 23.6695 396.386 23.7597 396.506 23.7717C396.857 23.8068 397.403 23.8989 397.997 24.0025C398.432 24.0785 398.894 24.1611 399.323 24.2303C402.426 25.259 405.501 26.3769 408.543 27.5818C409.936 28.1335 411.322 28.7034 412.703 29.2919C413.36 29.7055 414.031 30.1185 414.753 30.5327C415.693 31.0731 416.955 31.6907 418.559 32.51C419.743 33.1155 421.113 33.831 422.68 34.7159C425.582 36.3505 428.591 37.9784 430.522 39.0001C430.933 39.2166 431.347 39.4358 431.784 39.6685C433.45 40.5611 435.532 41.6702 439.372 43.9726C443.002 46.156 446.003 48.1435 448.246 49.66C449.381 50.4282 450.339 51.0879 451.058 51.5762C452.303 52.4217 453.812 53.4716 455.33 54.5492C457.687 56.219 460.055 57.9552 461.384 58.9098C461.86 59.2517 462.368 59.6142 462.908 60.0021C464.234 60.955 465.806 62.094 467.855 63.6584L464.391 64.0683C464.585 63.8139 464.786 63.5521 464.993 63.2824C464.995 63.2797 464.997 63.277 464.999 63.2743L465.412 66.7588C462.877 64.8148 461.338 63.5983 459.742 62.3056C459.09 61.7793 458.566 61.2612 458.022 60.7265C457.24 59.9604 456.44 59.1779 455.185 58.3088C454.892 58.1065 454.573 57.9013 454.24 57.6881C453.63 57.2977 452.964 56.8746 452.322 56.3862C452.099 56.2161 451.914 56.0508 451.733 55.889C451.533 55.711 451.338 55.5371 451.099 55.3651C450.198 54.7158 449.315 54.1022 448.532 53.563C447.511 52.8597 446.661 52.2841 446.145 51.9042C445.217 51.2199 444.175 50.5616 443.092 49.8874C442.269 49.3754 441.445 48.8696 440.651 48.348C438.399 46.8674 435.222 44.9497 431.874 43.1144C430.604 42.418 429.58 41.7564 428.253 40.9185C427.433 40.4016 426.482 39.809 425.296 39.1206C424.618 38.7274 424.009 38.4637 423.446 38.2225C422.929 38.0013 422.442 37.7947 421.978 37.5274C421.567 37.2911 421.343 37.0744 421.13 36.8687C420.893 36.6403 420.666 36.424 420.213 36.2151C419.971 36.104 419.663 35.9998 419.296 35.8775C419.151 35.8292 418.996 35.7776 418.833 35.722C418.849 35.7094 418.858 35.6956 418.864 35.6845C418.903 35.606 418.469 35.3396 418.039 35.0797C417.867 34.976 417.696 34.8732 417.558 34.7839C417.051 34.4545 416.031 33.9542 415.241 33.5905C414.908 33.4365 414.617 33.272 414.278 33.0812C413.977 32.912 413.634 32.7207 413.19 32.4998C412.936 32.3739 412.748 32.2619 412.593 32.1692C412.48 32.1022 412.385 32.0452 412.292 32.0004C412.212 31.9616 412.136 31.9556 412.051 31.9489C411.99 31.9441 411.923 31.9389 411.847 31.9209C411.663 31.8776 411.441 31.7913 411.292 31.7142C411.224 31.6786 411.172 31.6452 411.12 31.6121C411.06 31.5735 411 31.535 410.913 31.4928C410.513 31.2993 410.106 31.1554 409.683 31.0078C409.217 30.8454 408.73 30.6772 408.212 30.4348C408.049 30.3585 407.879 30.2684 407.714 30.1815C407.542 30.0904 407.374 30.0024 407.228 29.9375C406.631 29.6733 406.039 29.5038 405.494 29.3506C405.132 29.2487 404.79 29.1538 404.482 29.0427C403.916 28.8394 403.587 28.7952 403.345 28.7625C403.22 28.7457 403.118 28.7322 403.017 28.7017C402.927 28.6655 402.837 28.6286 402.748 28.5923C402.667 28.5561 402.584 28.5188 402.504 28.4906C402.498 28.4885 402.492 28.4865 402.486 28.4844C401.989 28.279 401.504 28.0719 401.02 27.8682C399.934 27.4109 398.856 26.9692 397.681 26.6026C397.428 26.5237 397.162 26.4666 396.891 26.4092C396.56 26.3389 396.221 26.2679 395.889 26.1556C395.097 25.8877 394.312 25.5815 393.533 25.2846C392.549 24.9093 391.583 24.5509 390.643 24.3055C390.465 24.259 390.288 24.2166 390.112 24.179C389.748 24.1014 389.388 24.0445 389.027 23.9888C388.826 23.9577 388.623 23.9269 388.42 23.8929C388.473 23.8649 388.506 23.8339 388.536 23.805C388.599 23.7454 388.654 23.6944 388.858 23.696C389.341 23.6996 389.898 23.6771 389.877 23.5376C389.871 23.4997 389.894 23.466 389.919 23.4323C389.98 23.348 390.043 23.2615 389.638 23.0982C389.365 22.9881 388.658 22.7151 388.178 22.6602C388.073 22.6481 388.003 22.6625 387.926 22.6784C387.786 22.7071 387.621 22.7405 387.179 22.639C387.105 22.6219 387.024 22.6028 386.941 22.5829C386.608 22.5034 386.235 22.4156 386.083 22.4292C385.909 22.4448 385.925 22.5202 385.944 22.6079C385.97 22.7223 385.998 22.8576 385.619 22.9118C385.544 22.9225 385.412 22.8984 385.313 22.8804C385.243 22.8677 385.189 22.8582 385.182 22.8654C385.173 22.8737 385.19 22.8999 385.211 22.9331C385.286 23.0505 385.415 23.2542 384.699 23.0761C384.506 23.028 384.286 22.9637 384.09 22.9063C383.799 22.8216 383.558 22.7521 383.519 22.7701C383.504 22.777 383.493 22.7856 383.483 22.795C383.249 22.7332 383.018 22.6723 382.786 22.6116C382.495 22.5066 382.074 22.4064 381.548 22.284C381.42 22.2542 381.285 22.2229 381.145 22.1902C380.683 22.0737 380.226 21.9603 379.765 21.8476C379.402 21.7503 379.016 21.6401 378.61 21.5135C377.798 21.2601 377.105 20.9914 376.421 20.7306C376.133 20.6209 375.846 20.5123 375.557 20.4084C375.675 20.4271 375.781 20.4425 375.863 20.4507C376.432 20.5077 376.678 20.4404 376.906 20.3781C377.057 20.3368 377.2 20.2979 377.421 20.3009C377.828 20.3065 377.808 20.2068 377.795 20.1328C377.787 20.0945 377.782 20.0632 377.838 20.0574C377.883 20.0528 377.981 20.0673 378.082 20.0824C378.17 20.0955 378.261 20.1091 378.32 20.1106C379.046 20.1303 378.855 20.0068 378.574 19.8259C378.42 19.7264 378.24 19.6102 378.171 19.4911C378.116 19.3689 378.149 19.3436 378.524 19.382C378.251 19.2673 377.976 19.1532 377.701 19.0396C377.588 19.0188 377.496 19.0331 377.365 19.0616C377.131 19.1124 376.424 18.9997 375.876 18.916C375.622 18.8771 375.4 18.8437 375.273 18.8335C374.599 18.7795 374.768 18.9284 374.918 19.0588C375 19.1307 375.075 19.1972 375.001 19.2216C374.969 19.2321 375.007 19.2563 375.044 19.281C375.073 19.3 375.103 19.3195 375.102 19.333C375.091 19.431 374.688 19.4239 374.314 19.4188C374.099 19.4157 373.895 19.4135 373.778 19.4306C373.742 19.4358 373.714 19.4426 373.687 19.4493C373.647 19.4592 373.609 19.4685 373.551 19.4716C373.418 19.4784 373.157 19.4499 372.87 19.419C372.723 19.4032 372.569 19.3868 372.423 19.3744C372.234 19.3582 372.159 19.3839 372.081 19.4105C372.026 19.4293 371.968 19.4486 371.868 19.4546C371.685 19.4653 371.33 19.4158 371 19.3707C370.856 19.351 370.717 19.3323 370.6 19.3196C370.553 19.3145 370.529 19.317 370.523 19.3251C369.983 19.2593 369.466 19.2003 368.961 19.1446C366.435 18.8691 364.245 18.6563 361.013 18.1142C360.399 18.0119 359.739 17.9281 359.072 17.8572C356.935 17.5441 354.804 17.2585 352.666 16.9963C352.25 16.8642 351.736 16.7372 351.13 16.6193C349.988 16.3976 348.795 16.2637 347.396 16.1168C346.352 16.0077 345.208 15.8925 343.858 15.7312C341.601 15.4615 339.276 15.2247 336.644 15.0399C334.022 14.8546 331.023 14.6987 328.899 14.617C327.727 14.5713 326.533 14.457 325.39 14.354C323.797 14.2093 322.367 14.0885 321.484 14.2077C321.206 14.2459 320.936 14.3161 320.673 14.3845C320.485 14.4332 320.3 14.4808 320.119 14.5158C319.638 14.4969 319.155 14.4787 318.67 14.461C317.814 14.3606 316.495 14.2511 315.197 14.3436C314.699 14.3283 314.208 14.3137 313.727 14.2995C312.683 14.2698 311.643 14.2425 310.618 14.2175C310.281 14.2092 309.94 14.2012 309.597 14.1934C309.594 14.1933 309.591 14.1932 309.588 14.1931C308.899 14.1775 308.195 14.1629 307.521 14.1491C307.23 14.1432 306.938 14.1375 306.646 14.132C305.906 14.118 305.147 14.1053 304.415 14.0933C304.028 14.0869 303.637 14.081 303.243 14.0752C302.606 14.0658 301.96 14.0572 301.315 14.0493C300.284 14.0364 299.258 14.0251 298.219 14.0157C298.049 14.0141 297.885 14.0023 297.765 13.982C297.644 13.9616 297.576 13.9345 297.576 13.9052C297.575 13.8759 297.643 13.846 297.763 13.8211C297.883 13.7963 298.046 13.7786 298.215 13.7708C299.254 13.7234 300.281 13.6784 301.313 13.6356C301.958 13.609 302.603 13.5831 303.241 13.5585C303.635 13.5433 304.026 13.5286 304.413 13.5142C305.145 13.4871 305.905 13.4608 306.646 13.4362C306.939 13.4265 307.23 13.4169 307.522 13.4076C308.198 13.3857 308.905 13.3649 309.596 13.3453C309.6 13.3452 309.604 13.3451 309.609 13.345C309.949 13.3353 310.288 13.326 310.623 13.317C311.65 13.2895 312.692 13.2647 313.739 13.2431C314.283 13.2313 314.838 13.2206 315.406 13.2107C315.72 13.2052 316.033 13.1999 316.34 13.1949C316.508 13.1922 316.678 13.1897 316.849 13.1873C320.767 13.1285 324.658 13.1135 328.586 13.1552C332.5 13.1966 336.422 13.2941 340.335 13.46C344.257 13.6265 348.171 13.8616 352.084 14.181C365.371 15.2617 378.663 17.3285 391.629 20.9531C402.905 24.0878 413.878 28.4136 424.328 33.7329C427.534 35.3608 430.775 37.1245 433.893 38.9236C437.045 40.7426 440.086 42.5988 443.154 44.5637C444.093 45.1652 445.032 45.7755 446.01 46.42ZM240.736 47.9553C238.204 44.8285 236.399 41.3886 234.758 37.941L238.763 37.6995C238.016 39.5179 237.059 41.244 235.975 42.8783C235.838 43.0851 235.699 43.2902 235.558 43.4937C231.354 49.4264 225.955 54.0307 220.516 58.1391C220.135 58.4219 219.758 58.7001 219.374 58.9819L217.516 60.4488L215.98 58.5038C215.783 58.235 215.586 57.9662 215.389 57.6973L213.929 55.8487L215.864 54.3211C220.774 50.6905 225.722 47.0393 229.621 42.7077C230.238 42.0143 230.824 41.2987 231.364 40.5635C234.237 36.7671 235.567 32.1681 235.557 27.255L236.825 28.8323C236.463 28.7378 236.153 28.614 235.865 28.4796C235.253 28.1888 234.752 27.8631 234.273 27.5269C234.184 27.4641 234.095 27.4001 234.009 27.3363C232.85 26.4775 231.836 25.545 230.866 24.5732C228.295 21.964 226.043 19.096 224.237 15.8968C223.4 14.3916 222.665 12.8055 222.202 11.084C222.072 10.5939 221.967 10.0929 221.896 9.58053C221.758 8.56522 221.755 7.48899 222.03 6.43556C222.407 4.8908 223.519 3.53732 224.839 2.79866C226.685 1.74978 228.705 1.51262 230.634 1.45107C230.634 1.45123 230.639 1.45107 230.644 1.4509L230.681 1.44967C231.226 1.46762 231.771 1.4856 232.317 1.50361C234.396 1.57217 236.469 1.64104 238.547 1.71015C240.097 1.76184 241.647 1.81352 243.198 1.86521C243.413 1.8725 243.62 1.90206 243.772 1.94898C243.924 1.99599 244.01 2.05617 244.01 2.11836C244.009 2.18059 243.923 2.2409 243.77 2.28773C243.618 2.33444 243.411 2.36359 243.195 2.37059C241.632 2.42066 240.068 2.47072 238.505 2.52078C236.769 2.57631 235.035 2.63194 233.299 2.68711C233.026 2.43187 232.651 2.23828 231.948 2.15278C231.589 2.10917 231.066 2.09104 230.681 2.13846C230.689 2.13817 230.689 2.13817 230.689 2.13817C230.685 2.1391 230.68 2.14004 230.675 2.14098C230.34 2.20333 230.093 2.29921 229.861 2.39374C229.615 2.49446 229.386 2.59341 229.087 2.66292C228.58 2.7818 228.118 2.98468 227.666 3.22527C227.502 3.31296 227.339 3.40592 227.175 3.50283C226.654 3.69744 226.163 3.93738 225.729 4.2296C224.985 4.72794 224.428 5.38347 224.13 6.15242C224.013 6.386 223.923 6.62593 223.861 6.86152C223.802 7.08125 223.767 7.29711 223.753 7.49934C223.727 7.87607 223.785 8.23194 223.88 8.57741C223.906 8.79756 223.942 9.01913 223.987 9.24132C224.069 9.64597 224.181 10.0521 224.316 10.456C224.659 11.483 225.143 12.4928 225.699 13.4707C225.878 13.8624 226.074 14.2582 226.293 14.6682C226.698 15.4232 227.182 16.2281 227.817 17.1358C228.239 17.739 228.656 18.3379 229.072 18.9049C229.685 19.7421 230.298 20.51 230.909 21.1117C231.318 21.5137 231.711 21.9707 232.114 22.4166C232.245 22.5619 232.377 22.7059 232.51 22.8457C232.928 23.2852 233.365 23.692 233.83 23.9908C234.215 24.2384 234.584 24.4405 234.926 24.6155C235.283 24.798 235.611 24.9515 235.9 25.0984C236.053 25.1758 236.195 25.2515 236.326 25.3289C236.602 25.4919 236.868 25.6182 237.102 25.6993C237.275 25.7594 237.435 25.7936 237.556 25.8015L238.678 26.0995L238.674 27.194C238.702 27.4565 238.727 27.7014 238.75 27.9439C238.834 28.8499 238.871 29.6235 238.744 30.2917C238.724 30.3927 238.7 30.5077 238.67 30.6382C238.513 31.3243 238.263 32.4046 238.001 33.9847C237.906 34.5483 237.844 35.088 237.765 35.618C237.649 36.3885 237.497 37.1434 237.146 37.8753C237.093 37.9845 237.017 38.0894 236.947 38.1841C236.858 38.3046 236.78 38.4083 236.773 38.4875C236.752 38.7201 236.681 39.0749 236.592 39.4592C236.527 39.7418 236.453 40.0401 236.386 40.3201C235.912 41.2394 235.383 42.1243 234.813 42.9742C234.219 43.8611 233.578 44.7122 232.912 45.5258C232.314 46.2556 231.691 46.9601 231.056 47.6399C230.643 47.9011 230.226 48.1727 229.809 48.471C229.261 48.8625 228.618 49.4312 227.774 50.1364C227.153 50.6555 226.423 51.2484 225.545 51.8952C223.922 53.0924 222.326 54.3905 221.333 55.2524C221.122 55.4355 220.911 55.6195 220.686 55.8154C220.111 56.3144 219.438 56.8944 218.428 57.7263L218.794 55.1331C218.99 55.3713 219.201 55.6282 219.428 55.9071L216.777 55.5336C217.079 55.2873 217.398 55.0275 217.752 54.7386C219.694 53.1559 221.341 51.825 222.555 50.808C223.174 50.2903 223.685 49.8523 224.065 49.5112C224.718 48.926 225.515 48.2041 226.289 47.4653C227.504 46.311 228.648 45.1008 229.245 44.384C229.459 44.1295 229.678 43.8592 229.909 43.5639C230.459 42.8576 231.089 42.0136 231.83 40.8885C231.945 40.7136 232.062 40.5317 232.181 40.3421C233.102 38.8589 233.589 37.919 234.087 36.929C234.231 36.6364 234.393 36.3805 234.561 36.1262L236.458 31.2967L238.741 35.8742C238.775 35.9952 238.807 36.1158 238.839 36.2368C239.007 36.8638 239.188 37.5183 239.662 38.2762C239.774 38.4535 239.903 38.6344 240.039 38.8239C240.29 39.1714 240.563 39.5423 240.787 39.9559C240.864 40.0991 240.917 40.2371 240.969 40.3708C241.025 40.5172 241.082 40.663 241.172 40.8097C241.508 41.3596 241.855 41.8805 242.17 42.3371C242.576 42.9265 242.929 43.4084 243.129 43.7215C243.485 44.2802 243.952 44.8328 244.439 45.3756C244.812 45.7906 245.196 46.2008 245.55 46.6126C245.681 46.7647 245.821 46.9224 245.969 47.0841C246.962 48.1772 248.339 49.4515 249.866 50.6526C250.529 51.1751 251.037 51.6831 251.705 52.3294C252.121 52.7309 252.598 53.1846 253.221 53.7222C253.573 54.0264 253.92 54.2259 254.24 54.4086C254.536 54.5779 254.811 54.7337 255.052 54.9463C255.266 55.135 255.354 55.3146 255.44 55.4865C255.535 55.6783 255.622 55.8562 255.874 56.0228C255.986 56.0962 256.132 56.1641 256.305 56.2407L253.709 56.6186C253.724 56.5851 253.739 56.5506 253.755 56.5152C253.793 56.4288 253.833 56.3367 253.878 56.2402C253.889 56.2554 253.901 56.2663 253.911 56.2738C253.936 56.2926 253.98 56.277 254.036 56.2394C254.136 56.1738 254.275 56.0358 254.413 55.8987L254.765 58.3069C254.763 58.3052 254.762 58.3034 254.76 58.3016C254.673 58.214 254.586 58.1272 254.519 58.0516C254.271 57.7724 253.726 57.3481 253.3 57.0294C253.12 56.8947 252.975 56.7501 252.805 56.5803C252.654 56.4295 252.485 56.2597 252.257 56.0597C252.127 55.9462 252.036 55.8434 251.963 55.7594C251.91 55.6984 251.865 55.6471 251.817 55.6052C251.776 55.5693 251.726 55.562 251.669 55.5538C251.629 55.548 251.585 55.5416 251.538 55.5237C251.428 55.4812 251.307 55.3985 251.233 55.3263C251.199 55.2929 251.176 55.2621 251.153 55.2315C251.126 55.1957 251.1 55.1604 251.056 55.1202C250.853 54.9361 250.629 54.7934 250.396 54.6436C250.139 54.4786 249.872 54.3046 249.617 54.0608C249.536 53.9836 249.457 53.8938 249.38 53.8069C249.301 53.7163 249.222 53.6268 249.15 53.5595C248.855 53.2858 248.526 53.0866 248.225 52.9008C248.024 52.7768 247.835 52.6587 247.677 52.529C247.388 52.2912 247.189 52.2114 247.041 52.1518C246.964 52.1211 246.902 52.0959 246.849 52.0565C246.806 52.014 246.762 51.9703 246.72 51.9273C246.683 51.8857 246.645 51.8426 246.604 51.8074C246.601 51.8048 246.598 51.8023 246.595 51.7996C246.361 51.5562 246.139 51.3087 245.92 51.0608C245.43 50.5031 244.958 49.9428 244.405 49.3993C244.286 49.2821 244.148 49.1783 244.008 49.0716C243.966 49.0399 243.924 49.0078 243.882 48.9751C243.753 48.8734 243.625 48.7646 243.516 48.6376C243.17 48.2373 242.863 47.7976 242.569 47.3606C242.127 46.7037 241.716 46.0516 241.232 45.534C241.071 45.3629 240.902 45.2058 240.732 45.0464C240.637 44.9572 240.542 44.8688 240.45 44.7758C240.499 44.7744 240.539 44.764 240.577 44.7542C240.653 44.734 240.719 44.717 240.835 44.7857C241.108 44.9494 241.443 45.1095 241.526 45.0045C241.548 44.9759 241.584 44.9595 241.621 44.9435C241.713 44.9035 241.805 44.8611 241.687 44.6202C241.606 44.4573 241.395 44.042 241.168 43.8452C241.118 43.8022 241.07 43.7886 241.015 43.7733C240.918 43.7453 240.803 43.714 240.631 43.4928C240.602 43.4555 240.571 43.4145 240.54 43.3725C240.415 43.2046 240.275 43.0132 240.184 42.9689C240.078 42.9172 240.033 42.9727 239.98 43.0377C239.911 43.1222 239.829 43.224 239.584 43.1204C239.535 43.0998 239.481 43.0349 239.44 42.9866C239.412 42.9524 239.39 42.9262 239.38 42.9282C239.37 42.9305 239.36 42.9538 239.347 42.9835C239.302 43.0877 239.223 43.2729 238.966 42.8846C238.897 42.7796 238.827 42.655 238.765 42.5418C238.672 42.3744 238.598 42.238 238.563 42.2338C238.55 42.2326 238.538 42.2336 238.526 42.2357C238.449 42.1053 238.373 41.9752 238.297 41.845C238.224 41.6623 238.082 41.4333 237.906 41.1431C237.864 41.0734 237.819 40.9995 237.773 40.9221C237.629 40.662 237.486 40.402 237.346 40.1426C237.242 39.9316 237.14 39.7043 237.042 39.4566C236.849 38.963 236.733 38.5033 236.626 38.0587C236.58 37.8702 236.535 37.6841 236.487 37.4978C236.526 37.5602 236.562 37.6155 236.593 37.6562C236.808 37.9361 236.979 38.0043 237.134 38.0651C237.237 38.1061 237.335 38.1457 237.437 38.2417C237.623 38.4171 237.694 38.3501 237.746 38.3016C237.773 38.2763 237.796 38.2561 237.827 38.2759C237.851 38.2916 237.886 38.3418 237.922 38.3931C237.953 38.4379 237.985 38.4839 238.013 38.5097C238.341 38.8218 238.348 38.6684 238.359 38.4484C238.364 38.3268 238.372 38.1839 238.434 38.0861C238.506 37.9921 238.541 37.992 238.687 38.1685C238.649 37.9892 238.612 37.8096 238.576 37.6311C238.54 37.5725 238.486 37.5424 238.402 37.5039C238.254 37.436 238.02 37.0752 237.841 36.7949C237.758 36.6644 237.685 36.5491 237.637 36.4897C237.381 36.1694 237.335 36.3237 237.295 36.4616C237.273 36.5372 237.252 36.6069 237.199 36.5884C237.176 36.5805 237.173 36.6102 237.17 36.6402C237.168 36.6634 237.165 36.6871 237.153 36.694C237.069 36.7443 236.893 36.5644 236.731 36.3961C236.639 36.3008 236.55 36.209 236.484 36.1665C236.464 36.1536 236.446 36.1445 236.429 36.1361C236.403 36.1239 236.379 36.1118 236.35 36.0875C236.336 36.0753 236.321 36.0593 236.304 36.0401L236.13 35.6747L236.243 35.3315C236.246 35.2468 236.264 35.1259 236.282 34.9964C236.294 34.9112 236.306 34.8221 236.314 34.7373C236.324 34.6272 236.296 34.5792 236.268 34.529C236.247 34.4935 236.227 34.4566 236.217 34.3964C236.2 34.2874 236.235 34.086 236.263 33.8984C236.276 33.8167 236.288 33.7378 236.294 33.6704C236.297 33.643 236.293 33.6287 236.285 33.6239C236.322 33.3145 236.349 33.0182 236.37 32.7296C236.468 31.2789 236.466 30.0389 236.585 28.1564C236.603 27.8681 236.601 27.5612 236.587 27.2487L236.592 25.9229L237.812 25.6434C237.847 25.6327 237.885 25.6191 237.925 25.603C238.017 25.5782 238.121 25.5424 238.227 25.4983C238.592 25.3466 239.009 25.1099 239.417 24.8472C239.86 24.5616 240.305 24.2399 240.742 23.9009C240.985 23.8143 241.263 23.6765 241.569 23.4832C242.017 23.2004 242.435 22.8575 242.883 22.4542C243.01 22.3396 243.141 22.2187 243.275 22.0932C243.722 21.675 244.21 21.2001 244.791 20.6514C245.766 19.7291 246.723 18.726 247.69 17.5061C248.485 16.5064 249.305 15.3342 249.902 14.3408C250.03 14.1288 250.149 13.9253 250.257 13.7344C250.591 13.1434 250.98 12.5443 251.314 11.9653C251.751 11.2119 252.087 10.4871 252.13 9.96602C252.133 9.92607 252.135 9.88743 252.135 9.8502C252.135 9.68306 252.099 9.51467 252.061 9.3542C252.033 9.23982 252.004 9.12883 251.986 9.02341C252.047 8.76393 252.097 8.50299 252.133 8.24284C252.268 7.79314 252.373 7.03467 252.113 6.39819C252.096 6.30599 252.076 6.21439 252.053 6.12428C252.012 5.96531 251.963 5.81047 251.906 5.66251C251.711 5.15706 251.417 4.70402 251.031 4.31208C250.906 4.18402 250.769 4.06139 250.625 3.94609C250.623 3.94499 250.622 3.94388 250.621 3.94278C250.361 3.73571 250.073 3.55129 249.773 3.39121C249.736 3.37195 249.7 3.35289 249.663 3.33407C249.517 3.26001 249.367 3.1909 249.215 3.12637C248.827 2.9624 248.417 2.8278 248.006 2.71834C247.788 2.66032 247.565 2.6085 247.339 2.56235C246.974 2.48749 246.601 2.42763 246.225 2.38026C245.62 2.30386 245.009 2.25935 244.395 2.23748C244.295 2.23385 244.198 2.22071 244.126 2.19965C244.055 2.17856 244.013 2.15128 244.013 2.12197C244.012 2.09268 244.052 2.06303 244.124 2.03883C244.195 2.01472 244.292 1.99834 244.393 1.99256C245.013 1.9576 245.635 1.94592 246.261 1.96807C246.648 1.98191 247.036 2.00873 247.422 2.05234C247.66 2.07925 247.896 2.11262 248.131 2.15289C248.573 2.22902 249.022 2.33361 249.459 2.47477C249.631 2.53029 249.801 2.59154 249.97 2.65928C250.012 2.67606 250.053 2.69318 250.094 2.71061C250.447 2.86008 250.795 3.04202 251.122 3.25921C251.124 3.26067 251.127 3.26213 251.129 3.2636C251.308 3.38309 251.482 3.51369 251.646 3.6536C252.151 4.08464 252.575 4.62218 252.874 5.24015C252.962 5.41876 253.04 5.60702 253.107 5.80054C253.16 5.95224 253.206 6.10702 253.245 6.26269C253.295 6.45994 253.334 6.65915 253.364 6.85537C253.38 6.96256 253.393 7.07183 253.404 7.18138C253.505 8.22577 253.374 9.25903 253.14 10.2462C252.804 11.6467 252.262 12.9691 251.633 14.2415C251.49 14.5291 251.342 14.8136 251.19 15.0957C250.196 16.9344 249.029 18.6659 247.763 20.3124C246.745 21.6335 245.659 22.9019 244.495 24.1096C243.983 24.6403 243.456 25.1589 242.905 25.6626C242.32 26.1964 241.713 26.7141 241.05 27.2031C240.573 27.5523 240.075 27.889 239.477 28.1876C239.195 28.3264 238.893 28.4517 238.548 28.5475L239.582 27.1916C239.725 30.1192 239.517 33.1463 238.701 36.0798L238.597 34.8797C240.881 39.1012 243.441 43.1042 246.655 46.4622C249.712 49.6907 253.378 52.3977 257.146 55.1127L258.947 56.392L257.609 58.2778C257.511 58.4133 257.414 58.5488 257.317 58.6843C257.218 58.8216 257.12 58.9567 257.023 59.0918L255.733 60.9052L253.834 59.5561C253.29 59.1643 252.746 58.7696 252.202 58.3706C250.46 57.0909 248.679 55.7318 246.987 54.293C245.458 52.9932 243.998 51.6247 242.613 50.1252C242.45 49.9479 242.287 49.7686 242.125 49.5875C241.66 49.0681 241.197 48.5249 240.736 47.9553ZM230.532 16.821C231.731 18.2713 232.654 19.9277 234.01 21.2698C234.065 21.3246 234.121 21.3785 234.178 21.432C235.047 22.2466 236.043 22.9566 236.988 23.4756C237.327 23.6605 237.675 23.8226 237.905 23.8928C237.933 23.8995 237.963 23.9062 238.004 23.9164L234.78 26.2812C234.774 26.1913 234.77 26.146 234.767 26.1448L234.514 23.9032L237.048 23.6186C237.38 23.5842 237.712 23.5539 238.044 23.5296L240.319 23.274L240.609 25.8453C240.616 25.9553 240.619 26.0306 240.622 26.0698L237.347 23.8793C237.413 23.8538 237.435 23.843 237.455 23.8339C237.557 23.7862 237.697 23.7146 237.845 23.6344C238.009 23.5454 238.185 23.4407 238.364 23.3273C239.369 22.6855 240.42 21.8374 241.423 20.9568C242.084 20.3749 242.734 19.7664 243.368 19.1405C245.138 17.3857 246.808 15.4993 248.233 13.4733C248.252 13.4473 248.27 13.4213 248.288 13.3954C249.15 12.1523 249.926 10.8471 250.44 9.49699C250.748 8.67905 250.954 7.83981 250.937 7.05569C250.932 6.86033 250.913 6.66931 250.878 6.48436C250.732 5.6431 250.164 4.91186 249.294 4.4017C248.97 4.20785 248.613 4.04282 248.242 3.90299C247.552 3.64419 246.812 3.46848 246.056 3.34331C245.492 3.25006 244.919 3.18573 244.342 3.14213C244.261 3.13598 244.185 3.10793 244.127 3.06234C244.069 3.01666 244.035 2.95741 244.033 2.89523C244.032 2.83303 244.063 2.77182 244.12 2.72366C244.177 2.67563 244.253 2.64495 244.336 2.63678C244.929 2.57847 245.527 2.54131 246.132 2.53605C246.803 2.53073 247.483 2.56328 248.171 2.66519C248.22 2.93878 248.315 3.15898 248.548 3.31472C248.667 3.39441 248.848 3.47129 249.002 3.47618C249.141 3.48043 249.261 3.44573 249.378 3.41571C249.5 3.3839 249.621 3.35726 249.747 3.38846C249.755 3.39037 249.763 3.39221 249.771 3.39398C249.979 3.44186 250.207 3.44428 250.455 3.46665C250.548 3.47512 250.644 3.48649 250.742 3.50458C251.383 3.87154 251.992 4.42272 252.407 5.11549C252.526 5.40326 252.606 5.67179 252.686 5.89206C252.69 5.90321 252.694 5.91426 252.699 5.92525C252.769 6.10919 252.861 6.27158 252.958 6.4375C252.988 6.5545 253.015 6.67138 253.038 6.78846C253.185 7.54483 253.186 8.28868 253.118 8.999C253.01 9.36481 252.884 9.72763 252.736 10.134C252.667 10.3247 252.593 10.5248 252.513 10.7387C252.405 11.0275 252.267 11.2977 252.129 11.5516C251.926 11.9269 251.723 12.2664 251.612 12.5935C251.537 12.8125 251.399 13.0147 251.259 13.2123C251.071 13.4776 250.88 13.7352 250.826 14.0357C250.792 14.2247 250.775 14.4076 250.758 14.577C250.749 14.664 250.74 14.747 250.729 14.826C250.706 14.9916 250.672 15.1388 250.607 15.2547C250.426 15.5773 250.325 15.8889 250.231 16.1649C250.12 16.4956 250.02 16.7736 249.816 16.936C249.785 16.9606 249.748 16.9876 249.706 17.0177C249.483 17.1764 249.13 17.4248 248.852 17.9438C248.752 18.1288 248.697 18.3308 248.641 18.529C248.559 18.8172 248.477 19.0979 248.26 19.298C248.228 19.3279 248.176 19.3453 248.13 19.361C248.07 19.381 248.018 19.3983 248.022 19.4357C248.032 19.5454 248.019 19.6968 248.004 19.8616C247.993 19.9827 247.98 20.1112 247.975 20.2355C247.527 20.8502 247.064 21.4527 246.583 22.0438C246.363 22.3143 246.139 22.5832 245.911 22.8491C245.705 22.9004 245.504 22.9617 245.315 23.0451C245.067 23.1554 244.818 23.3652 244.492 23.6315C244.41 23.6982 244.324 23.7682 244.232 23.8401C244.052 23.9814 243.849 24.133 243.615 24.2879C242.96 24.7223 242.378 25.2666 242.019 25.6513C241.943 25.733 241.867 25.8149 241.785 25.9031C241.556 26.1463 241.286 26.4338 240.804 26.8469C240.623 27 240.413 27.1701 240.148 27.3597C239.892 27.5424 239.627 27.7119 239.329 27.8677C239.16 27.9547 238.992 28.0267 238.86 28.08L236.127 28.8848L236.162 26.2755C236.154 26.1774 236.148 26.1116 236.143 26.0746L238.271 27.9955C237.899 28.0321 237.565 28.0589 237.275 28.0818L239.23 25.9156C239.232 25.9493 239.234 25.9771 239.235 25.9996C239.238 26.0381 239.239 26.0608 239.241 26.0684L239.209 29.3011L236.462 28.1068C236.338 28.0641 236.212 28.0157 236.094 27.9661C235.885 27.8788 235.722 27.8012 235.585 27.7375C235.242 27.5779 234.875 27.3748 234.52 27.1586C234.467 27.1261 234.413 27.0927 234.36 27.0597C233.73 26.6658 233.156 26.2474 232.818 26.0254C232.698 25.9466 232.571 25.8651 232.435 25.7763C232.059 25.5303 231.61 25.2269 231.049 24.7535C230.98 24.6957 230.916 24.64 230.854 24.5855C230.388 24.1721 230.11 23.853 229.844 23.5055C229.722 23.345 229.67 23.1512 229.619 22.9514C229.545 22.6674 229.473 22.3734 229.198 22.1391C229.134 22.0843 229.057 22.0341 228.976 21.9809C228.827 21.8834 228.667 21.7768 228.557 21.6199C228.519 21.5652 228.5 21.5038 228.481 21.4436C228.461 21.3772 228.442 21.3127 228.397 21.2588C228.23 21.0575 228.061 20.8684 227.911 20.6991C227.718 20.4806 227.558 20.2953 227.48 20.163C227.342 19.9271 227.129 19.7194 226.914 19.5055C226.751 19.3424 226.586 19.1757 226.455 18.9928C226.081 18.4702 225.506 17.7955 224.901 17.0862C224.672 16.8176 224.563 16.5331 224.43 16.1679C224.394 16.0685 224.356 15.9632 224.314 15.8506C224.26 15.7043 224.198 15.5453 224.124 15.3697C224.049 15.1932 223.923 15.0787 223.807 14.971C223.7 14.8715 223.601 14.7779 223.56 14.6494C223.524 14.536 223.57 14.4281 223.614 14.3266C223.663 14.2133 223.711 14.1081 223.64 14.0068C223.603 13.9531 223.527 13.9023 223.437 13.8412C223.401 13.8168 223.363 13.7906 223.325 13.7622C223.342 13.7561 223.357 13.7495 223.368 13.7441C223.448 13.706 223.435 13.573 223.423 13.4425C223.419 13.3904 223.415 13.3388 223.416 13.2937C223.422 13.1286 223.32 12.8695 223.233 12.6731C223.196 12.59 223.19 12.5034 223.183 12.4026C223.177 12.3129 223.171 12.2121 223.144 12.0912C223.129 12.0222 223.133 11.9627 223.138 11.9139C223.141 11.8785 223.144 11.8482 223.138 11.8232C223.133 11.8016 223.104 11.7937 223.07 11.7847C223.046 11.7783 223.02 11.7711 223 11.7579C222.952 11.7261 222.922 11.6738 222.918 11.6306C222.917 11.6106 222.921 11.593 222.925 11.5755C222.93 11.5552 222.935 11.5349 222.931 11.5109C222.913 11.4001 222.851 11.307 222.789 11.2087C222.738 11.1293 222.687 11.0463 222.656 10.9499C222.645 10.9143 222.637 10.8771 222.633 10.8378C222.628 10.7918 222.632 10.7392 222.637 10.689C222.642 10.6366 222.646 10.585 222.64 10.5443C222.617 10.3788 222.519 10.2418 222.43 10.1108C222.371 10.0238 222.317 9.93999 222.292 9.85637C222.246 9.70307 222.157 9.63063 222.092 9.57638C222.058 9.5482 222.03 9.52465 222.018 9.49728C222.016 9.47074 222.014 9.44401 222.013 9.41742C222.015 9.39255 222.017 9.36691 222.012 9.34392C222.011 9.34218 222.011 9.34049 222.01 9.33876C222.007 9.18949 222.015 9.04128 222.026 8.89302C222.052 8.55964 222.093 8.23306 222.068 7.87702C222.063 7.80004 222.035 7.72065 222.008 7.63759C221.974 7.53649 221.942 7.42964 221.955 7.32378C221.986 7.07161 222.076 6.81959 222.18 6.57786C222.194 6.54508 222.208 6.51253 222.223 6.48022C222.369 6.15094 222.528 5.84537 222.588 5.51638C222.61 5.39669 222.619 5.27163 222.633 5.14452C222.641 5.07381 222.65 5.00213 222.664 4.93148C222.693 4.96415 222.723 4.98946 222.751 5.01298C222.81 5.0614 222.859 5.10282 222.878 5.18308C222.922 5.37377 223.017 5.59021 223.142 5.62712C223.175 5.63743 223.209 5.657 223.243 5.67684C223.328 5.72697 223.415 5.77532 223.505 5.69016C223.567 5.63132 223.719 5.49066 223.721 5.34421C223.721 5.31197 223.702 5.28067 223.682 5.24546C223.645 5.18238 223.602 5.10536 223.658 4.98949C223.668 4.97008 223.679 4.94938 223.69 4.92817C223.737 4.84336 223.793 4.75116 223.778 4.6872C223.759 4.61337 223.7 4.57826 223.629 4.53848C223.538 4.48617 223.426 4.42748 223.381 4.24622C223.372 4.21031 223.391 4.17069 223.406 4.14088C223.417 4.11981 223.425 4.10385 223.419 4.09673C223.413 4.08865 223.392 4.08042 223.365 4.07025C223.273 4.03454 223.103 3.97395 223.264 3.7797C223.308 3.72805 223.367 3.6762 223.419 3.63164C223.497 3.56526 223.563 3.51374 223.552 3.48636C223.548 3.47609 223.542 3.46603 223.536 3.45604C223.596 3.40206 223.657 3.34926 223.718 3.29847C223.816 3.25373 223.92 3.15871 224.055 3.047C224.088 3.02014 224.123 2.99218 224.159 2.96375C224.284 2.87706 224.412 2.79497 224.538 2.7191C224.601 2.68736 224.665 2.6589 224.735 2.6327C224.784 2.61458 224.835 2.59798 224.889 2.58328C225.146 2.51341 225.392 2.51725 225.624 2.53187C225.721 2.53831 225.817 2.5464 225.911 2.55232C225.884 2.57049 225.86 2.58836 225.843 2.60565C225.726 2.72489 225.723 2.85833 225.721 2.97976C225.721 3.0606 225.721 3.13651 225.69 3.20162C225.636 3.32082 225.69 3.3984 225.73 3.45589C225.75 3.48572 225.766 3.51031 225.763 3.53201C225.76 3.54944 225.742 3.567 225.723 3.58521C225.706 3.60108 225.689 3.6176 225.682 3.63454C225.596 3.84172 225.686 3.88222 225.807 3.94629C225.874 3.98135 225.951 4.0246 226.018 4.10378C226.086 4.18969 226.094 4.22033 226.044 4.29763C226.126 4.31283 226.207 4.32924 226.286 4.34778C226.306 4.33344 226.308 4.29526 226.306 4.23409C226.303 4.12476 226.429 4.02248 226.53 3.94702C226.578 3.91154 226.618 3.88175 226.639 3.85668C226.747 3.7244 226.665 3.63723 226.591 3.56117C226.55 3.51926 226.511 3.48103 226.511 3.4391C226.511 3.42119 226.496 3.40984 226.48 3.39829C226.468 3.38935 226.455 3.38032 226.45 3.36798C226.41 3.2782 226.47 3.17381 226.53 3.07729C226.564 3.02232 226.597 2.96978 226.61 2.92329C226.613 2.90913 226.615 2.89535 226.617 2.88204C226.62 2.86262 226.622 2.84412 226.631 2.82601C226.649 2.78486 226.705 2.74135 226.765 2.69523C226.796 2.67154 226.829 2.64692 226.86 2.62096C226.899 2.58749 226.903 2.54536 226.908 2.50106C226.911 2.46978 226.915 2.43747 226.931 2.40658C226.962 2.35047 227.044 2.30807 227.122 2.26938C227.155 2.2527 227.188 2.23654 227.215 2.22025C227.226 2.21362 227.23 2.20557 227.228 2.1964C227.354 2.12832 227.475 2.06389 227.594 2.00247C228.184 1.69889 228.724 1.46399 229.544 1.46779C229.699 1.46908 229.862 1.44926 230.025 1.42057C230.225 1.41793 230.42 1.4187 230.617 1.42204L230.709 1.41939C231.014 1.44409 231.318 1.46924 231.623 1.4948C231.719 1.5833 231.837 1.65763 231.976 1.71596C232.238 1.82547 232.507 1.84887 232.825 1.8765C233.06 1.89693 233.321 1.91974 233.626 1.98129C234.137 2.08473 234.663 2.17222 235.256 2.21769C235.846 2.26296 236.522 2.29633 237 2.30816C237.261 2.31463 237.534 2.3938 237.79 2.46749C238.149 2.57114 238.471 2.66403 238.667 2.52933C238.73 2.48628 238.791 2.41154 238.85 2.33893C238.892 2.28722 238.933 2.23672 238.974 2.19911C239.082 2.21079 239.191 2.22234 239.299 2.23414C239.491 2.32391 239.79 2.42015 240.08 2.32005C240.191 2.33242 240.303 2.34473 240.411 2.35721C240.647 2.38333 240.877 2.40978 241.11 2.43641C241.185 2.44522 241.262 2.45405 241.339 2.46292C241.34 2.46302 241.34 2.46312 241.341 2.46322C241.496 2.48108 241.652 2.49905 241.805 2.51714C241.871 2.52486 241.936 2.53258 242.002 2.54029C242.169 2.55988 242.337 2.57953 242.502 2.59939C242.589 2.60995 242.677 2.62043 242.766 2.63107C242.909 2.64834 243.054 2.6657 243.198 2.68317C243.43 2.71141 243.661 2.73998 243.893 2.76877C243.931 2.77353 243.968 2.78847 243.994 2.81111C244.021 2.8338 244.036 2.86223 244.036 2.89154C244.036 2.92085 244.021 2.94936 243.994 2.97196C243.967 2.99448 243.931 3.00906 243.893 3.01369C243.661 3.0417 243.429 3.0694 243.197 3.09686C243.053 3.11383 242.908 3.13096 242.765 3.14773C242.676 3.15807 242.588 3.16824 242.501 3.1785C242.336 3.19779 242.167 3.21706 242.001 3.23607C241.935 3.24359 241.869 3.2511 241.804 3.25862C241.65 3.27622 241.494 3.29365 241.339 3.31101C241.338 3.31112 241.337 3.31122 241.336 3.31132C241.26 3.31986 241.183 3.32842 241.108 3.33691C240.875 3.36275 240.645 3.38836 240.409 3.41367C240.287 3.42734 240.161 3.44069 240.035 3.45419C239.965 3.46171 239.895 3.46926 239.826 3.47673C239.788 3.48071 239.75 3.48465 239.712 3.48861C238.833 3.58228 237.961 3.67239 237.081 3.75882C236.203 3.84526 235.325 3.92813 234.449 4.00771C233.57 4.08729 232.694 4.16343 231.816 4.23649C231.447 4.26723 231.078 4.2976 230.709 4.3276L230.785 4.3254C229.203 4.5531 227.621 4.99107 226.663 5.73286C226.054 6.21167 225.817 6.67986 225.738 7.2984C225.65 7.99814 225.83 8.94696 226.185 9.90152C226.518 10.8042 226.987 11.7247 227.524 12.6251C227.713 12.9414 227.913 13.2601 228.12 13.5767C228.319 13.8799 228.525 14.1811 228.733 14.4766C229.165 15.0875 229.611 15.6766 230.084 16.2697C230.228 16.4498 230.377 16.6335 230.532 16.821ZM151.484 3.04662C160.705 4.0685 169.495 5.70421 178.701 7.03384L180.738 7.29847L180.466 9.39251C180.458 9.44496 180.451 9.49743 180.443 9.54992C180.427 9.66246 180.411 9.77503 180.395 9.88763C180.371 10.0529 180.348 10.2176 180.324 10.3824L180.059 12.4193L177.965 12.1473C166.753 10.5535 155.316 9.47268 144.13 8.20133C132.669 6.90036 121.188 5.85143 109.688 5.30463C98.1834 4.75713 86.6808 4.72883 75.1859 5.45896C63.7185 6.17816 52.2636 7.67325 40.9426 9.87687C33.255 11.3687 25.609 13.1781 18.0265 15.2175C14.7022 16.1115 11.3801 17.0524 8.09015 18.0232C5.58844 18.7625 3.18877 19.4912 0.696525 20.2697C0.582346 20.3054 0.46885 20.3382 0.358767 20.3676L0.24051 20.4091L0.197797 20.2875C0.150785 20.1115 0.113024 19.9444 0.0874728 19.7975C0.0811096 19.7608 0.0755196 19.7254 0.0707337 19.6914C0.034973 19.437 0.0467175 19.2827 0.105793 19.2633C0.164943 19.2439 0.267772 19.3609 0.392783 19.5863C0.408992 19.6156 0.425402 19.6464 0.441952 19.6785C0.510219 19.811 0.580926 19.967 0.649657 20.1357L0.207323 19.9156C0.31425 19.8723 0.426129 19.8297 0.540274 19.7891C3.02284 18.9065 5.41626 18.073 7.91135 17.2295C10.6289 16.3098 13.3971 15.4028 16.1223 14.5417C16.6228 14.6604 17.2898 14.6653 18.4359 14.4231C19.0219 14.2992 19.8608 14.0783 20.4602 13.8597C20.9986 13.6633 21.3908 13.4746 21.7643 13.2954C22.1616 13.1061 22.5385 12.9271 23.0405 12.763C23.8924 12.4845 24.6818 12.1587 25.5092 11.8204C25.8103 11.6973 26.1167 11.5725 26.4328 11.4478C29.1032 10.6911 31.7393 9.97803 34.4284 9.29056C35.473 9.07186 36.4226 8.87603 37.2333 8.68201C37.9621 8.50763 38.6186 8.30667 39.2689 8.09583C39.6848 7.99692 40.1004 7.89903 40.5156 7.80219C43.1975 7.17696 45.8939 6.58974 48.6063 6.04308C50.7382 5.72289 52.9733 5.40102 55.8768 4.9796C57.1257 4.79887 58.3693 4.65302 59.5612 4.52153C61.3228 4.32701 62.9799 4.1629 64.4257 3.95099C65.3916 3.80931 66.4192 3.72704 67.4393 3.65185C68.8085 3.55072 70.1766 3.46132 71.4072 3.2474C72.1815 3.11278 72.8855 2.9748 73.5426 2.84873C74.5869 2.64832 75.5032 2.47886 76.341 2.40951C77.9105 2.27977 79.2592 2.11138 80.459 1.96874C81.9058 1.79722 83.1039 1.66493 84.1722 1.69332C84.3339 1.69766 84.5192 1.70492 84.7279 1.71352C85.8306 1.75927 87.5862 1.83549 90.0947 1.68941C90.9884 1.63758 91.84 1.54402 92.6578 1.45574C93.8478 1.32733 95.0109 1.20907 96.2646 1.24977C96.4518 1.25588 96.6476 1.28454 96.826 1.31087C97.0528 1.34435 97.2511 1.37384 97.3685 1.34771C97.7146 1.27104 98.2481 1.18677 98.8368 1.09704C99.2684 1.03108 99.7272 0.962115 100.151 0.890265C103.409 0.871359 106.628 0.901597 109.864 0.975944C111.337 1.00967 112.832 1.05344 114.321 1.10581C115.066 1.25515 115.83 1.39611 116.643 1.51673C117.697 1.67399 119.122 1.78353 120.876 1.93304C122.177 2.04374 123.702 2.17892 125.496 2.38008C128.734 2.74502 132.168 3.00475 134.304 3.12571C134.762 3.15161 135.224 3.17736 135.719 3.20543C137.63 3.31669 139.888 3.4412 144.362 3.8216C148.5 4.17384 152.087 4.5703 154.736 4.87202C156.096 5.02694 157.264 5.16405 158.104 5.25496C159.569 5.41381 161.383 5.62304 163.228 5.84251C166.087 6.18147 168.926 6.53356 170.586 6.71853C171.18 6.78465 171.776 6.8478 172.426 6.91777C174.051 7.09267 175.991 7.30463 178.613 7.64168L175.819 9.73244C175.84 9.56992 175.861 9.40489 175.883 9.23726C175.899 9.11467 175.915 8.98999 175.931 8.86388C175.937 8.82301 175.942 8.78235 175.947 8.74188L178.051 11.5526C174.915 11.1408 173.002 10.8457 171.031 10.5128C170.212 10.3749 169.476 10.1759 168.737 9.97388C167.683 9.68684 166.589 9.38905 165.092 9.23563C164.743 9.19986 164.37 9.17399 163.98 9.1474C163.257 9.09757 162.452 9.04167 161.655 8.91754C161.376 8.87415 161.133 8.81638 160.896 8.75988C160.634 8.69772 160.378 8.63701 160.085 8.59819C158.99 8.45323 157.931 8.32745 156.996 8.21792C155.759 8.07277 154.723 7.95404 154.088 7.85469C152.955 7.67729 151.716 7.56832 150.472 7.46273C149.508 7.38043 148.516 7.29739 147.577 7.18748C144.914 6.875 141.167 6.54704 137.397 6.306C135.934 6.2112 134.714 6.03817 133.164 5.82388C132.202 5.691 131.113 5.54214 129.723 5.38863C128.941 5.30214 128.276 5.30384 127.662 5.3064C127.097 5.3088 126.575 5.31196 126.047 5.24893C125.581 5.19335 125.291 5.08166 125.008 4.97515C124.695 4.85685 124.4 4.74568 123.898 4.72849C123.631 4.71938 123.304 4.74239 122.917 4.77034C122.763 4.78139 122.6 4.79308 122.427 4.80405C122.437 4.7863 122.441 4.77005 122.442 4.75766C122.448 4.67004 121.943 4.59029 121.449 4.51347C121.252 4.48277 121.056 4.4525 120.895 4.42204C120.307 4.3098 119.176 4.22936 118.298 4.18354C117.928 4.16414 117.595 4.11848 117.208 4.06577C116.864 4.019 116.477 3.9666 115.983 3.92296C115.702 3.89809 115.487 3.86193 115.31 3.83191C115.181 3.81019 115.072 3.79171 114.97 3.78333C114.882 3.7761 114.81 3.79783 114.728 3.82234C114.67 3.83998 114.606 3.8591 114.529 3.8699C114.344 3.89567 114.108 3.89512 113.943 3.87651C113.866 3.86784 113.805 3.85524 113.744 3.84274C113.674 3.82816 113.603 3.81354 113.506 3.80519C113.059 3.76689 112.624 3.77694 112.173 3.78819C111.678 3.80058 111.163 3.81432 110.593 3.76776C110.414 3.7531 110.224 3.72781 110.04 3.70344C109.847 3.67792 109.66 3.65342 109.501 3.64318C108.854 3.60164 108.248 3.64545 107.674 3.68653C107.296 3.71393 106.94 3.7403 106.61 3.73997C106.007 3.73938 105.682 3.80743 105.443 3.85758C105.32 3.8836 105.219 3.90505 105.113 3.9099C105.017 3.90568 104.919 3.90108 104.823 3.89635C104.736 3.88895 104.645 3.88135 104.56 3.88144C104.554 3.88145 104.547 3.88164 104.541 3.88166C104.006 3.85252 103.482 3.81718 102.963 3.78317C101.777 3.70653 100.608 3.63667 99.3807 3.66306C99.1162 3.66876 98.847 3.69892 98.5737 3.72991C98.2386 3.76788 97.8973 3.80724 97.5489 3.80469C96.7063 3.79861 95.859 3.7514 95.0272 3.70825C93.7722 3.64336 92.5731 3.58743 91.4366 3.69271C91.0649 3.72739 90.7032 3.78047 90.3413 3.83457C90.1396 3.86473 89.9371 3.89532 89.733 3.92298C89.7753 3.8806 89.7974 3.84128 89.818 3.80462C89.8606 3.72906 89.8972 3.66434 90.0928 3.60523C90.555 3.46547 91.0808 3.27782 91.0192 3.15079C91.0025 3.11631 91.0145 3.07723 91.0278 3.03786C91.0611 2.93912 91.0949 2.83801 90.6594 2.80278C90.3659 2.77893 89.6129 2.7279 89.1386 2.8167C89.0354 2.83599 88.9732 2.8702 88.904 2.90823C88.7797 2.97661 88.6317 3.05736 88.1823 3.08945C88.1067 3.09486 88.0243 3.10023 87.9393 3.10553C87.6002 3.12665 87.2221 3.15102 87.0813 3.20809C86.9183 3.27384 86.9561 3.34111 87 3.41951C87.0573 3.52166 87.1251 3.64283 86.7756 3.80478C86.7063 3.83682 86.5727 3.85191 86.4719 3.86342C86.4008 3.87152 86.3465 3.87793 86.3413 3.887C86.3356 3.89741 86.3591 3.91772 86.3891 3.9434C86.4951 4.03414 86.6781 4.19196 85.9387 4.22808C85.7388 4.23794 85.5098 4.23946 85.3046 4.24101C85.0022 4.24328 84.7515 4.24577 84.7191 4.27427C84.7071 4.28507 84.6986 4.29657 84.6917 4.30841C84.4516 4.31583 84.2117 4.32354 83.972 4.33155C83.6632 4.31381 83.2322 4.33729 82.6956 4.36858C82.5653 4.37618 82.4281 4.38416 82.2856 4.39219C81.8146 4.41054 81.3357 4.43059 80.8619 4.45144C80.4852 4.45975 80.0841 4.46164 79.6604 4.45285C78.8117 4.43527 78.0709 4.36846 77.3473 4.30559C77.0432 4.27907 76.7386 4.25344 76.4304 4.23279C76.5488 4.21855 76.6555 4.20429 76.7375 4.1895C77.2977 4.0885 77.5126 3.95599 77.7132 3.83354C77.8462 3.75218 77.972 3.67549 78.1851 3.61713C78.5755 3.51034 78.5297 3.41971 78.4959 3.35249C78.4785 3.31764 78.465 3.28903 78.5166 3.26806C78.5582 3.25124 78.656 3.23812 78.7571 3.22463C78.8451 3.21286 78.9361 3.20068 78.9939 3.18562C79.6951 3.00303 79.477 2.93742 79.1586 2.84161C78.983 2.78885 78.7778 2.72714 78.6792 2.63169C78.5931 2.52946 78.6175 2.49605 78.9877 2.42894C78.6936 2.3947 78.3995 2.36092 78.1056 2.32761C77.9919 2.33882 77.9078 2.37794 77.7904 2.44148C77.5798 2.55487 76.8812 2.64038 76.3275 2.71032C76.0722 2.74252 75.8502 2.77099 75.7255 2.79579C75.0631 2.92802 75.2667 3.02485 75.4453 3.10968C75.5437 3.15643 75.6343 3.1998 75.5697 3.24358C75.5422 3.26229 75.5847 3.27544 75.6274 3.28889C75.6605 3.2993 75.6944 3.30986 75.6968 3.32324C75.7131 3.42048 75.324 3.5237 74.9639 3.6206C74.7576 3.67604 74.5611 3.72943 74.4541 3.77755C74.4215 3.79222 74.3958 3.80656 74.3718 3.82041C74.3367 3.84064 74.3024 3.85998 74.2478 3.87867C74.1235 3.92122 73.8639 3.96465 73.5797 4.0127C73.4339 4.03733 73.2818 4.06318 73.1383 4.09064C72.9524 4.12625 72.8883 4.17096 72.8206 4.2177C72.7727 4.25073 72.7226 4.28484 72.6278 4.31774C72.4559 4.37727 72.1043 4.42498 71.7753 4.47034C71.6321 4.49007 71.4937 4.50945 71.3773 4.52869C71.3299 4.53652 71.3077 4.54534 71.3035 4.55493C70.7648 4.63679 70.2514 4.71861 69.7523 4.79979C67.2525 5.20928 65.0938 5.58389 61.8432 5.91251C61.2286 5.97522 60.5717 6.06804 59.9099 6.17541C57.7793 6.43444 55.655 6.71834 53.5303 7.02783C53.0969 7.0097 52.57 7.02238 51.9541 7.06863C50.7994 7.1554 49.625 7.33944 48.2372 7.56877C47.2074 7.73925 46.0769 7.93151 44.7435 8.13396C42.4961 8.47616 40.2195 8.86588 37.6374 9.40046C35.0919 9.92527 32.1475 10.6011 30.1112 11.1031C28.9937 11.3775 27.7906 11.6055 26.6766 11.8222C25.1245 12.1229 23.7198 12.4087 22.911 12.7708C22.6528 12.8864 22.4118 13.0305 22.1771 13.1709C22.0107 13.2707 21.8425 13.3699 21.6822 13.4536C21.2217 13.5699 20.7597 13.6877 20.2968 13.8065C19.4561 13.9509 18.1555 14.2233 16.944 14.6827C16.4567 14.8125 15.9902 14.9373 15.5295 15.061C14.5283 15.331 13.5437 15.5997 12.5452 15.8764C12.2192 15.9666 11.8895 16.0584 11.5584 16.1509C11.5553 16.1518 11.5521 16.1526 11.549 16.1535C10.8783 16.3411 10.2317 16.5229 9.57807 16.7084C9.29937 16.7874 9.02026 16.8669 8.74074 16.9468C8.0304 17.1499 7.31223 17.3574 6.60353 17.5634C6.22992 17.6719 5.84401 17.7849 5.47257 17.8936C4.86884 18.0704 4.25852 18.2505 3.64919 18.4314C2.66377 18.724 1.67744 19.0198 0.683536 19.3212C0.520979 19.3704 0.36131 19.408 0.240184 19.4247C0.119088 19.4413 0.0457441 19.4359 0.0366115 19.408C0.0275173 19.3802 0.083319 19.3314 0.190466 19.2717C0.297562 19.2121 0.447785 19.1465 0.60733 19.0884C1.5844 18.7328 2.55494 18.3829 3.52452 18.0369C4.12375 17.8231 4.72375 17.6101 5.31777 17.4007C5.68352 17.2718 6.06306 17.1391 6.43098 17.0105C7.12866 16.767 7.8372 16.5218 8.53707 16.2815C8.81244 16.187 9.08743 16.0928 9.36204 15.9991C10.0079 15.7787 10.6466 15.5622 11.3104 15.3399C11.3144 15.3386 11.3184 15.3372 11.3224 15.3359C11.6466 15.2272 11.9699 15.1193 12.2892 15.013C13.2748 14.6854 14.2473 14.366 15.2368 14.0459C15.7483 13.8798 16.2771 13.71 16.8184 13.5378C17.1175 13.4425 17.4157 13.3479 17.7081 13.2554C17.8679 13.2049 18.0299 13.154 18.1926 13.103C21.9061 11.9352 25.6146 10.8326 29.4104 9.78376C33.1571 8.74737 36.9614 7.77273 40.7568 6.88535C44.5673 5.99449 48.3914 5.18586 52.2316 4.4649C76.64 -0.206397 101.86 -0.823933 126.708 0.835408C130.248 1.06466 133.871 1.34318 137.45 1.65458C141.001 1.96309 144.557 2.30748 148.118 2.68289C149.204 2.79712 150.364 2.92268 151.484 3.04662ZM450.291 8.95998C459.302 11.2901 467.736 14.3576 476.578 17.3236L478.535 17.9495L477.891 19.9611C477.874 20.0114 477.857 20.0616 477.84 20.1119C477.804 20.2198 477.768 20.3278 477.732 20.4358C477.678 20.5949 477.626 20.7528 477.573 20.9108L476.946 22.8655L474.936 22.2227C464.203 18.6463 453.162 15.7678 442.256 13.0519C431.143 10.2767 419.827 8.10135 408.438 6.70391C397.038 5.29535 385.55 4.65273 374.018 4.60892C362.517 4.56201 350.972 5.09103 339.435 5.95046C331.612 6.53373 323.793 7.26928 315.98 8.10212C312.518 8.47224 309.164 8.8474 305.692 9.25385C303.139 9.55209 300.622 9.85375 298.024 10.1747C297.905 10.1894 297.787 10.2015 297.672 10.2107L297.549 10.2303L297.528 10.1031C297.514 9.9216 297.507 9.75059 297.508 9.60155C297.509 9.56447 297.509 9.52877 297.511 9.4946C297.521 9.23788 297.561 9.08826 297.622 9.07974C297.684 9.07134 297.764 9.20484 297.846 9.44907C297.857 9.48066 297.868 9.51377 297.878 9.54826C297.921 9.69079 297.963 9.85685 298 10.035L297.605 9.73901C297.718 9.71542 297.836 9.6935 297.957 9.67385C300.564 9.24884 303.085 8.84377 305.651 8.44122C308.555 7.98706 311.293 7.56611 314.21 7.13505C314.695 7.33014 315.341 7.44218 316.504 7.38154C317.098 7.35054 317.953 7.26183 318.573 7.13745C319.127 7.02589 319.566 6.89557 319.966 6.77378C320.387 6.64605 320.787 6.52514 321.307 6.43693C322.189 6.28725 323.016 6.08003 323.879 5.86433C324.193 5.78583 324.512 5.70614 324.841 5.62782C327.59 5.25733 330.298 4.90687 333.04 4.57041C334.111 4.48643 335.087 4.40977 335.909 4.31762C336.646 4.23496 337.313 4.11573 337.973 3.98498C338.389 3.93721 338.828 3.88776 339.254 3.84003C342.017 3.53076 344.712 3.24777 347.481 2.98168C349.611 2.88374 351.89 2.78222 354.801 2.62796C356.043 2.56256 357.31 2.52543 358.509 2.496C360.286 2.45211 361.915 2.42441 363.395 2.32558C364.373 2.25994 365.399 2.25682 366.416 2.25825C367.765 2.2605 369.171 2.26903 370.403 2.14263C371.182 2.06295 371.894 1.97402 372.552 1.89332C373.602 1.76487 374.541 1.65697 375.377 1.6433C376.954 1.61772 378.291 1.53647 379.509 1.47058C380.961 1.3915 382.172 1.33454 383.228 1.42935C383.389 1.44375 383.569 1.46246 383.78 1.48406C384.883 1.59844 386.633 1.78303 389.139 1.792C390.04 1.79576 390.886 1.75475 391.712 1.7178C392.916 1.66419 394.077 1.61878 395.33 1.73935C395.516 1.75735 395.709 1.79841 395.885 1.83605C396.108 1.8839 396.303 1.92597 396.421 1.90738C396.767 1.85283 397.315 1.8037 397.909 1.75253C398.346 1.7149 398.807 1.67606 399.236 1.63237C402.481 1.82759 405.709 2.0826 408.938 2.40064C410.418 2.54641 411.898 2.7055 413.375 2.87757C414.115 3.08781 414.873 3.29207 415.675 3.48097C416.724 3.72803 418.099 3.95367 419.862 4.26558C421.159 4.49516 422.673 4.77273 424.424 5.14575C427.658 5.83271 430.994 6.45158 433.145 6.82243C433.599 6.90037 434.061 6.97992 434.545 7.06385C436.385 7.38714 438.708 7.79086 443.054 8.73896C447.164 9.64037 450.632 10.5386 453.232 11.2338C454.571 11.5924 455.656 11.8909 456.5 12.1165C457.934 12.4998 459.739 13.0026 461.486 13.5029C464.258 14.2958 467.036 15.1301 468.614 15.5863C469.177 15.7489 469.77 15.9185 470.414 16.1042C472.002 16.5623 473.863 17.1049 476.382 17.9065L473.258 19.4606C473.308 19.3044 473.358 19.1458 473.41 18.9847C473.448 18.8676 473.486 18.7478 473.525 18.6266C473.538 18.5873 473.55 18.5483 473.563 18.5095L475.127 21.6524C472.126 20.6891 470.346 20.0839 468.412 19.4022C467.622 19.1243 466.952 18.8101 466.263 18.4885C465.285 18.0323 464.276 17.5624 462.798 17.1586C462.456 17.0651 462.087 16.9776 461.703 16.887C460.996 16.7206 460.235 16.5437 459.478 16.298C459.214 16.2123 458.99 16.1187 458.761 16.0247C458.512 15.9219 458.268 15.8215 457.983 15.7371C456.92 15.4216 455.888 15.1332 454.974 14.8816C453.803 14.5591 452.793 14.2875 452.183 14.0966C451.091 13.7552 449.88 13.4684 448.661 13.1876C447.715 12.9691 446.762 12.7538 445.851 12.5179C443.261 11.8457 439.643 11.0435 435.886 10.3474C434.47 10.0849 433.296 9.77561 431.771 9.38774C430.825 9.14746 429.753 8.87906 428.413 8.58427C427.648 8.41651 426.988 8.34969 426.378 8.2896C425.815 8.23429 425.295 8.1847 424.772 8.06901C424.311 7.9669 424.033 7.82724 423.768 7.69472C423.473 7.5473 423.193 7.40842 422.699 7.34381C422.436 7.30947 422.11 7.30157 421.724 7.29316C421.571 7.28983 421.408 7.28622 421.235 7.28109C421.247 7.26434 421.252 7.24848 421.254 7.23622C421.268 7.14958 420.774 7.02316 420.289 6.90126C420.096 6.85255 419.903 6.80442 419.745 6.7594C419.166 6.59336 418.044 6.41176 417.185 6.29164C416.822 6.24061 416.496 6.16673 416.116 6.08134C415.779 6.00557 415.399 5.92064 414.91 5.83583C414.632 5.78749 414.42 5.73357 414.245 5.68889C414.118 5.65655 414.011 5.62907 413.909 5.6123C413.822 5.59779 413.747 5.61346 413.664 5.63117C413.604 5.64392 413.538 5.65772 413.46 5.6621C413.272 5.67253 413.035 5.65261 412.871 5.62058C412.795 5.60578 412.736 5.5884 412.678 5.57115C412.609 5.55105 412.541 5.53094 412.446 5.51494C412.009 5.44161 411.578 5.41755 411.13 5.39371C410.638 5.36752 410.125 5.34141 409.561 5.25137C409.383 5.22303 409.195 5.18327 409.012 5.14494C408.822 5.10482 408.637 5.06627 408.478 5.04403C407.834 4.95376 407.22 4.95194 406.655 4.95198C406.279 4.952 405.924 4.95273 405.597 4.92883C404.998 4.88508 404.669 4.92998 404.427 4.96305C404.301 4.98023 404.199 4.99448 404.093 4.99187C403.997 4.98084 403.9 4.96935 403.805 4.95794C403.718 4.94442 403.629 4.93049 403.544 4.92463C403.537 4.92419 403.531 4.92394 403.524 4.92351C402.993 4.85705 402.471 4.78539 401.952 4.71557C400.786 4.55894 399.624 4.41074 398.398 4.35639C398.135 4.3447 397.864 4.35714 397.589 4.37018C397.251 4.38614 396.906 4.4031 396.556 4.3779C395.724 4.31785 394.884 4.21663 394.054 4.1206C392.814 3.9766 391.601 3.8447 390.473 3.8794C390.101 3.89085 389.737 3.92129 389.371 3.95272C389.168 3.97025 388.963 3.98814 388.756 4.00302C388.801 3.96335 388.826 3.9255 388.849 3.89019C388.896 3.81744 388.937 3.75512 389.137 3.70832C389.609 3.59767 390.145 3.44315 390.091 3.31253C390.077 3.27707 390.091 3.23882 390.107 3.20035C390.146 3.10389 390.186 3.00507 389.754 2.94277C389.463 2.90068 388.709 2.80271 388.235 2.86203C388.131 2.87488 388.067 2.90517 387.996 2.93882C387.868 2.99936 387.715 3.07077 387.265 3.07485C387.189 3.07555 387.106 3.07579 387.021 3.0758C386.68 3.07578 386.298 3.07651 386.154 3.12471C385.988 3.18022 386.022 3.24971 386.061 3.33068C386.111 3.43619 386.171 3.56133 385.814 3.70128C385.743 3.72895 385.609 3.7357 385.508 3.74091C385.436 3.74457 385.382 3.7476 385.376 3.75633C385.37 3.76637 385.392 3.78809 385.42 3.81559C385.52 3.91274 385.693 4.08168 384.953 4.07166C384.753 4.06903 384.524 4.05626 384.318 4.04498C384.015 4.02833 383.763 4.0151 383.729 4.04151C383.716 4.05153 383.707 4.06248 383.699 4.07387C383.458 4.06622 383.221 4.05895 382.982 4.0519C382.676 4.01483 382.246 4.01119 381.707 4.0085C381.576 4.00785 381.438 4.00714 381.294 4.00613C380.821 3.99459 380.346 3.98418 379.87 3.97469C379.493 3.95888 379.091 3.93503 378.665 3.89891C377.815 3.82661 377.09 3.71158 376.368 3.60116C376.065 3.55465 375.764 3.50891 375.458 3.46779C375.577 3.46146 375.685 3.45433 375.767 3.44501C376.332 3.38137 376.557 3.2632 376.765 3.1542C376.903 3.08176 377.034 3.01348 377.25 2.96917C377.645 2.8881 377.605 2.79465 377.576 2.72538C377.561 2.68946 377.549 2.66004 377.602 2.64247C377.644 2.6284 377.743 2.62168 377.844 2.61478C377.932 2.60876 378.023 2.60251 378.081 2.59122C378.79 2.45442 378.579 2.3748 378.266 2.25861C378.096 2.1946 377.896 2.1197 377.805 2.01804C377.726 1.91041 377.752 1.87869 378.124 1.83574C377.834 1.7825 377.545 1.72966 377.255 1.67721C377.141 1.68097 377.055 1.7145 376.933 1.7702C376.717 1.86957 376.011 1.90897 375.457 1.94185C375.201 1.95698 374.977 1.97054 374.851 1.98694C374.18 2.07443 374.377 2.18465 374.55 2.28132C374.645 2.33457 374.733 2.38393 374.665 2.42327C374.637 2.4401 374.678 2.45606 374.72 2.47235C374.752 2.48495 374.785 2.49776 374.787 2.51127C374.797 2.60939 374.401 2.68631 374.033 2.75864C373.822 2.80002 373.621 2.83996 373.51 2.88071C373.477 2.89312 373.45 2.90568 373.425 2.91787C373.388 2.93566 373.352 2.95264 373.296 2.96756C373.167 3.00156 372.904 3.02718 372.62 3.05552C372.474 3.07005 372.321 3.08533 372.176 3.10279C371.989 3.12543 371.922 3.16557 371.852 3.20748C371.802 3.23711 371.75 3.26765 371.653 3.29387C371.478 3.34127 371.123 3.36431 370.792 3.38634C370.649 3.39592 370.509 3.40545 370.392 3.41639C370.344 3.42084 370.321 3.42806 370.316 3.43734C369.774 3.48075 369.254 3.52553 368.746 3.57038C366.21 3.7969 364.033 4.00813 360.759 4.06903C360.144 4.08073 359.482 4.1182 358.81 4.16888C356.64 4.24673 354.521 4.33707 352.362 4.44372C351.93 4.3846 351.402 4.34678 350.776 4.33324C349.612 4.30709 348.442 4.37123 347.033 4.45536C346 4.51684 344.8 4.59257 343.481 4.64456C341.25 4.73327 338.845 4.86685 336.276 5.07529C333.672 5.28633 330.676 5.57102 328.58 5.79194C327.434 5.91222 326.189 5.97355 325.066 6.02927C323.493 6.10651 322.063 6.1836 321.209 6.42221C320.937 6.49842 320.677 6.60517 320.423 6.7091C320.243 6.78312 320.065 6.85571 319.889 6.91513C319.408 6.96203 318.912 7.01145 318.448 7.0571C317.602 7.07136 316.284 7.13929 315.023 7.40155C314.529 7.45219 314.033 7.50355 313.552 7.55309C312.499 7.66299 311.482 7.76967 310.471 7.87684C310.139 7.91194 309.803 7.94773 309.465 7.98385C309.462 7.98417 309.459 7.9845 309.456 7.98482C308.776 8.05753 308.089 8.13191 307.41 8.2057C307.119 8.23733 306.827 8.26916 306.535 8.30118C305.799 8.38182 305.023 8.46847 304.318 8.54603C303.938 8.58799 303.553 8.63086 303.166 8.67398C302.539 8.74395 301.904 8.81534 301.271 8.88704C300.245 9.003 299.218 9.12021 298.183 9.23969C298.013 9.25918 297.849 9.26772 297.726 9.26247C297.604 9.25718 297.532 9.23874 297.528 9.20971C297.524 9.18066 297.588 9.14266 297.705 9.10306C297.821 9.06356 297.981 9.02583 298.149 8.99705C299.178 8.82121 300.199 8.64808 301.217 8.47682C301.846 8.37097 302.476 8.26542 303.099 8.1617C303.483 8.09775 303.865 8.03446 304.243 7.97182C304.943 7.85545 305.715 7.72996 306.447 7.61103C306.737 7.56389 307.026 7.51695 307.315 7.47019C307.992 7.36073 308.677 7.25095 309.354 7.14303C309.358 7.14238 309.363 7.14174 309.367 7.14109C309.7 7.088 310.031 7.03523 310.359 6.98325C311.365 6.82391 312.377 6.66535 313.425 6.50428C313.964 6.42081 314.524 6.33545 315.077 6.25125C315.385 6.20436 315.692 6.15776 315.993 6.11217C316.157 6.08736 316.324 6.06236 316.491 6.0373C320.33 5.45954 324.146 4.91247 328.064 4.38961C331.901 3.87589 335.802 3.39052 339.667 2.95181C343.548 2.51154 347.435 2.11389 351.311 1.76834C375.972 -0.477505 401.161 -0.459645 425.873 3.74386C429.396 4.32957 433.003 5.00861 436.496 5.7362C440.043 6.47534 443.502 7.26544 447.003 8.12938C448.067 8.39203 449.177 8.67235 450.291 8.95998Z" fill="black"/>
</svg>
