<svg width="78" height="42" viewBox="0 0 78 42" fill="none" xmlns="http://www.w3.org/2000/svg">
<g filter="url(#filter0_i_24_868)">
<path d="M62.1971 26.3975H66.0082C73.8662 26.3975 78.088 17.9636 71.6917 13.3991C47.7158 -3.71037 9.17844 0.0502098 3.59093 19.5962C2.60737 24.0012 2.26963 27.3183 2.65424 29.4906C3.35418 33.4437 8.70084 35.4264 12.517 36.6731C16.8467 38.0876 22.4366 39.8978 26.9552 39.3236C31.2584 38.7767 37.0502 34.8557 44.0646 30.6674C45.776 29.6455 47.7675 29.2492 49.7606 29.2195C52.6979 29.1757 54.9167 28.6422 57.5812 27.4564C59.0395 26.8074 60.6009 26.3975 62.1971 26.3975Z" fill="#FB8A55"/>
</g>
<path d="M62.1971 26.3975H66.0082C73.8662 26.3975 78.088 17.9636 71.6917 13.3991C47.7158 -3.71037 9.17844 0.0502098 3.59093 19.5962C2.60737 24.0012 2.26963 27.3183 2.65424 29.4906C3.35418 33.4437 8.70084 35.4264 12.517 36.6731C16.8467 38.0876 22.4366 39.8978 26.9552 39.3236C31.2584 38.7767 37.0502 34.8557 44.0646 30.6674C45.776 29.6455 47.7675 29.2492 49.7606 29.2195C52.6979 29.1757 54.9167 28.6422 57.5812 27.4564C59.0395 26.8074 60.6009 26.3975 62.1971 26.3975Z" stroke="#FF844A" stroke-width="5"/>
<defs>
<filter id="filter0_i_24_868" x="0" y="0" width="77.3081" height="47.9326" filterUnits="userSpaceOnUse" color-interpolation-filters="sRGB">
<feFlood flood-opacity="0" result="BackgroundImageFix"/>
<feBlend mode="normal" in="SourceGraphic" in2="BackgroundImageFix" result="shape"/>
<feColorMatrix in="SourceAlpha" type="matrix" values="0 0 0 0 0 0 0 0 0 0 0 0 0 0 0 0 0 0 127 0" result="hardAlpha"/>
<feOffset dy="6"/>
<feGaussianBlur stdDeviation="3.4"/>
<feComposite in2="hardAlpha" operator="arithmetic" k2="-1" k3="1"/>
<feColorMatrix type="matrix" values="0 0 0 0 1 0 0 0 0 1 0 0 0 0 1 0 0 0 0.25 0"/>
<feBlend mode="normal" in2="shape" result="effect1_innerShadow_24_868"/>
</filter>
</defs>
</svg>
